<?xml version="1.0" encoding="UTF-8"?>
<svg version="1.1" xmlns="http://www.w3.org/2000/svg" width="500" height="500">
<path d="M0 0 C17.57675204 -0.04678562 35.15348456 -0.08202095 52.73028469 -0.10362434 C60.89206973 -0.11392318 69.05381601 -0.12795682 77.21557617 -0.15087891 C84.33195827 -0.1708555 91.44831228 -0.18372655 98.56472164 -0.18817699 C102.33044447 -0.19077715 106.09608698 -0.19685949 109.86178398 -0.21146011 C113.4116972 -0.22511159 116.96149758 -0.22920747 120.51143456 -0.22621536 C122.42413147 -0.22702138 124.33681631 -0.23774323 126.2494812 -0.24884033 C135.59410136 -0.2266293 143.22840798 0.71846859 151.5625 5.125 C152.59503906 5.66382813 153.62757813 6.20265625 154.69140625 6.7578125 C155.83416016 7.37269531 155.83416016 7.37269531 157 8 C157 8.66 157 9.32 157 10 C157.721875 10.226875 158.44375 10.45375 159.1875 10.6875 C162.56432417 12.26335128 164.55767039 14.20876616 167 17 C167 17.66 167 18.32 167 19 C167.66 19 168.32 19 169 19 C170.29094911 21.07287791 171.55655167 23.15601959 172.8125 25.25 C173.16892578 25.8171875 173.52535156 26.384375 173.89257812 26.96875 C179.40424448 36.27284734 180.4495264 46.48721585 180.34057617 57.10253906 C180.34101425 58.24545914 180.34145233 59.38837921 180.34190369 60.56593323 C180.33983336 64.29934483 180.31658536 68.03229299 180.29296875 71.765625 C180.28736656 74.37164057 180.28309941 76.97765933 180.28010559 79.5836792 C180.27083304 85.7138617 180.24628527 91.84388102 180.21605712 97.97399211 C180.18236259 104.96081322 180.16598953 111.9476427 180.15097082 118.93452501 C180.11973054 133.28977045 180.06706481 147.64487941 180 162 C156.6785713 162.02332641 133.35714451 162.0409779 110.03570652 162.05181217 C99.2079638 162.05697568 88.38022831 162.06401942 77.55249023 162.07543945 C68.11865593 162.08538462 58.68482687 162.09185303 49.25098747 162.09408849 C44.25258514 162.09539589 39.25419779 162.09848353 34.25580025 162.10573006 C29.5568499 162.11248764 24.85792081 162.1146175 20.15896606 162.11310768 C18.42911094 162.11338413 16.69925516 162.1153908 14.96940422 162.11920547 C12.61817177 162.12413864 10.26702085 162.1229997 7.91578674 162.12025452 C6.59670098 162.12117631 5.27761522 162.1220981 3.91855717 162.12304783 C1 162 1 162 0 161 C-0.12951425 159.08922752 -0.18863071 157.17366901 -0.22119141 155.25878906 C-0.244319 154.00859985 -0.26744659 152.75841064 -0.29127502 151.47033691 C-0.31169568 150.06877097 -0.33177965 148.66720009 -0.3515625 147.265625 C-0.37520022 145.79439031 -0.39900292 144.32315826 -0.42295837 142.85192871 C-0.48612911 138.82712058 -0.54066093 134.80223821 -0.59233475 130.77726746 C-0.6248952 128.25810788 -0.65937912 125.7389798 -0.69406128 123.21984863 C-1.24602662 82.14063281 -0.67601984 41.07449457 0 0 Z M110 20 C106.999467 23.07449747 106.999467 23.07449747 106 27 C105.34 27 104.68 27 104 27 C102.41173778 28.71497772 102.41173778 28.71497772 100.875 30.875 C100.33617187 31.59429687 99.79734375 32.31359375 99.2421875 33.0546875 C97.82060368 34.89626006 97.82060368 34.89626006 98 37 C97.34 37 96.68 37 96 37 C94.6393991 38.48636758 94.6393991 38.48636758 93.375 40.375 C92.70597656 41.31472656 92.70597656 41.31472656 92.0234375 42.2734375 C90.83003031 43.95222643 90.83003031 43.95222643 91 46 C90.34 46 89.68 46 89 46 C87.41173778 47.71497772 87.41173778 47.71497772 85.875 49.875 C85.33617187 50.59429687 84.79734375 51.31359375 84.2421875 52.0546875 C82.82060368 53.89626006 82.82060368 53.89626006 83 56 C82.34 56 81.68 56 81 56 C79.5760131 57.71519077 78.2336784 59.4987912 76.9375 61.3125 C76.22464844 62.29863281 75.51179688 63.28476563 74.77734375 64.30078125 C72.88048365 66.92919059 72.88048365 66.92919059 72 70 C71.34 70 70.68 70 70 70 C68.45923412 71.8649811 67.03246762 73.72578451 65.625 75.6875 C61.13615242 81.83526952 61.13615242 81.83526952 58.7109375 84.76953125 C56.79712142 86.79596615 56.79712142 86.79596615 57 89 C68.22 89 79.44 89 91 89 C89.80375 92.526875 88.6075 96.05375 87.375 99.6875 C84.60157766 107.95315195 81.96015736 116.24222997 79.5625 124.625 C79.19294189 125.9102356 79.19294189 125.9102356 78.81591797 127.22143555 C77.62293043 131.4630277 76.61556114 135.62739327 76 140 C77.54166642 138.62514468 77.54166642 138.62514468 79 137 C79 136.34 79 135.68 79 135 C79.66 135 80.32 135 81 135 C82.70522037 132.97096601 84.30091868 130.9395749 85.875 128.8125 C86.74697282 127.65202578 87.61936328 126.49186524 88.4921875 125.33203125 C88.91209961 124.76822754 89.33201172 124.20442383 89.76464844 123.62353516 C90.91033308 122.11784289 92.11327948 120.65619295 93.3203125 119.19921875 C95.20232615 117.19630948 95.20232615 117.19630948 95 115 C95.66 115 96.32 115 97 115 C98.58826222 113.28502228 98.58826222 113.28502228 100.125 111.125 C100.66382813 110.40570313 101.20265625 109.68640625 101.7578125 108.9453125 C103.17939632 107.10373994 103.17939632 107.10373994 103 105 C103.66 105 104.32 105 105 105 C105 104.34 105 103.68 105 103 C105.66 103 106.32 103 107 103 C108.3606009 101.51363242 108.3606009 101.51363242 109.625 99.625 C110.07101562 98.99851562 110.51703125 98.37203125 110.9765625 97.7265625 C112.16996969 96.04777357 112.16996969 96.04777357 112 94 C112.66 94 113.32 94 114 94 C115.58826222 92.28502228 115.58826222 92.28502228 117.125 90.125 C117.66382813 89.40570313 118.20265625 88.68640625 118.7578125 87.9453125 C120.17939632 86.10373994 120.17939632 86.10373994 120 84 C120.66 84 121.32 84 122 84 C123.41674287 82.45156729 123.41674287 82.45156729 124.8125 80.4375 C125.29332031 79.77621094 125.77414062 79.11492187 126.26953125 78.43359375 C126.84058594 77.63050781 127.41164063 76.82742187 128 76 C129.65 73.69 131.3 71.38 133 69 C120.46 69 107.92 69 95 69 C96.32 65.7 97.64 62.4 99 59 C99.55448439 57.28132848 100.08581366 55.55435386 100.5625 53.8125 C101.53587754 50.42661147 102.72868903 47.32057588 104.1796875 44.10546875 C107.19609477 36.36335675 109.06259112 28.07253699 111 20 C110.67 20 110.34 20 110 20 Z " fill="#204F91" transform="translate(253,55)"/>
<path d="M0 0 C2.29886072 -0.0015895 4.59771074 -0.00512373 6.8965683 -0.00918579 C22.89350174 -0.03425628 38.87588116 0.09902975 54.86660004 0.56869507 C55.57025759 0.58811031 56.27391514 0.60752556 56.99889565 0.62752914 C58.96269499 0.6832099 60.92625749 0.74706709 62.8897934 0.81137085 C64.56409676 0.86516403 64.56409676 0.86516403 66.27222443 0.92004395 C68.77675629 1.12338257 68.77675629 1.12338257 69.77675629 2.12338257 C69.87352042 4.14832879 69.89862615 6.17670799 69.8970108 8.20396423 C69.89829244 9.16692245 69.89829244 9.16692245 69.89959997 10.14933437 C69.9012565 12.31592311 69.89573061 14.48243564 69.89028168 16.64901733 C69.88999982 18.19594318 69.89015752 19.74286916 69.89072418 21.28979492 C69.8910122 25.50242289 69.88511478 29.71502263 69.87815022 33.92764401 C69.87191741 38.32524045 69.87131295 42.72283746 69.87012482 47.12043762 C69.86701129 55.4537877 69.85879761 63.78712472 69.84877533 72.12046903 C69.83761486 81.60519511 69.83210391 91.08992179 69.82707989 100.57465279 C69.81661501 120.09090346 69.79901516 139.60714197 69.77675629 159.12338257 C51.99108237 159.21704608 34.20547295 159.28746922 16.41960526 159.33063126 C8.16031625 159.35120961 -0.09881903 159.37923913 -8.35800934 159.42514038 C-15.56121866 159.46515365 -22.76431658 159.4908497 -29.96763396 159.49973655 C-33.77771159 159.50492694 -37.58747068 159.51702597 -41.39744568 159.5463028 C-44.9925984 159.57370183 -48.58730512 159.58177895 -52.18255234 159.57581329 C-54.1126071 159.57741734 -56.04261466 159.59881084 -57.97254181 159.62106323 C-72.40860372 159.55365865 -84.28131412 154.43529412 -95.22324371 145.12338257 C-105.45433006 134.25285333 -110.27739813 121.81782983 -110.85581207 107.04428101 C-110.89384162 106.18071865 -110.93187117 105.3171563 -110.97105312 104.42742538 C-111.37615413 94.08043138 -111.2445399 83.74012007 -111.10214996 73.38900757 C-111.0777653 71.28767501 -111.05392641 69.18633605 -111.0306015 67.08499146 C-110.96858874 61.62715206 -110.89930025 56.16942994 -110.82834625 50.71170044 C-110.75690131 45.1133038 -110.69254461 39.51482579 -110.62754059 33.91635132 C-110.49960032 22.98527227 -110.36395159 12.05430421 -110.22324371 1.12338257 C-73.48333101 0.50985882 -36.74559447 0.01655095 0 0 Z M-15.22324371 21.12338257 C-15.22324371 21.78338257 -15.22324371 22.44338257 -15.22324371 23.12338257 C-20.8068753 25.07098881 -25.24557245 25.22574104 -31.09824371 24.68588257 C-33.80851031 24.45700554 -36.50622415 24.26904335 -39.22324371 24.12338257 C-40.61233011 25.29448441 -40.61233011 25.29448441 -40.47324371 28.56088257 C-40.39074371 29.73650757 -40.30824371 30.91213257 -40.22324371 32.12338257 C-36.05045684 34.90524048 -32.51019132 33.9228879 -27.76035309 33.40072632 C-24.0027067 33.05065817 -21.35158953 32.84822197 -18.22324371 35.12338257 C-17.02051552 37.52883895 -17.12252899 39.0733521 -17.16074371 41.74838257 C-17.16976715 42.56564819 -17.17879059 43.38291382 -17.18808746 44.22494507 C-17.19968903 44.85142944 -17.21129059 45.47791382 -17.22324371 46.12338257 C-19.53324371 46.45338257 -21.84324371 46.78338257 -24.22324371 47.12338257 C-24.55324371 50.09338257 -24.88324371 53.06338257 -25.22324371 56.12338257 C-25.88324371 56.12338257 -26.54324371 56.12338257 -27.22324371 56.12338257 C-27.22324371 56.78338257 -27.22324371 57.44338257 -27.22324371 58.12338257 C-28.49039215 58.08857788 -29.75754059 58.05377319 -31.06308746 58.01791382 C-32.76229282 57.98975019 -34.46151269 57.96245282 -36.16074371 57.93588257 C-36.99154449 57.91074585 -37.82234528 57.88560913 -38.67832184 57.85971069 C-49.01663588 57.73902998 -56.80384032 60.88528039 -64.22324371 68.12338257 C-70.30914914 75.60072364 -72.36472361 82.29429764 -72.87949371 91.83041382 C-73.04964996 92.96543335 -73.04964996 92.96543335 -73.22324371 94.12338257 C-74.21324371 94.61838257 -74.21324371 94.61838257 -75.22324371 95.12338257 C-75.39001654 98.53994281 -75.39001654 98.53994281 -75.22324371 102.12338257 C-73.40495788 104.36717658 -73.40495788 104.36717658 -70.79306793 104.35043335 C-69.79807281 104.33995972 -68.8030777 104.32948608 -67.77793121 104.31869507 C-66.70156403 104.31224976 -65.62519684 104.30580444 -64.51621246 104.29916382 C-63.38828278 104.28240601 -62.26035309 104.26564819 -61.09824371 104.24838257 C-59.96257965 104.23935913 -58.82691559 104.23033569 -57.65683746 104.22103882 C-54.84543073 104.19741355 -52.03444073 104.1644727 -49.22324371 104.12338257 C-49.19635155 102.64431365 -49.1768975 101.16510774 -49.16074371 99.68588257 C-49.14914215 98.86217163 -49.13754059 98.03846069 -49.12558746 97.18978882 C-48.99057023 95.13174319 -48.99057023 95.13174319 -50.22324371 94.12338257 C-50.61383805 90.06120148 -50.65660535 87.81985663 -48.47324371 84.31088257 C-43.40857946 79.38690343 -38.51275513 79.65776787 -31.67246246 79.72103882 C-28.25727175 80.11941327 -26.92658764 80.5655064 -24.28574371 82.62338257 C-19.62775241 86.13695359 -14.74519777 85.72760363 -9.10214996 85.78744507 C-5.45194602 85.16253603 -3.99759276 84.52180456 -0.97324371 82.63510132 C4.35761393 79.44535853 9.23934706 79.34721558 15.33925629 79.31088257 C16.34794769 79.28574585 17.3566391 79.26060913 18.39589691 79.23471069 C20.85657678 79.17640074 23.31550115 79.13971196 25.77675629 79.12338257 C25.75613129 80.25775757 25.73550629 81.39213257 25.71425629 82.56088257 C25.36098152 85.93913931 25.36098152 85.93913931 26.77675629 87.12338257 C28.4410468 87.22162194 30.1095756 87.25311888 31.77675629 87.24838257 C32.68425629 87.25096069 33.59175629 87.25353882 34.52675629 87.25619507 C36.7464224 87.37512036 36.7464224 87.37512036 37.77675629 86.12338257 C37.86534274 83.38444172 37.89199108 80.67084987 37.87441254 77.93197632 C37.87299759 77.1121376 37.87158264 76.29229889 37.87012482 75.44761658 C37.86450918 72.81866874 37.85195408 70.18980483 37.83925629 67.56088257 C37.8342433 65.782889 37.82968004 64.00489411 37.82558441 62.22689819 C37.81453467 57.85902712 37.7972596 53.49121909 37.77675629 49.12338257 C35.96433577 49.09650978 34.15180395 49.07704541 32.33925629 49.06088257 C31.32992035 49.04928101 30.32058441 49.03767944 29.28066254 49.02572632 C26.83654562 48.83725581 26.83654562 48.83725581 25.77675629 50.12338257 C25.7052743 51.47582174 25.69276174 52.83172624 25.71425629 54.18588257 C25.73488129 55.48525757 25.75550629 56.78463257 25.77675629 58.12338257 C21.81783309 58.01388233 17.85989303 57.88316589 13.90175629 57.74838257 C12.7738266 57.71744507 11.64589691 57.68650757 10.48378754 57.65463257 C8.86923676 57.59662476 8.86923676 57.59662476 7.22206879 57.53744507 C6.22707367 57.50602417 5.23207855 57.47460327 4.20693207 57.44223022 C1.77675629 57.12338257 1.77675629 57.12338257 -0.22324371 55.12338257 C-0.78844374 52.46800884 -0.96112569 49.83193544 -1.22324371 47.12338257 C-3.86324371 47.12338257 -6.50324371 47.12338257 -9.22324371 47.12338257 C-9.08239576 45.3313171 -8.9354067 43.5397334 -8.78574371 41.74838257 C-8.66392731 40.25178101 -8.66392731 40.25178101 -8.53964996 38.72494507 C-8.22324371 36.12338257 -8.22324371 36.12338257 -7.22324371 34.12338257 C-1.34625031 33.09724086 3.728072 33.15874388 9.61269379 34.06478882 C12.0772499 34.33978812 12.0772499 34.33978812 14.77675629 32.12338257 C15.19342295 29.12338257 15.19342295 29.12338257 14.77675629 26.12338257 C13.78675629 25.13338257 13.78675629 25.13338257 12.77675629 24.12338257 C9.26535995 24.21313072 5.82979711 24.50072719 2.33730316 24.84603882 C-2.71442243 25.26221954 -6.42830091 24.80002482 -11.22324371 23.12338257 C-11.22324371 22.46338257 -11.22324371 21.80338257 -11.22324371 21.12338257 C-12.54324371 21.12338257 -13.86324371 21.12338257 -15.22324371 21.12338257 Z M-64.22324371 113.12338257 C-67.24842281 116.1789668 -67.24842281 116.1789668 -68.22324371 120.12338257 C-68.88324371 120.12338257 -69.54324371 120.12338257 -70.22324371 120.12338257 C-72.63145628 124.17142859 -72.40399831 127.20563125 -71.82480621 131.77182007 C-71.34108857 134.36433087 -71.34108857 134.36433087 -69.03574371 136.74838257 C-65.08156212 138.68153801 -62.23392669 138.69786342 -58.03574371 137.49838257 C-55.27495036 135.40398761 -54.38606054 133.3670295 -53.22324371 130.12338257 C-52.84609542 123.58614548 -56.36781053 119.86929122 -60.31308746 115.06478882 C-60.94343903 114.42412476 -61.57379059 113.78346069 -62.22324371 113.12338257 C-62.88324371 113.12338257 -63.54324371 113.12338257 -64.22324371 113.12338257 Z " fill="#167649" transform="translate(177.2232437133789,221.87661743164063)"/>
<path d="M0 0 C1.97862864 0.00138269 1.97862864 0.00138269 3.99722958 0.00279331 C5.09494502 0.00151167 5.09494502 0.00151167 6.21483654 0.00020415 C8.68545163 -0.00145283 11.15599994 0.00407424 13.62660885 0.00952244 C15.39028071 0.00980429 17.15395268 0.00964662 18.91762447 0.00907993 C23.72114126 0.00879188 28.5246333 0.0146899 33.32814431 0.02165389 C38.34233969 0.02788609 43.35653557 0.02849112 48.37073421 0.0296793 C57.87281044 0.03279301 67.37487522 0.04100693 76.87694639 0.05102879 C87.69175622 0.06218869 98.50656658 0.06770006 109.32138073 0.07272422 C131.57474117 0.08318952 153.82809128 0.10078973 176.08144283 0.12304783 C176.858809 15.10814189 177.22380918 30.03330234 177.10097408 45.03711033 C177.09401705 46.01478745 177.08706001 46.99246456 177.07989216 47.99976826 C177.04301429 53.1501491 176.99929431 58.30041425 176.94936275 63.45068455 C176.89960209 68.72080976 176.87367742 73.99078038 176.85293198 79.26108837 C176.83247955 83.36904188 176.79458818 87.47670615 176.75207233 91.58448505 C176.73489843 93.52745439 176.72407585 95.47049199 176.72012424 97.41353321 C176.67234917 115.53914111 173.95025311 130.3608656 161.08144283 144.12304783 C151.63506439 152.3403967 140.93159398 158.2548496 128.24115658 158.24330235 C127.07313 158.24467701 125.90510342 158.24605167 124.70168209 158.24746799 C123.42925655 158.24387272 122.15683102 158.24027744 120.84584713 158.23657322 C119.48552102 158.23629099 118.12519476 158.23644978 116.76486874 158.23701572 C113.07931855 158.23730231 109.393801 158.23142798 105.70825839 158.22444177 C101.85387987 158.21818515 97.99950058 158.2176026 94.14511776 158.21641636 C86.84958781 158.21330985 79.55407286 158.20510563 72.25854951 158.19506687 C63.95145947 158.18388461 55.6443687 158.17838995 47.337273 158.17337143 C30.2519876 158.16292246 13.16671681 158.14533618 -3.91855717 158.12304783 C-3.94188442 137.67006309 -3.95953549 117.21708104 -3.97036934 96.76408577 C-3.97553267 87.268094 -3.98257606 77.77211048 -3.99399662 68.276124 C-4.00394234 60.00251938 -4.01041033 51.72892072 -4.01264566 43.45531029 C-4.01395296 39.07171193 -4.01704001 34.68813067 -4.02428722 30.30453777 C-4.03104568 26.18341282 -4.03317449 22.0623121 -4.03166485 17.94118214 C-4.03194126 16.42418442 -4.03394742 14.90718593 -4.03776264 13.39019299 C-4.04269718 11.32797482 -4.04155637 9.26584957 -4.03881168 7.20362949 C-4.03973348 6.0467793 -4.04065527 4.8899291 -4.041605 3.69802284 C-3.86641973 0.03198757 -3.70788738 0.15632638 0 0 Z M31.08144283 22.12304783 C29.00747283 27.20427432 27.45244854 32.31212183 26.08144283 37.62304783 C24.70567476 42.94398535 23.07703007 48.00393275 21.08144283 53.12304783 C18.87067859 59.49668235 18.87067859 59.49668235 18.08144283 66.12304783 C21.05144283 66.12304783 24.02144283 66.12304783 27.08144283 66.12304783 C27.74144283 62.82304783 28.40144283 59.52304783 29.08144283 56.12304783 C36.01144283 56.61804783 36.01144283 56.61804783 43.08144283 57.12304783 C44.07144283 60.09304783 45.06144283 63.06304783 46.08144283 66.12304783 C48.72144283 66.12304783 51.36144283 66.12304783 54.08144283 66.12304783 C53.41485649 60.27454623 51.98646511 54.82719935 50.33144283 49.18554783 C50.06702389 48.27200535 49.80260494 47.35846287 49.5301733 46.41723728 C47.16160029 38.28315215 44.66091835 30.19246902 42.08144283 22.12304783 C38.45144283 22.12304783 34.82144283 22.12304783 31.08144283 22.12304783 Z M63.08144283 23.12304783 C62.85149278 25.01593168 62.68559251 26.91665579 62.54628658 28.81836033 C62.45911373 30.00333103 62.37194088 31.18830173 62.28212643 32.40918064 C62.19527584 33.67600681 62.10842525 34.94283298 62.01894283 36.24804783 C61.92951412 37.52003025 61.84008541 38.79201267 61.74794674 40.10254002 C61.16536152 48.7958212 60.81480762 57.41296418 61.08144283 66.12304783 C63.72144283 66.12304783 66.36144283 66.12304783 69.08144283 66.12304783 C69.08144283 54.90304783 69.08144283 43.68304783 69.08144283 32.12304783 C69.74144283 32.12304783 70.40144283 32.12304783 71.08144283 32.12304783 C71.25159908 32.94804783 71.42175533 33.77304783 71.59706783 34.62304783 C73.53368288 43.85287273 75.75004497 52.98648863 78.08144283 62.12304783 C78.41577184 63.45613185 78.74970273 64.7893172 79.08144283 66.12304783 C81.39144283 66.12304783 83.70144283 66.12304783 86.08144283 66.12304783 C89.23942817 58.98398524 91.34038972 51.7928673 93.24941158 44.24804783 C94.08144283 41.12304783 94.08144283 41.12304783 95.08144283 39.12304783 C95.12166674 36.79006123 95.1246453 34.45598117 95.08144283 32.12304783 C96.07144283 32.12304783 97.06144283 32.12304783 98.08144283 32.12304783 C98.08144283 43.34304783 98.08144283 54.56304783 98.08144283 66.12304783 C101.05144283 66.12304783 104.02144283 66.12304783 107.08144283 66.12304783 C106.6596899 51.36855288 106.02949684 36.76182257 104.08144283 22.12304783 C100.12144283 22.12304783 96.16144283 22.12304783 92.08144283 22.12304783 C90.90649632 26.01655681 89.74122317 29.91252163 88.58144283 33.81054783 C88.24757565 34.9133408 87.91370846 36.01613377 87.56972408 37.1523447 C87.25390377 38.21904392 86.93808346 39.28574314 86.61269283 40.38476658 C86.17280025 41.85369358 86.17280025 41.85369358 85.72402096 43.35229588 C85.09804717 46.05145111 84.9581598 48.36458988 85.08144283 51.12304783 C84.42144283 51.12304783 83.76144283 51.12304783 83.08144283 51.12304783 C82.91015865 50.42220066 82.73887447 49.72135349 82.56239986 48.99926853 C81.78082452 45.81043059 80.99369154 42.62298967 80.20644283 39.43554783 C79.93702877 38.33275486 79.66761471 37.22996189 79.39003658 36.09375095 C79.12577877 35.02705173 78.86152096 33.96035252 78.58925533 32.86132908 C78.227915 31.39240208 78.227915 31.39240208 77.85927486 29.89379978 C77.10504755 27.20713131 76.16774758 24.69123623 75.08144283 22.12304783 C73.26902232 22.09617504 71.4564905 22.07671067 69.64394283 22.06054783 C68.12993893 22.04314548 68.12993893 22.04314548 66.58534908 22.02539158 C64.14123216 21.83692107 64.14123216 21.83692107 63.08144283 23.12304783 Z M122.08144283 25.12304783 C122.08144283 25.78304783 122.08144283 26.44304783 122.08144283 27.12304783 C121.21519283 27.40148533 121.21519283 27.40148533 120.33144283 27.68554783 C116.6225706 30.05510509 114.75157211 33.92432302 113.48378658 38.08398533 C111.8695353 46.26494814 113.45602213 53.18491677 118.08144283 60.12304783 C118.74144283 60.12304783 119.40144283 60.12304783 120.08144283 60.12304783 C120.08144283 60.78304783 120.08144283 61.44304783 120.08144283 62.12304783 C125.5781939 65.81424358 129.33577418 66.69150411 135.89394283 66.43554783 C136.6564233 66.42587986 137.41890377 66.41621189 138.20448971 66.40625095 C142.27603437 66.38717856 142.27603437 66.38717856 146.08144283 65.12304783 C145.42144283 62.81304783 144.76144283 60.50304783 144.08144283 58.12304783 C143.20101315 58.15785252 142.32058346 58.1926572 141.41347408 58.22851658 C140.25202877 58.25558689 139.09058346 58.2826572 137.89394283 58.31054783 C136.1711108 58.36275486 136.1711108 58.36275486 134.41347408 58.41601658 C130.77735027 58.0963105 128.98536154 57.27858821 126.08144283 55.12304783 C123.31663756 51.25232045 122.83224445 46.4647215 123.32753658 41.81054783 C124.19350797 37.15116195 125.08669361 34.02831999 129.08144283 31.12304783 C132.36663758 30.02798291 134.81807698 30.02344174 138.26894283 30.06054783 C139.89896236 30.07408298 139.89896236 30.07408298 141.56191158 30.08789158 C142.3933569 30.09949314 143.22480221 30.1110947 144.08144283 30.12304783 C145.54207134 27.47565867 146.08144283 26.22856449 146.08144283 23.12304783 C138.36535671 20.55101912 129.14542164 21.08648851 122.08144283 25.12304783 Z M25.08144283 81.12304783 C24.93488169 82.84854088 24.85392533 84.57967544 24.80019283 86.31054783 C24.76337399 87.39481052 24.72655514 88.47907322 24.68862057 89.59619236 C24.65325191 90.76005466 24.61788326 91.92391697 24.58144283 93.12304783 C24.2296599 103.46901936 23.75761098 113.79350038 23.08144283 124.12304783 C26.05144283 124.12304783 29.02144283 124.12304783 32.08144283 124.12304783 C32.08144283 112.90304783 32.08144283 101.68304783 32.08144283 90.12304783 C32.74144283 90.12304783 33.40144283 90.12304783 34.08144283 90.12304783 C34.20261471 91.00347752 34.32378658 91.8839072 34.44863033 92.79101658 C34.61620846 93.95246189 34.78378658 95.1139072 34.95644283 96.31054783 C35.11886471 97.45910252 35.28128658 98.6076572 35.44863033 99.79101658 C36.0276609 102.83986272 36.89354181 105.27571255 38.08144283 108.12304783 C38.88079206 111.16457164 39.5894171 114.21991519 40.30019283 117.28320408 C40.99163556 119.79659839 41.81943103 121.8546904 43.08144283 124.12304783 C45.06144283 124.12304783 47.04144283 124.12304783 49.08144283 124.12304783 C50.53540512 119.81479071 51.97682736 115.50268403 53.40126705 111.18457127 C54.03296395 109.26998097 54.66837757 107.35661806 55.30409908 105.44336033 C55.84357174 103.76886814 55.84357174 103.76886814 56.39394283 102.06054783 C56.72007565 101.05894627 57.04620846 100.0573447 57.38222408 99.02539158 C58.12122948 95.95789992 58.20755028 93.26639263 58.08144283 90.12304783 C58.74144283 90.12304783 59.40144283 90.12304783 60.08144283 90.12304783 C60.41144283 101.34304783 60.74144283 112.56304783 61.08144283 124.12304783 C63.72144283 124.12304783 66.36144283 124.12304783 69.08144283 124.12304783 C69.3174374 109.30077393 69.04427783 94.82678497 67.08144283 80.12304783 C63.12144283 80.12304783 59.16144283 80.12304783 55.08144283 80.12304783 C54.43175533 82.35054783 54.43175533 82.35054783 53.76894283 84.62304783 C52.8188348 87.82293999 51.79390224 90.91472764 50.51894283 93.99804783 C48.49585822 99.17288531 47.85698157 104.64865677 47.08144283 110.12304783 C46.75144283 110.12304783 46.42144283 110.12304783 46.08144283 110.12304783 C45.87781124 109.23951633 45.87781124 109.23951633 45.67006588 108.33813572 C45.04081607 105.61955286 44.40491799 102.90256492 43.76894283 100.18554783 C43.55560299 99.25935642 43.34226315 98.33316502 43.12245846 97.3789072 C41.74176501 91.50580823 40.10294137 85.80801828 38.08144283 80.12304783 C36.10234886 80.0961823 34.12315312 80.07671407 32.14394283 80.06054783 C30.49072018 80.04314548 30.49072018 80.04314548 28.80409908 80.02539158 C26.16696649 79.81042212 26.16696649 79.81042212 25.08144283 81.12304783 Z M78.08144283 80.12304783 C78.08144283 94.64304783 78.08144283 109.16304783 78.08144283 124.12304783 C86.66144283 124.12304783 95.24144283 124.12304783 104.08144283 124.12304783 C104.08144283 121.81304783 104.08144283 119.50304783 104.08144283 117.12304783 C98.47144283 117.12304783 92.86144283 117.12304783 87.08144283 117.12304783 C87.08144283 113.49304783 87.08144283 109.86304783 87.08144283 106.12304783 C92.36144283 105.79304783 97.64144283 105.46304783 103.08144283 105.12304783 C103.08144283 102.81304783 103.08144283 100.50304783 103.08144283 98.12304783 C97.80144283 98.12304783 92.52144283 98.12304783 87.08144283 98.12304783 C87.08144283 94.82304783 87.08144283 91.52304783 87.08144283 88.12304783 C92.36144283 88.12304783 97.64144283 88.12304783 103.08144283 88.12304783 C103.08144283 85.48304783 103.08144283 82.84304783 103.08144283 80.12304783 C94.83144283 80.12304783 86.58144283 80.12304783 78.08144283 80.12304783 Z M112.08144283 81.12304783 C112.08144283 95.31304783 112.08144283 109.50304783 112.08144283 124.12304783 C114.72144283 124.12304783 117.36144283 124.12304783 120.08144283 124.12304783 C120.08144283 119.17304783 120.08144283 114.22304783 120.08144283 109.12304783 C121.38081783 109.20554783 122.68019283 109.28804783 124.01894283 109.37304783 C129.34236211 109.33946159 133.71483082 108.24954203 138.08144283 105.12304783 C140.7655511 101.73183578 141.85444617 98.33369668 142.64394283 94.12304783 C141.81126099 89.682078 140.18229334 86.42818967 137.08144283 83.12304783 C130.25108048 78.84874623 119.54653565 78.63468356 112.08144283 81.12304783 Z " fill="#243459" transform="translate(256.9185571670532,222.87695217132568)"/>
<path d="M0 0 C1.3066864 -0.00189835 2.6133728 -0.00379669 3.95965576 -0.00575256 C7.51697517 -0.01056613 11.07416758 -0.00299199 14.63147163 0.00720048 C18.35990362 0.01602628 22.08833216 0.01422274 25.81677246 0.01383972 C32.06732291 0.01477353 38.31782452 0.02342401 44.56835938 0.03710938 C51.80135776 0.05288693 59.03430294 0.05810544 66.2673173 0.05737382 C73.23039902 0.05676459 80.1934634 0.06185686 87.15653992 0.07016563 C90.11984899 0.07370149 93.08315193 0.07552929 96.04646301 0.07605934 C100.17162615 0.0772458 104.29672564 0.08693828 108.421875 0.09765625 C109.65713928 0.09720306 110.89240356 0.09674988 112.1651001 0.09628296 C113.8388974 0.10268044 113.8388974 0.10268044 115.54650879 0.10920715 C117.00983517 0.11172092 117.00983517 0.11172092 118.50272369 0.11428547 C120.69335938 0.24291992 120.69335938 0.24291992 121.69335938 1.24291992 C121.79237035 3.30355828 121.81968256 5.36764851 121.82034302 7.43066406 C121.82190301 8.0841813 121.823463 8.73769854 121.82507026 9.41101933 C121.82908198 11.61672739 121.82588997 13.82236751 121.82275391 16.02807617 C121.82410787 17.6029362 121.82588778 19.17779592 121.82806396 20.75265503 C121.83263887 25.04179021 121.83084851 29.33090145 121.82768488 33.62003708 C121.82516157 38.09858009 121.82749873 42.57712098 121.82907104 47.05566406 C121.83089283 54.57804738 121.82848621 62.1004209 121.82373047 69.62280273 C121.81828783 78.33252657 121.82005048 87.042227 121.82555687 95.75195026 C121.83008776 103.2160452 121.83073867 110.68013307 121.82811821 118.14422894 C121.8265553 122.60829235 121.82636204 127.07234475 121.82965469 131.53640747 C121.83253306 135.73224107 121.83055836 139.92804436 121.82476044 144.12387466 C121.82343265 145.66828486 121.82382727 147.21269758 121.8260231 148.75710678 C121.82873389 150.85649814 121.82535439 152.9557908 121.82034302 155.05517578 C121.81977748 156.82168739 121.81977748 156.82168739 121.81920052 158.62388611 C121.69335938 161.24291992 121.69335938 161.24291992 120.69335938 162.24291992 C118.38979504 162.34003935 116.0831828 162.36478563 113.77757263 162.36317444 C112.67985719 162.36445608 112.67985719 162.36445608 111.55996567 162.3657636 C109.08935058 162.36742058 106.61880227 162.36189351 104.14819336 162.35644531 C102.3845215 162.35616346 100.62084952 162.35632113 98.85717773 162.35688782 C94.05366095 162.35717587 89.25016891 162.35127785 84.4466579 162.34431386 C79.43246252 162.33808166 74.41826664 162.33747663 69.40406799 162.33628845 C59.90199177 162.33317474 50.39992699 162.32496082 40.89785582 162.31493896 C30.08304599 162.30377906 19.26823562 162.29826769 8.45342147 162.29324353 C-13.79993896 162.28277823 -36.05328907 162.26517802 -58.30664062 162.24291992 C-58.37694067 147.19530185 -58.42973113 132.14769659 -58.46207714 117.09994888 C-58.47749986 110.11190528 -58.49850062 103.12396414 -58.53295898 96.13598633 C-58.5662266 89.38622829 -58.58351809 82.63657654 -58.59127235 75.88674164 C-58.59679511 73.31767863 -58.6075795 70.74862112 -58.6238308 68.17960358 C-58.64575835 64.56809648 -58.6486011 60.95702244 -58.6472168 57.34545898 C-58.66339554 55.76911934 -58.66339554 55.76911934 -58.67990112 54.16093445 C-58.63954582 44.36612693 -56.76123644 35.15816545 -52.11914062 26.49291992 C-51.58933594 25.48745117 -51.05953125 24.48198242 -50.51367188 23.44604492 C-50.11535156 22.71901367 -49.71703125 21.99198242 -49.30664062 21.24291992 C-48.64664063 21.24291992 -47.98664063 21.24291992 -47.30664062 21.24291992 C-47.05914062 20.66026367 -46.81164062 20.07760742 -46.55664062 19.47729492 C-45.12138616 16.91177757 -43.5300105 15.40567194 -41.30664062 13.49291992 C-40.60539062 12.87932617 -39.90414062 12.26573242 -39.18164062 11.63354492 C-37.30664062 10.24291992 -37.30664062 10.24291992 -35.30664062 10.24291992 C-35.30664062 9.58291992 -35.30664062 8.92291992 -35.30664062 8.24291992 C-33.33315038 7.27295099 -31.35249066 6.31756518 -29.36914062 5.36791992 C-28.26699219 4.83424805 -27.16484375 4.30057617 -26.02929688 3.75073242 C-17.55825114 0.09774855 -9.11388783 -0.04201197 0 0 Z M56.69091797 21.53173828 C54.46616942 21.92637378 52.23840546 22.29872137 50.00976562 22.6706543 C36.74374245 24.97136925 36.74374245 24.97136925 25.69335938 32.24291992 C23.52929688 32.65698242 23.52929688 32.65698242 21.06835938 32.86791992 C20.25109375 32.94268555 19.43382812 33.01745117 18.59179688 33.09448242 C17.9653125 33.1434668 17.33882812 33.19245117 16.69335938 33.24291992 C16.69335938 34.56291992 16.69335938 35.88291992 16.69335938 37.24291992 C15.72398437 37.16041992 14.75460938 37.07791992 13.75585938 36.99291992 C7.33808933 36.97990213 0.82711181 40.59961174 -4.30664062 44.24291992 C-4.30664062 44.90291992 -4.30664062 45.56291992 -4.30664062 46.24291992 C-4.96664062 46.24291992 -5.62664062 46.24291992 -6.30664062 46.24291992 C-7.57671294 47.71766808 -7.57671294 47.71766808 -8.74414062 49.68041992 C-9.15535156 50.31850586 -9.5665625 50.9565918 -9.99023438 51.61401367 C-13.6185794 58.85993712 -14.86086432 65.54726516 -14.80664062 73.61791992 C-14.8038208 74.56820068 -14.80100098 75.51848145 -14.7980957 76.49755859 C-14.56803558 86.78526574 -12.26673103 96.6960064 -8.51098633 106.27148438 C-5.84411879 113.3029103 -5.53500418 120.3465828 -5.11914062 127.80541992 C-4.99635742 129.74771484 -4.99635742 129.74771484 -4.87109375 131.72924805 C-4.67219206 134.89997505 -4.48433244 138.07094558 -4.30664062 141.24291992 C-2.49370974 141.10254471 -0.68129632 140.95547103 1.13085938 140.80541992 C2.14019531 140.72420898 3.14953125 140.64299805 4.18945312 140.55932617 C6.62976716 140.51080524 6.62976716 140.51080524 7.69335938 139.24291992 C7.60317942 137.05241971 7.4466973 134.86445392 7.25585938 132.68041992 C7.15402344 131.48288086 7.0521875 130.2853418 6.94726562 129.05151367 C6.82158203 127.66125977 6.82158203 127.66125977 6.69335938 126.24291992 C8.17835938 125.74791992 8.17835938 125.74791992 9.69335938 125.24291992 C9.64695312 126.18393555 9.60054687 127.12495117 9.55273438 128.09448242 C9.06863575 137.53219882 9.06863575 137.53219882 13.69335938 145.24291992 C16.62340509 148.17296563 27.42387579 146.5664423 31.58398438 146.59301758 C33.48319774 146.60955786 35.38234934 146.63682251 37.28125 146.67504883 C40.01790703 146.72987732 42.75310169 146.75170239 45.49023438 146.76635742 C46.75924591 146.80036148 46.75924591 146.80036148 48.05389404 146.83505249 C52.45937542 146.81930313 54.14672803 146.67978202 57.70605469 143.83520508 C60.82945948 139.76096526 60.83057012 137.56810178 60.87036133 132.44165039 C60.87693253 131.74219803 60.88350372 131.04274567 60.89027405 130.32209778 C60.91002263 128.00143324 60.92167614 125.68083363 60.93164062 123.36010742 C60.93571615 122.56654972 60.93979168 121.77299202 60.94399071 120.95538712 C60.9648631 116.75110382 60.97915689 112.54685322 60.98852539 108.3425293 C60.99956209 104.01158646 61.03392639 99.68116136 61.07369709 95.35040092 C61.09992609 92.01137376 61.10822301 88.67246843 61.11180687 85.33334732 C61.11666059 83.73784026 61.12823983 82.14233819 61.14684486 80.54693222 C61.35186844 67.15814126 61.35186844 67.15814126 54.50585938 55.93041992 C50.42528844 53.48207736 45.53431727 51.24291992 40.69335938 51.24291992 C41.44335938 44.49291992 41.44335938 44.49291992 43.69335938 42.24291992 C49.97460554 41.58741339 55.40998564 43.36211203 61.38085938 45.18041992 C63.2388302 45.73154547 65.09689938 46.28233956 66.95507812 46.83276367 C67.76936279 47.07889404 68.58364746 47.32502441 69.42260742 47.57861328 C71.50282743 48.18717995 73.58688917 48.73373304 75.69335938 49.24291992 C76.02335937 47.59291992 76.35335937 45.94291992 76.69335938 44.24291992 C75.90832031 43.98897461 75.12328125 43.7350293 74.31445312 43.47338867 C68.64543082 41.61617523 63.17731123 39.593185 57.69335938 37.24291992 C50.85013587 34.45764797 50.85013587 34.45764797 43.69335938 33.24291992 C43.69335938 32.25291992 43.69335938 31.26291992 43.69335938 30.24291992 C44.43908203 30.10716553 45.18480469 29.97141113 45.953125 29.83154297 C49.36797956 29.20543331 52.78063283 28.56802247 56.19335938 27.93041992 C57.95292969 27.61041016 57.95292969 27.61041016 59.74804688 27.28393555 C66.02453504 26.10268637 71.80466281 24.72812479 77.69335938 22.24291992 C77.19835937 20.75791992 77.19835937 20.75791992 76.69335938 19.24291992 C69.88226855 19.05197316 63.36409489 20.33587813 56.69091797 21.53173828 Z " fill="#CF252E" transform="translate(125.306640625,54.757080078125)"/>
<path d="M0 0 C0.99 0.66 1.98 1.32 3 2 C3.1875 4.625 3.1875 4.625 3 7 C6 8.33333333 6 8.33333333 9 7 C11 10 11 10 12 12 C11.690625 12.845625 11.38125 13.69125 11.0625 14.5625 C8.73764255 22.08409763 9.94323959 27.90831586 13 35 C13.33 35.99 13.66 36.98 14 38 C14.66 38 15.32 38 16 38 C16 38.66 16 39.32 16 40 C16.969375 40.309375 17.93875 40.61875 18.9375 40.9375 C22 42 22 42 23 43 C25.34987262 43.23527773 27.70556039 43.41386417 30.0625 43.5625 C31.35285156 43.64628906 32.64320313 43.73007812 33.97265625 43.81640625 C35.47119141 43.90728516 35.47119141 43.90728516 37 44 C37 44.33 37 44.66 37 45 C33.535 45.495 33.535 45.495 30 46 C30 46.66 30 47.32 30 48 C29.05125 48.061875 28.1025 48.12375 27.125 48.1875 C26.09375 48.455625 25.0625 48.72375 24 49 C22.54708727 51.46255685 22.54708727 51.46255685 22 54 C22.66 54.33 23.32 54.66 24 55 C21.03469732 55.98843423 19.43314748 56.02062607 16.375 55.875 C11.01388156 55.79616002 6.97861389 57.07279462 2 59 C2.33 56.03 2.66 53.06 3 50 C2.67 51.65 2.34 53.3 2 55 C-1.47325181 56.1577506 -4.36067448 56.06866652 -8 56 C-5.03 56.33 -2.06 56.66 1 57 C1.495 61.455 1.495 61.455 2 66 C2.66 66 3.32 66 4 66 C4.33 65.34 4.66 64.68 5 64 C6 65 6 65 6.11352539 67.77563477 C6.10828857 68.98533936 6.10305176 70.19504395 6.09765625 71.44140625 C6.09443359 72.74658203 6.09121094 74.05175781 6.08789062 75.39648438 C6.07953401 76.7851569 6.07106905 78.17382877 6.0625 79.5625 C6.05748666 80.95507656 6.05292347 82.34765481 6.04882812 83.74023438 C6.03699434 87.1601987 6.0205088 90.58007844 6 94 C5.01 94 4.02 94 3 94 C2.34 96.64 1.68 99.28 1 102 C0.67 102 0.34 102 0 102 C0 99.69 0 97.38 0 95 C-5.61 95 -11.22 95 -17 95 C-18.21276596 87.72340426 -18.21276596 87.72340426 -18 84 C-16.00383446 82.00383446 -12.18298037 82.59016573 -9.4375 82.4375 C-8.72658203 82.39431641 -8.01566406 82.35113281 -7.28320312 82.30664062 C-5.52238088 82.20028223 -3.7612168 82.09961154 -2 82 C-1.67 80.02 -1.34 78.04 -1 76 C-6.28 76 -11.56 76 -17 76 C-17 72.7 -17 69.4 -17 66 C-11.72 66 -6.44 66 -1 66 C-1 63.36 -1 60.72 -1 58 C-1.61520508 58.03552979 -2.23041016 58.07105957 -2.86425781 58.10766602 C-5.65919192 58.26554658 -8.45454623 58.41411746 -11.25 58.5625 C-12.70212891 58.64661133 -12.70212891 58.64661133 -14.18359375 58.73242188 C-15.58544922 58.80493164 -15.58544922 58.80493164 -17.015625 58.87890625 C-17.87446289 58.9260376 -18.73330078 58.97316895 -19.61816406 59.02172852 C-22 59 -22 59 -26 58 C-26 72.52 -26 87.04 -26 102 C-26.66 101.34 -27.32 100.68 -28 100 C-30.05270463 101.84188612 -30.05270463 101.84188612 -31 104 C-31.66 104 -32.32 104 -33 104 C-35.58990972 101.41009028 -35.28666214 100.25876227 -35.37890625 96.65234375 C-35.41306641 95.57146484 -35.44722656 94.49058594 -35.48242188 93.37695312 C-35.50884766 92.24193359 -35.53527344 91.10691406 -35.5625 89.9375 C-35.74626748 83.21630203 -35.96121215 76.57676516 -36.78833008 69.90112305 C-37.22955444 65.93824634 -37.05606539 61.98064292 -37 58 C-40.63 58 -44.26 58 -48 58 C-48 57.67 -48 57.34 -48 57 C-43.71 57 -39.42 57 -35 57 C-34.67 56.34 -34.34 55.68 -34 55 C-33.67 55.33 -33.34 55.66 -33 56 C-32.67 55.01 -32.34 54.02 -32 53 C-32.66 52.67 -33.32 52.34 -34 52 C-31.525 51.505 -31.525 51.505 -29 51 C-29 49.68 -29 48.36 -29 47 C-27.68 46.34 -26.36 45.68 -25 45 C-25 44.67 -25 44.34 -25 44 C-21.535 43.505 -21.535 43.505 -18 43 C-17.75765625 42.21238281 -17.5153125 41.42476563 -17.265625 40.61328125 C-16.93046875 39.52402344 -16.5953125 38.43476563 -16.25 37.3125 C-15.88777344 36.13042969 -15.52554688 34.94835937 -15.15234375 33.73046875 C-14.40557613 31.3129668 -13.64839972 28.89864582 -12.87890625 26.48828125 C-11.13513426 20.98869268 -9.53533271 15.75482664 -9 10 C-8.01 10 -7.02 10 -6 10 C-5.831965 14.19896986 -5.67145134 18.39814039 -5.51782227 22.59765625 C-5.46453843 24.02546878 -5.40922025 25.45320694 -5.35180664 26.88085938 C-5.26951375 28.93603482 -5.19460322 30.99136893 -5.12109375 33.046875 C-5.0739624 34.28276367 -5.02683105 35.51865234 -4.97827148 36.79199219 C-4.99633532 39.45894519 -5.1849471 41.48623414 -6 44 C-3.36 43.67 -0.72 43.34 2 43 C1.45805598 28.6585232 0.85993842 14.32620817 0 0 Z " fill="#2B3A5C" transform="translate(361,245)"/>
<path d="M0 0 C1.25425781 0.00902344 2.50851563 0.01804687 3.80078125 0.02734375 C4.75339844 0.03894531 5.70601562 0.05054687 6.6875 0.0625 C7.46982752 2.76561674 7.66418797 4.25288154 7.3125 7.125 C5.43794612 10.51361662 4.7803185 10.70396752 1.25 11.875 C-0.26647352 12.28722097 -1.78712291 12.68455452 -3.3125 13.0625 C-6.37815448 13.71854893 -6.37815448 13.71854893 -7.375 15.875 C-7.684375 16.596875 -7.99375 17.31875 -8.3125 18.0625 C-8.6552597 18.64843933 -8.99801941 19.23437866 -9.35116577 19.83807373 C-10.55464222 22.62279162 -10.59180171 24.80896414 -10.63134766 27.84082031 C-10.65121735 29.0017218 -10.67108704 30.16262329 -10.69155884 31.35870361 C-10.70888565 33.2307547 -10.70888565 33.2307547 -10.7265625 35.140625 C-10.74592865 36.42233582 -10.7652948 37.70404663 -10.7852478 39.02459717 C-10.83650627 42.42424365 -10.87616529 45.82392965 -10.91339111 49.22375488 C-10.95347041 52.69614387 -11.00454478 56.16836933 -11.0546875 59.640625 C-11.15137213 66.44779709 -11.23580065 73.2550742 -11.3125 80.0625 C-12.9625 80.0625 -14.6125 80.0625 -16.3125 80.0625 C-16.3125 79.0725 -16.3125 78.0825 -16.3125 77.0625 C-17.3025 77.0625 -18.2925 77.0625 -19.3125 77.0625 C-19.49425781 76.20527344 -19.67601563 75.34804687 -19.86328125 74.46484375 C-21.21423997 68.31971357 -22.68824014 62.76741274 -25.3125 57.0625 C-28.08346609 48.74960172 -28.41402272 40.60278137 -28.5 31.9375 C-28.51305176 31.17332764 -28.52610352 30.40915527 -28.53955078 29.62182617 C-28.55096689 22.09127251 -26.36505214 15.86136614 -23.3125 9.0625 C-22.6525 9.0625 -21.9925 9.0625 -21.3125 9.0625 C-21.126875 8.485 -20.94125 7.9075 -20.75 7.3125 C-18.297873 3.47438817 -14.33493667 1.60459643 -10.0390625 0.453125 C-6.6651499 -0.03024357 -3.40726317 -0.03184358 0 0 Z " fill="#CE2A31" transform="translate(146.3125,96.9375)"/>
<path d="M0 0 C44.88 0 89.76 0 136 0 C136 0.99 136 1.98 136 3 C91.78 2.67 47.56 2.34 2 2 C1.67 54.14 1.34 106.28 1 160 C59.41 160 117.82 160 178 160 C178 124.36 178 88.72 178 52 C180 54 180 54 180.24609566 55.93277168 C180.24425207 56.72735723 180.24240849 57.52194279 180.24050903 58.34060669 C180.24463303 59.70782364 180.24463303 59.70782364 180.24884033 61.10266113 C180.2380545 62.60669495 180.2380545 62.60669495 180.22705078 64.14111328 C180.22734283 65.19479095 180.22763489 66.24846863 180.22793579 67.33407593 C180.22653838 70.82957084 180.21095776 74.32485466 180.1953125 77.8203125 C180.19158383 80.23883955 180.18873617 82.65736811 180.18673706 85.07589722 C180.17908908 91.45131579 180.15943059 97.8266437 180.1373291 104.20202637 C180.11689573 110.70368218 180.10774072 117.2053526 180.09765625 123.70703125 C180.07618581 136.47139292 180.04241856 149.23569165 180 162 C156.6785713 162.02332641 133.35714451 162.0409779 110.03570652 162.05181217 C99.2079638 162.05697568 88.38022831 162.06401942 77.55249023 162.07543945 C68.11865593 162.08538462 58.68482687 162.09185303 49.25098747 162.09408849 C44.25258514 162.09539589 39.25419779 162.09848353 34.25580025 162.10573006 C29.5568499 162.11248764 24.85792081 162.1146175 20.15896606 162.11310768 C18.42911094 162.11338413 16.69925516 162.1153908 14.96940422 162.11920547 C12.61817177 162.12413864 10.26702085 162.1229997 7.91578674 162.12025452 C6.59670098 162.12117631 5.27761522 162.1220981 3.91855717 162.12304783 C1 162 1 162 0 161 C-0.12951425 159.08922752 -0.18863071 157.17366901 -0.22119141 155.25878906 C-0.244319 154.00859985 -0.26744659 152.75841064 -0.29127502 151.47033691 C-0.31169568 150.06877097 -0.33177965 148.66720009 -0.3515625 147.265625 C-0.37520022 145.79439031 -0.39900292 144.32315826 -0.42295837 142.85192871 C-0.48612911 138.82712058 -0.54066093 134.80223821 -0.59233475 130.77726746 C-0.6248952 128.25810788 -0.65937912 125.7389798 -0.69406128 123.21984863 C-1.24613845 82.13231041 -0.61225115 41.08885481 0 0 Z " fill="#627FA1" transform="translate(253,55)"/>
<path d="M0 0 C1.88951649 0.55302922 3.77621951 1.1157516 5.66015625 1.6875 C6.63017578 1.97367187 7.60019531 2.25984375 8.59960938 2.5546875 C10.97659277 3.25724417 13.35065283 3.96834401 15.72265625 4.6875 C15.06265625 6.3375 14.40265625 7.9875 13.72265625 9.6875 C12.73265625 9.6875 11.74265625 9.6875 10.72265625 9.6875 C10.72265625 10.6775 10.72265625 11.6675 10.72265625 12.6875 C9.40265625 12.6875 8.08265625 12.6875 6.72265625 12.6875 C6.39265625 14.0075 6.06265625 15.3275 5.72265625 16.6875 C5.06265625 16.6875 4.40265625 16.6875 3.72265625 16.6875 C4.21063187 17.68876167 4.21063187 17.68876167 4.70846558 18.71025085 C5.93290686 22.30470983 5.98809312 25.57576259 5.94970703 29.32348633 C5.94999908 30.07524139 5.95029114 30.82699646 5.95059204 31.60153198 C5.9492041 34.0743178 5.93366836 36.54679838 5.91796875 39.01953125 C5.91423671 40.73874243 5.91139064 42.45795573 5.90939331 44.1771698 C5.90177189 48.69320591 5.88213623 53.20911255 5.85998535 57.72509766 C5.83949478 62.33689625 5.83038473 66.94871584 5.8203125 71.56054688 C5.79888891 80.60292134 5.76477098 89.64519989 5.72265625 98.6875 C5.06265625 98.6875 4.40265625 98.6875 3.72265625 98.6875 C3.7315387 97.76565918 3.74042114 96.84381836 3.74957275 95.89404297 C3.82989267 87.18462895 3.89070896 78.47534025 3.92990494 69.76564026 C3.95073385 65.28842298 3.97896499 60.81151307 4.02441406 56.33447266 C4.0680403 52.00967408 4.09182864 47.68517019 4.10216522 43.36016846 C4.10952661 41.71441004 4.12390159 40.06866681 4.14557648 38.42303467 C4.44590076 26.45561663 4.44590076 26.45561663 -0.27734375 15.6875 C-4.44029674 11.7219654 -9.76569209 9.95058684 -15.27734375 8.6875 C-15.63649868 2.34242958 -15.63649868 2.34242958 -14.21484375 -0.25 C-9.73199397 -2.70833698 -4.67247218 -1.27256865 0 0 Z " fill="#CC252C" transform="translate(181.27734375,97.3125)"/>
<path d="M0 0 C0.66 0 1.32 0 2 0 C2.17052654 9.7910656 1.6326223 19.48681228 1 29.25 C0.90330371 30.78513474 0.80694734 32.32029093 0.7109375 33.85546875 C0.477867 37.5705674 0.24023149 41.2853567 0 45 C2.64 45 5.28 45 8 45 C8 33.78 8 22.56 8 11 C8.66 11 9.32 11 10 11 C18 37.40316206 18 37.40316206 18 45 C17.236875 44.979375 16.47375 44.95875 15.6875 44.9375 C12.89814214 44.87057159 12.89814214 44.87057159 10 46 C9.67 46.66 9.34 47.32 9 48 C8.34 48 7.68 48 7 48 C7 47.34 7 46.68 7 46 C4.36 46 1.72 46 -1 46 C-1.17002487 41.56262213 -1.33539796 37.12508207 -1.5 32.6875 C-1.54769531 31.44419922 -1.59539062 30.20089844 -1.64453125 28.91992188 C-1.91317569 21.60895533 -2.06804577 14.31586506 -2 7 C-1.34 7 -0.68 7 0 7 C0 4.69 0 2.38 0 0 Z " fill="#374462" transform="translate(318,244)"/>
<path d="M0 0 C24.09 0 48.18 0 73 0 C71 2 71 2 68.13998413 2.24050903 C66.91864777 2.23606781 65.6973114 2.23162659 64.43896484 2.22705078 C63.76567642 2.22734283 63.092388 2.22763489 62.3986969 2.22793579 C60.16931346 2.22654047 57.94026268 2.21097016 55.7109375 2.1953125 C54.16680077 2.19158308 52.62266167 2.18873577 51.07852173 2.18673706 C47.01124557 2.17909499 42.94411189 2.15944168 38.87689209 2.1373291 C34.7278435 2.11688296 30.57877193 2.10773799 26.4296875 2.09765625 C18.28639289 2.07619625 10.14321416 2.04205349 2 2 C2.16233124 2.9370578 2.32466248 3.8741156 2.49191284 4.83956909 C3.25811151 9.60551903 3.14355266 14.30749249 3.125 19.125 C3.12886719 20.07503906 3.13273437 21.02507812 3.13671875 22.00390625 C3.12828657 28.48824943 2.87386427 34.94103551 2.52734375 41.4140625 C1.94184716 52.35553412 1.67175987 63.2961996 1.4375 74.25 C1.39413052 76.1822973 1.35051174 78.11458902 1.30664062 80.046875 C1.20157064 84.69785777 1.09981311 89.34890156 1 94 C0.67 94 0.34 94 0 94 C0 62.98 0 31.96 0 0 Z " fill="#225F41" transform="translate(67,223)"/>
<path d="M0 0 C1.485 0.99 1.485 0.99 3 2 C3.1875 4.625 3.1875 4.625 3 7 C6 8.33333333 6 8.33333333 9 7 C11 10 11 10 12 12 C11.690625 12.845625 11.38125 13.69125 11.0625 14.5625 C8.87287328 21.64658644 9.96479318 28.00397656 12 35 C11.01 34.67 10.02 34.34 9 34 C8.67 34.99 8.34 35.98 8 37 C7.34 37 6.68 37 6 37 C6 37.66 6 38.32 6 39 C5.01 39.495 5.01 39.495 4 40 C3.34 40.99 2.68 41.98 2 43 C1.97494385 42.33693848 1.9498877 41.67387695 1.92407227 40.99072266 C1.40332647 27.31907909 0.81977902 13.6571696 0 0 Z " fill="#303E60" transform="translate(361,245)"/>
<path d="M0 0 C0.33 0 0.66 0 1 0 C1 3.63 1 7.26 1 11 C3.64 11 6.28 11 9 11 C9 11.66 9 12.32 9 13 C9.66 13 10.32 13 11 13 C11.33 12.01 11.66 11.02 12 10 C15.0625 8.8125 15.0625 8.8125 18 8 C18 8.66 18 9.32 18 10 C23.445 10.495 23.445 10.495 29 11 C29 11.33 29 11.66 29 12 C23.06 12.495 23.06 12.495 17 13 C17.33 13.66 17.66 14.32 18 15 C17.34 15 16.68 15 16 15 C16 15.66 16 16.32 16 17 C14.68 17.33 13.36 17.66 12 18 C12.33 19.32 12.66 20.64 13 22 C9.28720531 23.23759823 5.68693654 23.35608897 1.8125 23.5625 C1.06291016 23.60568359 0.31332031 23.64886719 -0.45898438 23.69335938 C-2.30578375 23.79922685 -4.15286834 23.9000976 -6 24 C-5.67 23.34 -5.34 22.68 -5 22 C-1.9375 21.375 -1.9375 21.375 1 21 C1 20.34 1 19.68 1 19 C1.66 18.34 2.32 17.68 3 17 C1.68 16.67 0.36 16.34 -1 16 C-1 15.34 -1 14.68 -1 14 C-1.66 14 -2.32 14 -3 14 C-3 13.34 -3 12.68 -3 12 C-6.63 12 -10.26 12 -14 12 C-11.41073669 9.41073669 -9.97294721 9.62601957 -6.375 9.375 C-5.37210937 9.30023438 -4.36921875 9.22546875 -3.3359375 9.1484375 C-2.17964844 9.07496094 -2.17964844 9.07496094 -1 9 C-0.67 6.03 -0.34 3.06 0 0 Z " fill="#1F2E53" transform="translate(316,279)"/>
<path d="M0 0 C0.66 0 1.32 0 2 0 C9.23602301 26.55657177 9.23602301 26.55657177 9 33 C7.68 32.67 6.36 32.34 5 32 C4.01 33.98 3.02 35.96 2 38 C0 36 0 36 -0.22705078 32.46826172 C-0.22673363 30.95536669 -0.21540633 29.44244912 -0.1953125 27.9296875 C-0.1924826 27.13345978 -0.18965271 26.33723206 -0.18673706 25.51687622 C-0.1755264 22.96943237 -0.15042062 20.42233789 -0.125 17.875 C-0.11497133 16.14974465 -0.10584528 14.42448381 -0.09765625 12.69921875 C-0.07558422 8.46601086 -0.04104867 4.2330647 0 0 Z " fill="#213051" transform="translate(289,313)"/>
<path d="M0 0 C0.66 0 1.32 0 2 0 C3.5121384 8.12774391 4.58945987 17.36707743 1 25 C0.34 25 -0.32 25 -1 25 C-1.268125 26.134375 -1.53625 27.26875 -1.8125 28.4375 C-2.204375 29.613125 -2.59625 30.78875 -3 32 C-4.485 32.495 -4.485 32.495 -6 33 C-6.33 33.66 -6.66 34.32 -7 35 C-7.66 34.67 -8.32 34.34 -9 34 C-7.2495523 25.56084973 -4.94923394 17.52282951 -2.0859375 9.41015625 C-1.08302397 6.26071916 -0.44917717 3.2690116 0 0 Z " fill="#354160" transform="translate(315,313)"/>
<path d="M0 0 C3.9336482 0.26224321 5.6958038 0.8246089 8.75 3.25 C10.01724763 7.05174289 9.2250819 8.6011132 7.75 12.25 C5.49099507 14.50900493 4.80816925 14.59458029 1.75 14.9375 C1.04875 15.02386719 0.3475 15.11023438 -0.375 15.19921875 C-2.25 15.25 -2.25 15.25 -4.25 14.25 C-4.27685938 12.10423363 -4.29633088 9.95837355 -4.3125 7.8125 C-4.32410156 6.61753906 -4.33570313 5.42257812 -4.34765625 4.19140625 C-4.21075849 0.06804568 -4.16218276 0.3201679 0 0 Z " fill="#404C6A" transform="translate(381.25,309.75)"/>
<path d="M0 0 C27.06 0 54.12 0 82 0 C82 0.33 82 0.66 82 1 C73.42 1.33 64.84 1.66 56 2 C57.32 2.66 58.64 3.32 60 4 C47.79 4 35.58 4 23 4 C23 3.67 23 3.34 23 3 C24.98 2.67 26.96 2.34 29 2 C19.43 1.67 9.86 1.34 0 1 C0 0.67 0 0.34 0 0 Z " fill="#3A455B" transform="translate(323,223)"/>
<path d="M0 0 C-0.33 0.99 -0.66 1.98 -1 3 C-1.58007812 3.04898438 -2.16015625 3.09796875 -2.7578125 3.1484375 C-11.14090445 3.70368299 -11.14090445 3.70368299 -17.875 8.125 C-18.24625 8.74375 -18.6175 9.3625 -19 10 C-18.34 10.66 -17.68 11.32 -17 12 C-17 12.99 -17 13.98 -17 15 C-18.91808109 14.54762239 -20.83442033 14.08785537 -22.75 13.625 C-23.81734375 13.36976562 -24.8846875 13.11453125 -25.984375 12.8515625 C-28.59225605 12.11514013 -30.73322574 11.47234403 -33 10 C-33.33 9.01 -33.66 8.02 -34 7 C-28.5294759 4.95314283 -22.97598963 3.96755149 -17.25 2.9375 C-15.35888127 2.59516424 -13.46822869 2.25024013 -11.578125 1.90234375 C-10.74700195 1.75273193 -9.91587891 1.60312012 -9.05957031 1.44897461 C-2.15283843 -0.05665364 -2.15283843 -0.05665364 0 0 Z " fill="#C4353B" transform="translate(202,78)"/>
<path d="M0 0 C1.98 0 3.96 0 6 0 C5.95875 0.886875 5.9175 1.77375 5.875 2.6875 C5.99897246 5.97277013 6.61387904 8.05449295 8 11 C8.99 11 9.98 11 11 11 C12.32286246 15.96073422 12.08893197 20.91111512 12 26 C10.35 26.33 8.7 26.66 7 27 C5.82913737 22.87617911 4.66402073 18.75075687 3.5 14.625 C3.16613281 13.449375 2.83226562 12.27375 2.48828125 11.0625 C2.17246094 9.94101562 1.85664063 8.81953125 1.53125 7.6640625 C1.23798828 6.62717285 0.94472656 5.5902832 0.64257812 4.52197266 C0 2 0 2 0 0 Z " fill="#2D3C5F" transform="translate(304,262)"/>
<path d="M0 0 C0.99 0 1.98 0 3 0 C3.02578125 0.94101563 3.0515625 1.88203125 3.078125 2.8515625 C3.13484375 4.09679687 3.1915625 5.34203125 3.25 6.625 C3.29640625 7.85476562 3.3428125 9.08453125 3.390625 10.3515625 C4.12206162 14.73080481 5.00128795 16.71079487 8 20 C11.19584063 20.84029458 14.2930401 20.69921756 17.578125 20.5859375 C18.96798615 20.57320297 18.96798615 20.57320297 20.38592529 20.56021118 C23.34180595 20.52665632 26.29494585 20.45137412 29.25 20.375 C31.2551689 20.34490305 33.26038061 20.31752677 35.265625 20.29296875 C40.17813737 20.22685812 45.08860425 20.12332245 50 20 C49.505 21.485 49.505 21.485 49 23 C47.76846191 22.99476318 46.53692383 22.98952637 45.26806641 22.98413086 C40.70964278 22.96606447 36.15122233 22.95456196 31.59277344 22.94506836 C29.61783313 22.9400319 27.64289657 22.93320249 25.66796875 22.92456055 C22.83332395 22.91246492 19.99872834 22.9067649 17.1640625 22.90234375 C15.83430893 22.89460182 15.83430893 22.89460182 14.47769165 22.88670349 C10.10228761 22.74597908 10.10228761 22.74597908 6 24 C4.10786631 21.61426621 2.97608217 19.92824652 2 17 C2.33 16.34 2.66 15.68 3 15 C2.01 14.67 1.02 14.34 0 14 C-0.19393875 11.85473901 -0.37998676 9.70876323 -0.5625 7.5625 C-0.71912109 5.77005859 -0.71912109 5.77005859 -0.87890625 3.94140625 C-0.91886719 2.97074219 -0.95882812 2.00007812 -1 1 C-0.67 0.67 -0.34 0.34 0 0 Z " fill="#DD8688" transform="translate(132,180)"/>
<path d="M0 0 C0.99 0.33 1.98 0.66 3 1 C3 1.66 3 2.32 3 3 C3.66 3 4.32 3 5 3 C5.99 4.485 5.99 4.485 7 6 C7.4125 5.505 7.825 5.01 8.25 4.5 C10 3 10 3 14 3 C13.37650642 5.52121432 12.75124639 8.04196931 12.125 10.5625 C11.95097656 11.26697266 11.77695312 11.97144531 11.59765625 12.69726562 C10.48705185 17.16024998 9.28798784 21.58487052 8 26 C6 25 6 25 5.32983398 23.0222168 C5.13719971 22.17312744 4.94456543 21.32403809 4.74609375 20.44921875 C4.53146484 19.52302734 4.31683594 18.59683594 4.09570312 17.64257812 C3.87849609 16.66740234 3.66128906 15.69222656 3.4375 14.6875 C3.10588867 13.24213867 3.10588867 13.24213867 2.76757812 11.76757812 C2.35476797 9.9679254 1.9454733 8.16746023 1.54077148 6.3659668 C1.05401342 4.23631788 0.53837223 2.11710829 0 0 Z " fill="#47526E" transform="translate(296,308)"/>
<path d="M0 0 C0.226875 0.61875 0.45375 1.2375 0.6875 1.875 C2.40053356 4.64848291 3.99919547 4.85683637 7 6 C8.37195574 7.29355827 9.71182656 8.62298702 11 10 C11.66 10.33 12.32 10.66 13 11 C13.39171753 12.65391846 13.72057545 14.32345271 14 16 C14.33 16.99 14.66 17.98 15 19 C15.09072258 21.44886489 15.1261038 23.8685777 15.11352539 26.31713867 C15.11367142 27.05884811 15.11381744 27.80055756 15.1139679 28.56474304 C15.11327134 31.01584805 15.10549097 33.46687702 15.09765625 35.91796875 C15.09579116 37.61761941 15.09436768 39.31727061 15.09336853 41.016922 C15.08955055 45.49019861 15.07972638 49.96344276 15.06866455 54.43670654 C15.05843499 59.00141969 15.0538676 63.56613807 15.04882812 68.13085938 C15.03810349 77.08725385 15.02103567 86.04362422 15 95 C14.34 95 13.68 95 13 95 C13.00888245 94.07815918 13.01776489 93.15631836 13.0269165 92.20654297 C13.10723642 83.49712895 13.16805271 74.78784025 13.20724869 66.07814026 C13.2280776 61.60092298 13.25630874 57.12401307 13.30175781 52.64697266 C13.34538405 48.32217408 13.36917239 43.99767019 13.37950897 39.67266846 C13.38687036 38.02691004 13.40124534 36.38116681 13.42292023 34.73553467 C13.72513473 22.76697897 13.72513473 22.76697897 9 12 C7.15254239 10.12112596 7.15254239 10.12112596 5.0625 9.0625 C4.37285156 8.67835937 3.68320313 8.29421875 2.97265625 7.8984375 C0.67083369 6.85008267 -1.47897918 6.2363457 -4 6 C-3.0022242 3.00667261 -2.2477975 2.05233685 0 0 Z " fill="#C3474A" transform="translate(172,101)"/>
<path d="M0 0 C0.33 0 0.66 0 1 0 C1 19.14 1 38.28 1 58 C-0.65 58 -2.3 58 -4 58 C-4 57.01 -4 56.02 -4 55 C-4.99 55 -5.98 55 -7 55 C-6.67 53.68 -6.34 52.36 -6 51 C-6 51.66 -6 52.32 -6 53 C-4.68 52.34 -3.36 51.68 -2 51 C-1.9845388 50.15221733 -1.9845388 50.15221733 -1.96876526 49.28730774 C-1.86048552 43.39853855 -1.74590537 37.50991574 -1.62768555 31.62133789 C-1.58440548 29.42442898 -1.54272555 27.22748793 -1.50268555 25.03051758 C-1.44481513 21.87050701 -1.38116893 18.71065716 -1.31640625 15.55078125 C-1.29969376 14.57039383 -1.28298126 13.59000641 -1.26576233 12.57991028 C-1.24581711 11.65933334 -1.22587189 10.73875641 -1.20532227 9.7902832 C-1.18977798 8.9842012 -1.1742337 8.1781192 -1.15821838 7.34761047 C-0.98857745 4.83051467 -0.54479549 2.46092213 0 0 Z " fill="#C05158" transform="translate(134,119)"/>
<path d="M0 0 C3.63 0 7.26 0 11 0 C12 2 12 2 11.4375 5 C10 8 10 8 7.125 9.375 C4 10 4 10 0 10 C0 9.34 0 8.68 0 8 C-1.32 8.33 -2.64 8.66 -4 9 C-4 8.01 -4 7.02 -4 6 C-3.34 6 -2.68 6 -2 6 C-1.7834375 5.071875 -1.7834375 5.071875 -1.5625 4.125 C-1 2 -1 2 0 0 Z " fill="#C71D25" transform="translate(142,99)"/>
<path d="M0 0 C2.62587906 2.62587906 2.85778351 4.77281623 3.6875 8.375 C3.95949219 9.51710938 4.23148437 10.65921875 4.51171875 11.8359375 C5 15 5 15 4 19 C1.03 19 -1.94 19 -5 19 C-1.65989848 1.65989848 -1.65989848 1.65989848 0 0 Z " fill="#494E61" transform="translate(293,254)"/>
<path d="M0 0 C7.59 0 15.18 0 23 0 C23 7.26 23 14.52 23 22 C22.67 22 22.34 22 22 22 C21.34 16.06 20.68 10.12 20 4 C13.4 3.67 6.8 3.34 0 3 C0 2.01 0 1.02 0 0 Z " fill="#2E3852" transform="translate(410,223)"/>
<path d="M0 0 C0.33 0 0.66 0 1 0 C1.13277344 0.81984375 1.26554687 1.6396875 1.40234375 2.484375 C1.57894531 3.56203125 1.75554687 4.6396875 1.9375 5.75 C2.11152344 6.81734375 2.28554688 7.8846875 2.46484375 8.984375 C2.88704171 11.36347593 3.37202884 13.66915211 4 16 C3.01 15.67 2.02 15.34 1 15 C0.67 15.99 0.34 16.98 0 18 C-0.66 18 -1.32 18 -2 18 C-2 18.66 -2 19.32 -2 20 C-2.66 20.33 -3.32 20.66 -4 21 C-4.66 21.99 -5.32 22.98 -6 24 C-6 18.72 -6 13.44 -6 8 C-5.67 8.66 -5.34 9.32 -5 10 C-4.34 10 -3.68 10 -3 10 C-2.67 9.34 -2.34 8.68 -2 8 C-1.67 8.33 -1.34 8.66 -1 9 C-0.67 6.03 -0.34 3.06 0 0 Z " fill="#4F5A75" transform="translate(369,264)"/>
<path d="M0 0 C0.88076202 0.02009628 1.76152405 0.04019257 2.66897583 0.06089783 C3.62109955 0.08793289 4.57322327 0.11496796 5.55419922 0.14282227 C6.5279953 0.16643326 7.50179138 0.19004425 8.50509644 0.21437073 C11.62317144 0.29110003 14.74100384 0.37508451 17.85888672 0.45922852 C19.96955183 0.51243992 22.08022887 0.56518037 24.19091797 0.61743164 C29.37205849 0.74672764 34.55301804 0.88198485 39.73388672 1.02172852 C39.40388672 1.68172852 39.07388672 2.34172852 38.73388672 3.02172852 C23.88388672 3.02172852 9.03388672 3.02172852 -6.26611328 3.02172852 C-6.26611328 2.36172852 -6.26611328 1.70172852 -6.26611328 1.02172852 C-3.91172677 -0.15546474 -2.61844513 -0.06733145 0 0 Z " fill="#296346" transform="translate(152.26611328125,221.978271484375)"/>
<path d="M0 0 C0.99 0 1.98 0 3 0 C3.21680147 4.94732604 3.41370799 9.89488769 3.59204102 14.84375 C3.65555346 16.5278856 3.72454266 18.21182379 3.79907227 19.89550781 C3.90513324 22.31284376 3.99161189 24.73020078 4.07421875 27.1484375 C4.11157639 27.9036972 4.14893402 28.65895691 4.18742371 29.43710327 C4.2487793 31.56005859 4.2487793 31.56005859 4 35 C3.01 35.66 2.02 36.32 1 37 C1.01160156 36.35675781 1.02320313 35.71351563 1.03515625 35.05078125 C1.10901995 27.65385931 0.65578395 20.36585905 0 13 C-0.33 13 -0.66 13 -1 13 C-0.67 8.71 -0.34 4.42 0 0 Z " fill="#52586E" transform="translate(352,255)"/>
<path d="M0 0 C0.77261673 0.02502594 1.54523346 0.05005188 2.34126282 0.07583618 C4.80738665 0.15796602 7.27270113 0.25458125 9.73828125 0.3515625 C11.4107743 0.40980933 13.0833005 0.46711246 14.75585938 0.5234375 C18.85463162 0.6635341 22.95273725 0.81662341 27.05078125 0.9765625 C27.05078125 1.3065625 27.05078125 1.6365625 27.05078125 1.9765625 C17.47665813 4.30034064 8.13746075 4.21006214 -1.63671875 4.1015625 C-3.2246037 4.09150746 -4.81249485 4.0823861 -6.40039062 4.07421875 C-10.250156 4.05241693 -14.09961702 4.01802809 -17.94921875 3.9765625 C-17.94921875 3.6465625 -17.94921875 3.3165625 -17.94921875 2.9765625 C-16.85609375 2.8528125 -15.76296875 2.7290625 -14.63671875 2.6015625 C-9.17466155 1.67579009 -5.81180463 -0.24945913 0 0 Z " fill="#192745" transform="translate(329.94921875,223.0234375)"/>
<path d="M0 0 C0.66 0 1.32 0 2 0 C2.12804337 7.12774769 1.91589419 14.19942311 1.5 21.3125 C1.020372 29.55517919 0.88893369 37.74407111 1 46 C0.34 46 -0.32 46 -1 46 C-1.17002487 41.56262213 -1.33539796 37.12508207 -1.5 32.6875 C-1.54769531 31.44419922 -1.59539062 30.20089844 -1.64453125 28.91992188 C-1.91317569 21.60895533 -2.06804577 14.31586506 -2 7 C-1.34 7 -0.68 7 0 7 C0 4.69 0 2.38 0 0 Z " fill="#545B73" transform="translate(318,244)"/>
<path d="M0 0 C0.66 0 1.32 0 2 0 C2.27714844 1.04800781 2.55429687 2.09601563 2.83984375 3.17578125 C3.20567952 4.55470067 3.57156767 5.9336062 3.9375 7.3125 C4.11990234 8.00279297 4.30230469 8.69308594 4.49023438 9.40429688 C5.2593261 12.29887844 6.05261576 15.15784729 7 18 C6.67 18.66 6.34 19.32 6 20 C5.34 20 4.68 20 4 20 C4 19.34 4 18.68 4 18 C3.01 18 2.02 18 1 18 C1 19.65 1 21.3 1 23 C0.67 23 0.34 23 0 23 C0 15.41 0 7.82 0 0 Z " fill="#3C465F" transform="translate(289,313)"/>
<path d="M0 0 C1.32 0.33 2.64 0.66 4 1 C6.54285714 8.62857143 6.54285714 8.62857143 5 13 C4.01 13.495 4.01 13.495 3 14 C3 15.65 3 17.3 3 19 C2.01 19 1.02 19 0 19 C0 12.73 0 6.46 0 0 Z " fill="#253252" transform="translate(327,269)"/>
<path d="M0 0 C0 0.66 0 1.32 0 2 C-0.99 2 -1.98 2 -3 2 C-3.33 3.32 -3.66 4.64 -4 6 C-4.99 6 -5.98 6 -7 6 C-7 6.66 -7 7.32 -7 8 C-7.66 8.66 -8.32 9.32 -9 10 C-9.268125 10.639375 -9.53625 11.27875 -9.8125 11.9375 C-11 14 -11 14 -13.5625 15.5 C-16.16513821 16.75667017 -16.16513821 16.75667017 -16.8125 19.1875 C-16.9053125 20.0846875 -16.9053125 20.0846875 -17 21 C-17.99 20.67 -18.98 20.34 -20 20 C-19.34 18.02 -18.68 16.04 -18 14 C-17.34 14 -16.68 14 -16 14 C-15.7525 13.41734375 -15.505 12.8346875 -15.25 12.234375 C-13.81474554 9.66885764 -12.22336987 8.16275202 -10 6.25 C-9.29875 5.63640625 -8.5975 5.0228125 -7.875 4.390625 C-6 3 -6 3 -4 3 C-4 2.34 -4 1.68 -4 1 C-2 0 -2 0 0 0 Z " fill="#CC464C" transform="translate(94,62)"/>
<path d="M0 0 C0.45890625 0.80824219 0.9178125 1.61648438 1.390625 2.44921875 C5.20312733 6.176111 8.60339653 5.77829067 13.75 5.8125 C15.08224609 5.85020508 15.08224609 5.85020508 16.44140625 5.88867188 C18.62804918 5.9474526 20.81269532 5.98379539 23 6 C23.33 4.68 23.66 3.36 24 2 C24 3.98 24 5.96 24 8 C16.08 8 8.16 8 0 8 C-0.66 6.68 -1.32 5.36 -2 4 C-1.125 1.75 -1.125 1.75 0 0 Z " fill="#18603C" transform="translate(179,272)"/>
<path d="M0 0 C1.14229879 3.42689636 0.90861076 5.61102218 0.5625 9.1875 C0.46066406 10.27417969 0.35882813 11.36085938 0.25390625 12.48046875 C0.12822266 13.72763672 0.12822266 13.72763672 0 15 C-0.66 14.01 -1.32 13.02 -2 12 C-2.99 12.33 -3.98 12.66 -5 13 C-6.17051429 10.65897141 -6.1992246 9.10647047 -6.25 6.5 C-6.27578125 5.7059375 -6.3015625 4.911875 -6.328125 4.09375 C-6.21984375 3.4028125 -6.1115625 2.711875 -6 2 C-3 0 -3 0 0 0 Z " fill="#243253" transform="translate(369,261)"/>
<path d="M0 0 C0.66 0 1.32 0 2 0 C2.86478781 2.76791945 3.71711674 5.53865626 4.5625 8.3125 C4.80935547 9.09818359 5.05621094 9.88386719 5.31054688 10.69335938 C5.53935547 11.45068359 5.76816406 12.20800781 6.00390625 12.98828125 C6.21861572 13.68477783 6.4333252 14.38127441 6.65454102 15.09887695 C7 17 7 17 6 20 C5.34 18.35 4.68 16.7 4 15 C3.34 15 2.68 15 2 15 C1.67 17.97 1.34 20.94 1 24 C0.67 24 0.34 24 0 24 C0 16.08 0 8.16 0 0 Z " fill="#71768A" transform="translate(326,255)"/>
<path d="M0 0 C10.56 0 21.12 0 32 0 C32 0.66 32 1.32 32 2 C28.06711636 2.93087909 24.42345837 3.11608885 20.38671875 3.09765625 C19.13955078 3.09443359 17.89238281 3.09121094 16.60742188 3.08789062 C15.31384766 3.07951172 14.02027344 3.07113281 12.6875 3.0625 C10.71813477 3.05573242 10.71813477 3.05573242 8.70898438 3.04882812 C5.4726099 3.03705949 2.23632822 3.0206176 -1 3 C-0.67 2.01 -0.34 1.02 0 0 Z " fill="#1B4481" transform="translate(310,144)"/>
<path d="M0 0 C-2.63525391 2.96337891 -2.63525391 2.96337891 -5.91796875 3.29296875 C-6.99691406 3.25816406 -8.07585937 3.22335938 -9.1875 3.1875 C-10.27417969 3.16042969 -11.36085938 3.13335937 -12.48046875 3.10546875 C-13.31191406 3.07066406 -14.14335937 3.03585938 -15 3 C-15 2.67 -15 2.34 -15 2 C-23.25 1.67 -31.5 1.34 -40 1 C-40 0.67 -40 0.34 -40 0 C-35.75020114 -0.16928564 -31.50018116 -0.3296425 -27.24975586 -0.48217773 C-25.80760925 -0.53513747 -24.36554589 -0.59042271 -22.92358398 -0.64819336 C-15.19312878 -0.95633975 -7.68162422 -1.15868075 0 0 Z " fill="#172440" transform="translate(414,224)"/>
<path d="M0 0 C1.65 0 3.3 0 5 0 C5 0.66 5 1.32 5 2 C6.98 1.34 8.96 0.68 11 0 C11.66666667 2.66666667 12.33333333 5.33333333 13 8 C11.04096255 7.52372025 9.08278903 7.04388577 7.125 6.5625 C6.03445312 6.29566406 4.94390625 6.02882813 3.8203125 5.75390625 C1 5 1 5 -1 4 C-0.67 2.68 -0.34 1.36 0 0 Z " fill="#C8262E" transform="translate(172,85)"/>
<path d="M0 0 C0.66 0 1.32 0 2 0 C3.23839599 6.65637843 3.09139136 13.2471936 3 20 C2.34 20.33 1.68 20.66 1 21 C1 17.7 1 14.4 1 11 C0.34 12.32 -0.32 13.64 -1 15 C-1.66 15 -2.32 15 -3 15 C-2.68917128 13.24970238 -2.37626821 11.49977306 -2.0625 9.75 C-1.88847656 8.77546875 -1.71445312 7.8009375 -1.53515625 6.796875 C-1.09620271 4.50278205 -0.59651408 2.25708029 0 0 Z " fill="#6A6F81" transform="translate(315,313)"/>
<path d="M0 0 C9.24 0 18.48 0 28 0 C27.67 0.66 27.34 1.32 27 2 C18.42 2.33 9.84 2.66 1 3 C0.67 2.01 0.34 1.02 0 0 Z " fill="#141E35" transform="translate(334,347)"/>
<path d="M0 0 C0.99 0 1.98 0 3 0 C3.03738281 0.94101563 3.07476562 1.88203125 3.11328125 2.8515625 C3.17902344 4.09679687 3.24476563 5.34203125 3.3125 6.625 C3.37050781 7.85476562 3.42851562 9.08453125 3.48828125 10.3515625 C4.01996453 14.1423425 5.10647796 16.70029671 7 20 C5.35 19.67 3.7 19.34 2 19 C2.33 17.68 2.66 16.36 3 15 C2.01 14.67 1.02 14.34 0 14 C-0.19393875 11.85473901 -0.37998676 9.70876323 -0.5625 7.5625 C-0.71912109 5.77005859 -0.71912109 5.77005859 -0.87890625 3.94140625 C-0.91886719 2.97074219 -0.95882812 2.00007812 -1 1 C-0.67 0.67 -0.34 0.34 0 0 Z " fill="#C36B6E" transform="translate(132,180)"/>
<path d="M0 0 C1.37140038 0.01987537 2.7426453 0.05555764 4.11328125 0.10546875 C4.81517578 0.11900391 5.51707031 0.13253906 6.24023438 0.14648438 C7.96907954 0.18176693 9.6975289 0.23557292 11.42578125 0.29296875 C11.42578125 0.62296875 11.42578125 0.95296875 11.42578125 1.29296875 C18.35578125 1.78796875 18.35578125 1.78796875 25.42578125 2.29296875 C25.42578125 2.62296875 25.42578125 2.95296875 25.42578125 3.29296875 C14.86578125 3.29296875 4.30578125 3.29296875 -6.57421875 3.29296875 C-3.57421875 0.29296875 -3.57421875 0.29296875 0 0 Z " fill="#313C57" transform="translate(310.57421875,222.70703125)"/>
<path d="M0 0 C19.305 0.495 19.305 0.495 39 1 C39.495 3.475 39.495 3.475 40 6 C38.02 6.33 36.04 6.66 34 7 C34.99 5.68 35.98 4.36 37 3 C18.685 2.505 18.685 2.505 0 2 C0 1.34 0 0.68 0 0 Z " fill="#607098" transform="translate(348,122)"/>
<path d="M0 0 C2 1 2 1 4 3 C6.88717605 3.6837613 6.88717605 3.6837613 10.125 4.125 C11.76855469 4.37636719 11.76855469 4.37636719 13.4453125 4.6328125 C14.28835937 4.75398437 15.13140625 4.87515625 16 5 C16 4.34 16 3.68 16 3 C17.32 3.66 18.64 4.32 20 5 C15.63478535 7.17838565 12.14086745 7.16820155 7.3125 6.875 C6.63638672 6.85179687 5.96027344 6.82859375 5.26367188 6.8046875 C3.30078125 6.6796875 3.30078125 6.6796875 0 6 C-1.45703125 3.9453125 -1.45703125 3.9453125 -2 2 C-1.34 2 -0.68 2 0 2 C0 1.34 0 0.68 0 0 Z " fill="#3E8869" transform="translate(140,241)"/>
<path d="M0 0 C-1.94090826 1.94090826 -5.47293902 1.39919435 -8.0625 1.5625 C-9.35285156 1.64628906 -10.64320313 1.73007812 -11.97265625 1.81640625 C-12.97167969 1.87699219 -13.97070312 1.93757813 -15 2 C-15.33 4.31 -15.66 6.62 -16 9 C-16.66 9 -17.32 9 -18 9 C-18.02689216 7.52093108 -18.04634621 6.04172517 -18.0625 4.5625 C-18.07410156 3.73878906 -18.08570313 2.91507812 -18.09765625 2.06640625 C-18 0 -18 0 -17 -1 C-14.71514064 -1.28925969 -12.42099136 -1.50673176 -10.125 -1.6875 C-8.24167969 -1.84798828 -8.24167969 -1.84798828 -6.3203125 -2.01171875 C-3 -2 -3 -2 0 0 Z " fill="#7379A4" transform="translate(361,329)"/>
<path d="M0 0 C2.43017578 -0.2487793 2.43017578 -0.2487793 5.4453125 -0.07421875 C7.05986328 0.00795898 7.05986328 0.00795898 8.70703125 0.09179688 C9.83496094 0.16462891 10.96289062 0.23746094 12.125 0.3125 C13.82849609 0.4043457 13.82849609 0.4043457 15.56640625 0.49804688 C18.37866961 0.6516579 21.18935144 0.81955472 24 1 C20.69272045 4.30727955 16.52493752 3.87398908 12 4 C7.31975109 3.79651092 2.66387202 3.43681798 -2 3 C-1.34 2.01 -0.68 1.02 0 0 Z " fill="#3D8261" transform="translate(104,325)"/>
<path d="M0 0 C0.38281159 5.23175837 -0.78145293 8.37802694 -3 13 C-5 11.1875 -5 11.1875 -7 9 C-7 8.01 -7 7.02 -7 6 C-6.34 6 -5.68 6 -5 6 C-4.87625 5.195625 -4.7525 4.39125 -4.625 3.5625 C-4.41875 2.716875 -4.2125 1.87125 -4 1 C-2 0 -2 0 0 0 Z " fill="#233252" transform="translate(308,313)"/>
<path d="M0 0 C1.98 0 3.96 0 6 0 C6.02696365 1.79158489 6.04637917 3.58328473 6.0625 5.375 C6.07410156 6.37273437 6.08570313 7.37046875 6.09765625 8.3984375 C6 11 6 11 5 13 C4.34 13 3.68 13 3 13 C2.01 8.71 1.02 4.42 0 0 Z " fill="#35425C" transform="translate(304,262)"/>
<path d="M0 0 C1.485 0.99 1.485 0.99 3 2 C3.33 1.34 3.66 0.68 4 0 C4.99 0.33 5.98 0.66 7 1 C6.67 4.63 6.34 8.26 6 12 C4.68 12 3.36 12 2 12 C1.34 8.04 0.68 4.08 0 0 Z " fill="#6A7084" transform="translate(337,262)"/>
<path d="M0 0 C0.33 0 0.66 0 1 0 C1 3.3 1 6.6 1 10 C0.01 10 -0.98 10 -2 10 C-2.66 12.64 -3.32 15.28 -4 18 C-4.33 18 -4.66 18 -5 18 C-5 15.69 -5 13.38 -5 11 C-10.61 11 -16.22 11 -22 11 C-22 10.67 -22 10.34 -22 10 C-20.73542969 9.96261719 -19.47085937 9.92523438 -18.16796875 9.88671875 C-16.5077827 9.82106167 -14.84762778 9.75461424 -13.1875 9.6875 C-12.35412109 9.66494141 -11.52074219 9.64238281 -10.66210938 9.61914062 C-9.85966797 9.58369141 -9.05722656 9.54824219 -8.23046875 9.51171875 C-7.49207764 9.48553467 -6.75368652 9.45935059 -5.99291992 9.43237305 C-3.46325093 8.88354985 -2.56281061 8.03789071 -1 6 C-0.2730774 2.89160979 -0.2730774 2.89160979 0 0 Z " fill="#6E7B98" transform="translate(366,329)"/>
<path d="M0 0 C0.33 0.66 0.66 1.32 1 2 C2.32 1.34 3.64 0.68 5 0 C5.12375 0.61875 5.2475 1.2375 5.375 1.875 C5.87197356 4.19120832 5.87197356 4.19120832 8 6 C7.236875 6.28875 6.47375 6.5775 5.6875 6.875 C2.84970692 7.96269013 2.84970692 7.96269013 0 10 C-0.33 8.68 -0.66 7.36 -1 6 C-1.66 6 -2.32 6 -3 6 C-2 4 -1 2 0 0 Z " fill="#1E2F53" transform="translate(302,305)"/>
<path d="M0 0 C0.99 0.33 1.98 0.66 3 1 C2.67 1.99 2.34 2.98 2 4 C1.34 4 0.68 4 0 4 C0 5.65 0 7.3 0 9 C-1.32 8.67 -2.64 8.34 -4 8 C-4 8.99 -4 9.98 -4 11 C-6.31 11.33 -8.62 11.66 -11 12 C-8 10 -8 10 -6 10 C-5.67 8.35 -5.34 6.7 -5 5 C-4.34 5 -3.68 5 -3 5 C-3 4.34 -3 3.68 -3 3 C-1.5 1.375 -1.5 1.375 0 0 Z " fill="#1D2B4C" transform="translate(370,279)"/>
<path d="M0 0 C0.99 0 1.98 0 3 0 C3.66 0.99 4.32 1.98 5 3 C4.67 4.32 4.34 5.64 4 7 C1.03 7 -1.94 7 -5 7 C-4.67 5.35 -4.34 3.7 -4 2 C-2.68 1.67 -1.36 1.34 0 1 C0 0.67 0 0.34 0 0 Z " fill="#212E4D" transform="translate(293,266)"/>
<path d="M0 0 C3.625 1 3.625 1 6 2 C6 2.33 6 2.66 6 3 C-0.6 3 -7.2 3 -14 3 C-8.99058737 -0.75705947 -6.0337438 -0.57870813 0 0 Z " fill="#29334F" transform="translate(382,300)"/>
<path d="M0 0 C0.66 0.99 1.32 1.98 2 3 C-0.31 5.97 -2.62 8.94 -5 12 C-5.33 11.34 -5.66 10.68 -6 10 C-6.66 10 -7.32 10 -8 10 C-7.67 8.02 -7.34 6.04 -7 4 C-5.68 4 -4.36 4 -3 4 C-2.67 3.34 -2.34 2.68 -2 2 C-1.34 2.33 -0.68 2.66 0 3 C0 2.01 0 1.02 0 0 Z " fill="#42639A" transform="translate(332,110)"/>
<path d="M0 0 C1.34384766 0.07250977 1.34384766 0.07250977 2.71484375 0.14648438 C3.65199219 0.20255859 4.58914062 0.25863281 5.5546875 0.31640625 C6.97201172 0.3947168 6.97201172 0.3947168 8.41796875 0.47460938 C10.7555294 0.60447386 13.09268295 0.73944495 15.4296875 0.87890625 C12.27653965 2.98100482 11.56865669 3.12238235 7.98046875 3.07421875 C6.70913086 3.06455078 6.70913086 3.06455078 5.41210938 3.0546875 C4.53103516 3.03792969 3.64996094 3.02117187 2.7421875 3.00390625 C1.84951172 2.99488281 0.95683594 2.98585937 0.03710938 2.9765625 C-2.16563564 2.95300373 -4.36783838 2.92010954 -6.5703125 2.87890625 C-6.5703125 2.21890625 -6.5703125 1.55890625 -6.5703125 0.87890625 C-4.11781157 -0.34734422 -2.72720815 -0.1553473 0 0 Z " fill="#1B5437" transform="translate(152.5703125,222.12109375)"/>
<path d="M0 0 C1.65 0.33 3.3 0.66 5 1 C3.69593116 3.01920337 2.36176581 5.01924973 1 7 C0.67 7 0.34 7 0 7 C-0.33 8.98 -0.66 10.96 -1 13 C0.98 13 2.96 13 5 13 C5 13.33 5 13.66 5 14 C2.69 14 0.38 14 -2 14 C-2.05410687 12.22950311 -2.09284119 10.45853151 -2.125 8.6875 C-2.14820313 7.70136719 -2.17140625 6.71523438 -2.1953125 5.69921875 C-2 3 -2 3 0 0 Z " fill="#689D83" transform="translate(170,255)"/>
<path d="M0 0 C1.98 0.99 3.96 1.98 6 3 C5.67 5.97 5.34 8.94 5 12 C4.01 12 3.02 12 2 12 C1.34 8.04 0.68 4.08 0 0 Z " fill="#676D85" transform="translate(300,321)"/>
<path d="M0 0 C0.33 0.66 0.66 1.32 1 2 C0.34 2 -0.32 2 -1 2 C-1.33 2.99 -1.66 3.98 -2 5 C-2.99 4.67 -3.98 4.34 -5 4 C-5 3.34 -5 2.68 -5 2 C-8.3 1.67 -11.6 1.34 -15 1 C-15 0.67 -15 0.34 -15 0 C-9.66901216 -0.99956022 -5.35008578 -1.01467144 0 0 Z " fill="#397C5A" transform="translate(158,255)"/>
<path d="M0 0 C1.21236328 0.01353516 1.21236328 0.01353516 2.44921875 0.02734375 C3.37154297 0.04474609 3.37154297 0.04474609 4.3125 0.0625 C4.3125 0.3925 4.3125 0.7225 4.3125 1.0625 C3.11625 1.083125 1.92 1.10375 0.6875 1.125 C-3.13885387 1.5584277 -4.60883122 2.63754479 -7 5.625 C-7.44988281 6.26566406 -7.89976562 6.90632813 -8.36328125 7.56640625 C-8.80027344 8.06011719 -9.23726563 8.55382812 -9.6875 9.0625 C-10.6775 9.0625 -11.6675 9.0625 -12.6875 9.0625 C-12.14462148 5.26235035 -10.57285357 3.52353687 -7.6875 1.0625 C-4.80538698 0.10179566 -2.98899956 -0.04331883 0 0 Z " fill="#545F75" transform="translate(393.6875,251.9375)"/>
<path d="M0 0 C1.485 0.99 1.485 0.99 3 2 C3.1875 4.625 3.1875 4.625 3 7 C3.66 7.33 4.32 7.66 5 8 C4.34 8 3.68 8 3 8 C3 11.3 3 14.6 3 18 C2.34 18 1.68 18 1 18 C0.67 12.06 0.34 6.12 0 0 Z " fill="#5E6578" transform="translate(361,245)"/>
<path d="M0 0 C0.12375 0.639375 0.2475 1.27875 0.375 1.9375 C0.684375 2.9584375 0.684375 2.9584375 1 4 C1.66 4.33 2.32 4.66 3 5 C3 5.99 3 6.98 3 8 C2.01 7.67 1.02 7.34 0 7 C-0.66 8.32 -1.32 9.64 -2 11 C-2.99 10.67 -3.98 10.34 -5 10 C-4.49701212 5.59885603 -2.91227269 3.28804981 0 0 Z " fill="#406293" transform="translate(373,139)"/>
<path d="M0 0 C0.33 0.66 0.66 1.32 1 2 C1.66 2.33 2.32 2.66 3 3 C0.69 5.64 -1.62 8.28 -4 11 C-4.99 10.34 -5.98 9.68 -7 9 C-6.67 8.34 -6.34 7.68 -6 7 C-5.34 7 -4.68 7 -4 7 C-3.71125 6.401875 -3.4225 5.80375 -3.125 5.1875 C-2 3 -2 3 0 0 Z " fill="#405F93" transform="translate(354,163)"/>
<path d="M0 0 C0.33 0 0.66 0 1 0 C3.125 7.625 3.125 7.625 2 11 C1.34 11 0.68 11 0 11 C-1.38232443 9.37373596 -2.71937515 7.7074998 -4 6 C-2.69593116 3.98079663 -1.36176581 1.98075027 0 0 Z " fill="#215093" transform="translate(379,132)"/>
<path d="M0 0 C1.32 0 2.64 0 4 0 C4.33 1.98 4.66 3.96 5 6 C-1.625 9.125 -1.625 9.125 -5 8 C-4.34 8 -3.68 8 -3 8 C-3 7.34 -3 6.68 -3 6 C-2.01 6 -1.02 6 0 6 C0 4.02 0 2.04 0 0 Z " fill="#C8393D" transform="translate(148,100)"/>
<path d="M0 0 C1.25425781 0.00902344 2.50851563 0.01804687 3.80078125 0.02734375 C4.75339844 0.03894531 5.70601562 0.05054687 6.6875 0.0625 C6.6875 0.7225 6.6875 1.3825 6.6875 2.0625 C3.0575 2.0625 -0.5725 2.0625 -4.3125 2.0625 C-4.9725 4.0425 -5.6325 6.0225 -6.3125 8.0625 C-8.3125 4.3125 -8.3125 4.3125 -8.3125 2.0625 C-9.6325 1.7325 -10.9525 1.4025 -12.3125 1.0625 C-8.15623632 0.05323521 -4.26884906 -0.03989579 0 0 Z " fill="#CF4B52" transform="translate(146.3125,96.9375)"/>
<path d="M0 0 C0.226875 0.61875 0.45375 1.2375 0.6875 1.875 C2.38416443 4.6219805 4.05251711 4.86635273 7 6 C7.33 6.99 7.66 7.98 8 9 C3.80530429 8.40075776 -0.00999834 7.42500059 -4 6 C-3.0022242 3.00667261 -2.2477975 2.05233685 0 0 Z " fill="#C43B40" transform="translate(172,101)"/>
<path d="M0 0 C0.33 0 0.66 0 1 0 C1 2.31 1 4.62 1 7 C3.97 7 6.94 7 10 7 C10.33 6.34 10.66 5.68 11 5 C10.67 6.32 10.34 7.64 10 9 C6.7 9 3.4 9 0 9 C-0.84454356 5.62182575 -1.10844919 3.32534757 0 0 Z " fill="#142039" transform="translate(279,340)"/>
<path d="M0 0 C4.75 0.875 4.75 0.875 7 2 C7.39171753 3.65391846 7.72057545 5.32345271 8 7 C8.33 7.99 8.66 8.98 9 10 C9.03954234 12.33299825 9.04401732 14.66708189 9 17 C8.67 17 8.34 17 8 17 C7.62875 15.2365625 7.62875 15.2365625 7.25 13.4375 C5.96049668 8.2518545 3.82356334 3.82356334 0 0 Z " fill="#C7535A" transform="translate(178,110)"/>
<path d="M0 0 C0.99 0 1.98 0 3 0 C3 0.99 3 1.98 3 3 C5.31 3.66 7.62 4.32 10 5 C10 5.33 10 5.66 10 6 C7.03 6 4.06 6 1 6 C0.34 4.35 -0.32 2.7 -1 1 C-0.67 0.67 -0.34 0.34 0 0 Z " fill="#CE3F47" transform="translate(141,82)"/>
<path d="M0 0 C0.33 0.66 0.66 1.32 1 2 C0.06027344 2.27263672 0.06027344 2.27263672 -0.8984375 2.55078125 C-1.71570313 2.80214844 -2.53296875 3.05351563 -3.375 3.3125 C-4.18710938 3.55613281 -4.99921875 3.79976563 -5.8359375 4.05078125 C-8.33184629 4.91368185 -8.33184629 4.91368185 -10 8 C-10.21917317 5.29686424 -10.32851983 3.56041618 -8.9375 1.1875 C-6.00731249 -0.60842137 -3.3527047 -0.18977574 0 0 Z " fill="#C54346" transform="translate(176,96)"/>
<path d="M0 0 C0.66 0 1.32 0 2 0 C2.33 2.31 2.66 4.62 3 7 C2.67 7 2.34 7 2 7 C1.67 12.28 1.34 17.56 1 23 C0.67 23 0.34 23 0 23 C0 15.41 0 7.82 0 0 Z " fill="#9EA3B0" transform="translate(289,313)"/>
<path d="M0 0 C0.680625 0.598125 1.36125 1.19625 2.0625 1.8125 C2.0625 2.8025 2.0625 3.7925 2.0625 4.8125 C-3.8775 3.3275 -3.8775 3.3275 -9.9375 1.8125 C-9.9375 1.4825 -9.9375 1.1525 -9.9375 0.8125 C-3.71999194 -1.50382653 -3.71999194 -1.50382653 0 0 Z " fill="#CA474B" transform="translate(182.9375,88.1875)"/>
<path d="M0 0 C1.45823212 -0.0270043 2.91660675 -0.04639787 4.375 -0.0625 C5.18710937 -0.07410156 5.99921875 -0.08570313 6.8359375 -0.09765625 C9 0 9 0 11 1 C11 1.66 11 2.32 11 3 C5.06 3.495 5.06 3.495 -1 4 C-0.67 2.68 -0.34 1.36 0 0 Z " fill="#353E57" transform="translate(321,242)"/>
<path d="M0 0 C1.32 0.66 2.64 1.32 4 2 C4 2.66 4 3.32 4 4 C2.25 5.5078125 2.25 5.5078125 0 7.125 C-0.7425 7.66382813 -1.485 8.20265625 -2.25 8.7578125 C-2.8275 9.16773438 -3.405 9.57765625 -4 10 C-4.33 9.01 -4.66 8.02 -5 7 C-4.67 6.34 -4.34 5.68 -4 5 C-2.68 5 -1.36 5 0 5 C-0.2784375 4.0409375 -0.2784375 4.0409375 -0.5625 3.0625 C-0.706875 2.381875 -0.85125 1.70125 -1 1 C-0.67 0.67 -0.34 0.34 0 0 Z " fill="#4B5670" transform="translate(414,363)"/>
<path d="M0 0 C0.66 0 1.32 0 2 0 C2 3.63 2 7.26 2 11 C0.02 11 -1.96 11 -4 11 C-3.34 10.67 -2.68 10.34 -2 10 C-2 9.34 -2 8.68 -2 8 C-1.34 8 -0.68 8 0 8 C0 5.36 0 2.72 0 0 Z " fill="#1B6641" transform="translate(157,257)"/>
<path d="M0 0 C0.598125 0.350625 1.19625 0.70125 1.8125 1.0625 C1.1525 1.0625 0.4925 1.0625 -0.1875 1.0625 C-0.5896875 2.2071875 -0.5896875 2.2071875 -1 3.375 C-2.13174112 5.93630884 -3.09973401 7.25942938 -5.1875 9.0625 C-5.5175 7.4125 -5.8475 5.7625 -6.1875 4.0625 C-5.1975 3.4025 -4.2075 2.7425 -3.1875 2.0625 C-3.8475 1.4025 -4.5075 0.7425 -5.1875 0.0625 C-2.1875 -0.9375 -2.1875 -0.9375 0 0 Z " fill="#C83E45" transform="translate(119.1875,99.9375)"/>
<path d="M0 0 C0 0.66 0 1.32 0 2 C-0.99 2 -1.98 2 -3 2 C-3.33 3.32 -3.66 4.64 -4 6 C-4.99 6 -5.98 6 -7 6 C-7 6.66 -7 7.32 -7 8 C-8.98 8.66 -10.96 9.32 -13 10 C-10.34345343 6.26115668 -8.41889613 4.35021826 -4 3 C-4 2.34 -4 1.68 -4 1 C-2 0 -2 0 0 0 Z " fill="#C5535B" transform="translate(94,62)"/>
<path d="M0 0 C1.32 0 2.64 0 4 0 C4.33 2.64 4.66 5.28 5 8 C3.02 8.99 3.02 8.99 1 10 C1.20625 9.38125 1.4125 8.7625 1.625 8.125 C1.74875 7.42375 1.8725 6.7225 2 6 C1.34 5.34 0.68 4.68 0 4 C0 2.68 0 1.36 0 0 Z " fill="#3C639D" transform="translate(361,66)"/>
<path d="M0 0 C0.33 0.66 0.66 1.32 1 2 C1.99 1.34 2.98 0.68 4 0 C4.99 0 5.98 0 7 0 C7 0.66 7 1.32 7 2 C1.555 4.475 1.555 4.475 -4 7 C-4 5.68 -4 4.36 -4 3 C-2.68 3 -1.36 3 0 3 C0 2.01 0 1.02 0 0 Z " fill="#41546B" transform="translate(400,373)"/>
<path d="M0 0 C0.9075 0.309375 1.815 0.61875 2.75 0.9375 C0.11609075 2.65967143 -1.17411417 2.94205315 -4.375 2.75 C-7.25 1.9375 -7.25 1.9375 -9.25 -1.0625 C-5.96743794 -2.70378103 -3.38842062 -1.10775289 0 0 Z " fill="#C1272C" transform="translate(138.25,89.0625)"/>
<path d="M0 0 C3.00221784 4.50332676 4.31896025 8.57767579 4 14 C3.67 12.68 3.34 11.36 3 10 C2.34 10 1.68 10 1 10 C1 8.68 1 7.36 1 6 C0.01 5.67 -0.98 5.34 -2 5 C-1.34 3.35 -0.68 1.7 0 0 Z " fill="#C14B4E" transform="translate(116,159)"/>
<path d="M0 0 C1.69433918 3.0469629 2.49467112 5.82821466 3.125 9.25 C3.29257813 10.14203125 3.46015625 11.0340625 3.6328125 11.953125 C3.75398438 12.62859375 3.87515625 13.3040625 4 14 C3.01 13.67 2.02 13.34 1 13 C0.63779734 11.20994059 0.28547531 9.41787943 -0.0625 7.625 C-0.25972656 6.62726563 -0.45695312 5.62953125 -0.66015625 4.6015625 C-1 2 -1 2 0 0 Z " fill="#C2464B" transform="translate(112,145)"/>
<path d="M0 0 C0.66 1.32 1.32 2.64 2 4 C2.99 4 3.98 4 5 4 C4.67 4.66 4.34 5.32 4 6 C3.64386903 7.66194453 3.30791692 9.328451 3 11 C2.01 11.33 1.02 11.66 0 12 C0 8.04 0 4.08 0 0 Z " fill="#1E2B4C" transform="translate(327,276)"/>
<path d="M0 0 C-0.33 0.99 -0.66 1.98 -1 3 C-7.93 3 -14.86 3 -22 3 C-22 2.67 -22 2.34 -22 2 C-20.72382813 1.93941406 -19.44765625 1.87882813 -18.1328125 1.81640625 C-16.46352984 1.73200432 -14.79425963 1.64735614 -13.125 1.5625 C-12.28324219 1.52318359 -11.44148437 1.48386719 -10.57421875 1.44335938 C-9.76855469 1.40146484 -8.96289062 1.35957031 -8.1328125 1.31640625 C-7.01737061 1.26141968 -7.01737061 1.26141968 -5.87939453 1.20532227 C-3.65464062 0.96226978 -2.26227007 0 0 0 Z " fill="#B73C3E" transform="translate(182,200)"/>
<path d="M0 0 C2.97 0 5.94 0 9 0 C8.67 0.99 8.34 1.98 8 3 C2.25 4.125 2.25 4.125 0 3 C0 2.01 0 1.02 0 0 Z " fill="#C73C45" transform="translate(126,195)"/>
<path d="M0 0 C0.99 0 1.98 0 3 0 C3 0.99 3 1.98 3 3 C2.34 3 1.68 3 1 3 C0.731875 3.78375 0.46375 4.5675 0.1875 5.375 C-1 8 -1 8 -4 10 C-3.29445932 6.33118845 -1.72264494 3.29549466 0 0 Z " fill="#45658F" transform="translate(348,89)"/>
<path d="M0 0 C-0.33 0.99 -0.66 1.98 -1 3 C-2.79008467 3.22151549 -4.58218162 3.42682213 -6.375 3.625 C-7.37273437 3.74101563 -8.37046875 3.85703125 -9.3984375 3.9765625 C-10.25695312 3.98429687 -11.11546875 3.99203125 -12 4 C-12.66 3.34 -13.32 2.68 -14 2 C-4.58997722 -0.29612756 -4.58997722 -0.29612756 0 0 Z " fill="#CA5456" transform="translate(202,78)"/>
<path d="M0 0 C0.66 0 1.32 0 2 0 C2 0.99 2 1.98 2 3 C3.32 2.34 4.64 1.68 6 1 C6 3.66666667 6 6.33333333 6 9 C3.35247996 6.42215154 1.05567935 4.08351902 -1 1 C-0.67 0.67 -0.34 0.34 0 0 Z " fill="#4C876C" transform="translate(80,361)"/>
<path d="M0 0 C1.9375 0.3125 1.9375 0.3125 4 1 C5 4 5 4 4.0625 6.1875 C3.5365625 7.0846875 3.5365625 7.0846875 3 8 C2.34 7.67 1.68 7.34 1 7 C1 6.34 1 5.68 1 5 C0.34 4.67 -0.32 4.34 -1 4 C-0.67 2.68 -0.34 1.36 0 0 Z " fill="#343D57" transform="translate(386,312)"/>
<path d="M0 0 C0.33 0 0.66 0 1 0 C1.33 4.62 1.66 9.24 2 14 C1.01 14.66 0.02 15.32 -1 16 C-0.67 10.72 -0.34 5.44 0 0 Z " fill="#47526D" transform="translate(354,276)"/>
<path d="M0 0 C0.8125 1.6875 0.8125 1.6875 1 4 C-1.3125 6.75 -1.3125 6.75 -4 9 C-4.66 9 -5.32 9 -6 9 C-6 9.66 -6 10.32 -6 11 C-6.66 10.67 -7.32 10.34 -8 10 C-7.67 9.34 -7.34 8.68 -7 8 C-6.34 8 -5.68 8 -5 8 C-5 7.34 -5 6.68 -5 6 C-4.34 6 -3.68 6 -3 6 C-2.690625 5.195625 -2.38125 4.39125 -2.0625 3.5625 C-1 1 -1 1 0 0 Z " fill="#526D96" transform="translate(363,152)"/>
<path d="M0 0 C5.11476819 -0.63934602 8.67254378 1.59466453 13 4 C8.80928145 5.29229206 6.11463313 4.5239382 2 3 C1.34 2.01 0.68 1.02 0 0 Z " fill="#4F6794" transform="translate(393,57)"/>
<path d="M0 0 C0.33 0 0.66 0 1 0 C1 2.97 1 5.94 1 9 C1.66 9.33 2.32 9.66 3 10 C2.01 11.485 2.01 11.485 1 13 C0.34 13 -0.32 13 -1 13 C-1 12.34 -1 11.68 -1 11 C-2.98 11 -4.96 11 -7 11 C-7 10.67 -7 10.34 -7 10 C-4.69 10 -2.38 10 0 10 C0 6.7 0 3.4 0 0 Z " fill="#343E57" transform="translate(326,279)"/>
<path d="M0 0 C0.33 0 0.66 0 1 0 C3.27678571 8.03571429 3.27678571 8.03571429 2 12 C-0.0625 10.25 -0.0625 10.25 -2 8 C-1.8125 6 -1.8125 6 -1 4 C-0.814375 3.2575 -0.62875 2.515 -0.4375 1.75 C-0.293125 1.1725 -0.14875 0.595 0 0 Z " fill="#5A637C" transform="translate(294,256)"/>
<path d="M0 0 C0.99 0 1.98 0 3 0 C2.71788123 1.6266848 2.42397625 3.25132896 2.125 4.875 C1.96257812 5.77992188 1.80015625 6.68484375 1.6328125 7.6171875 C1 10 1 10 -1 12 C-1.33 10.68 -1.66 9.36 -2 8 C-1.67 8 -1.34 8 -1 8 C-0.67 5.36 -0.34 2.72 0 0 Z " fill="#6178A1" transform="translate(330,179)"/>
<path d="M0 0 C0.185625 0.8353125 0.185625 0.8353125 0.375 1.6875 C1.05976855 4.22114364 1.99133763 6.57921032 3 9 C2.34 9.66 1.68 10.32 1 11 C1 10.34 1 9.68 1 9 C0.01 9 -0.98 9 -2 9 C-2.6875 6.75 -2.6875 6.75 -3 4 C-1.5625 1.6875 -1.5625 1.6875 0 0 Z " fill="#38629A" transform="translate(346,173)"/>
<path d="M0 0 C1.32 0 2.64 0 4 0 C4 0.66 4 1.32 4 2 C3.34 2 2.68 2 2 2 C1.34 4.31 0.68 6.62 0 9 C-0.66 8.67 -1.32 8.34 -2 8 C-1.125 1.125 -1.125 1.125 0 0 Z " fill="#293657" transform="translate(346,330)"/>
<path d="M0 0 C0.33 0.66 0.66 1.32 1 2 C1.66 2.33 2.32 2.66 3 3 C2.2884375 3.928125 2.2884375 3.928125 1.5625 4.875 C-0.02417441 6.90705546 -0.02417441 6.90705546 -1 9 C-2.65 8.67 -4.3 8.34 -6 8 C-5.38125 7.79375 -4.7625 7.5875 -4.125 7.375 C-1.15346355 5.45224112 -0.86975341 3.33405473 0 0 Z " fill="#47516E" transform="translate(397,322)"/>
<path d="M0 0 C0.33 0 0.66 0 1 0 C2.62950412 4.12168689 3.26264601 6.70700357 2 11 C1.01 11.33 0.02 11.66 -1 12 C-0.67 8.04 -0.34 4.08 0 0 Z " fill="#1D2842" transform="translate(378,312)"/>
<path d="M0 0 C0 0.33 0 0.66 0 1 C-5.94 1.495 -5.94 1.495 -12 2 C-12 1.01 -12 0.02 -12 -1 C-7.48281619 -2.36884358 -4.41225737 -1.47075246 0 0 Z " fill="#35405D" transform="translate(294,302)"/>
<path d="M0 0 C0.99 0.495 0.99 0.495 2 1 C2 1.66 2 2.32 2 3 C2.66 3 3.32 3 4 3 C4 3.66 4 4.32 4 5 C4.99 5.33 5.98 5.66 7 6 C6.34 6.66 5.68 7.32 5 8 C2.875 7.625 2.875 7.625 1 7 C0.67 4.69 0.34 2.38 0 0 Z " fill="#565F77" transform="translate(373,280)"/>
<path d="M0 0 C0.33 0.66 0.66 1.32 1 2 C2.65 2 4.3 2 6 2 C5.67 2.66 5.34 3.32 5 4 C4.01 4.33 3.02 4.66 2 5 C0.77030122 8.51190809 0.77030122 8.51190809 0 12 C-0.33 12 -0.66 12 -1 12 C-0.67 8.04 -0.34 4.08 0 0 Z " fill="#4B536F" transform="translate(286,241)"/>
<path d="M0 0 C3.63 0 7.26 0 11 0 C11.33 1.65 11.66 3.3 12 5 C10.02 5.33 8.04 5.66 6 6 C6.99 4.68 7.98 3.36 9 2 C6.03 1.67 3.06 1.34 0 1 C0 0.67 0 0.34 0 0 Z " fill="#526B99" transform="translate(376,123)"/>
<path d="M0 0 C0.99 0 1.98 0 3 0 C3 0.66 3 1.32 3 2 C2.34 2 1.68 2 1 2 C0.34 3.65 -0.32 5.3 -1 7 C-1.99 7 -2.98 7 -4 7 C-3.67 5.68 -3.34 4.36 -3 3 C-2.01 3 -1.02 3 0 3 C0 2.01 0 1.02 0 0 Z M-5 8 C-3 9 -3 9 -3 9 Z " fill="#C72930" transform="translate(94,61)"/>
<path d="M0 0 C3.96 0 7.92 0 12 0 C12 0.66 12 1.32 12 2 C8.70303895 3.09898702 7.59505097 2.87124444 4.3125 2.0625 C3.50425781 1.86785156 2.69601563 1.67320312 1.86328125 1.47265625 C0.94095703 1.23869141 0.94095703 1.23869141 0 1 C0 0.67 0 0.34 0 0 Z " fill="#135F3A" transform="translate(159,308)"/>
<path d="M0 0 C3.96 0 7.92 0 12 0 C12 0.33 12 0.66 12 1 C8.7 1 5.4 1 2 1 C1.67 2.65 1.34 4.3 1 6 C0.34 5.34 -0.32 4.68 -1 4 C-0.67 2.68 -0.34 1.36 0 0 Z " fill="#2C7E59" transform="translate(202,268)"/>
<path d="M0 0 C0.66 0 1.32 0 2 0 C1.40075776 4.19469571 0.42500059 8.00999834 -1 12 C-1.33 12 -1.66 12 -2 12 C-2.17835515 7.45194365 -1.99785435 4.1205746 0 0 Z " fill="#7488A8" transform="translate(342,144)"/>
<path d="M0 0 C0.33 0 0.66 0 1 0 C2.51708428 9.41002278 2.51708428 9.41002278 0 14 C-0.33 14 -0.66 14 -1 14 C-1.02705729 12.22925083 -1.04642195 10.45838289 -1.0625 8.6875 C-1.07410156 7.70136719 -1.08570312 6.71523437 -1.09765625 5.69921875 C-1 3 -1 3 0 0 Z " fill="#B8262B" transform="translate(120,115)"/>
<path d="M0 0 C0.33 0.99 0.66 1.98 1 3 C-0.40445835 5.2636564 -2.1967913 7.0208685 -4 9 C-4.33 8.01 -4.66 7.02 -5 6 C-2.66666667 1.33333333 -2.66666667 1.33333333 0 0 Z " fill="#646B7E" transform="translate(426,353)"/>
<path d="M0 0 C3.00617269 3.00617269 2.59585316 5.82381598 3 10 C2.34 10 1.68 10 1 10 C-0.80411967 7.24075815 -1.0127245 6.11027897 -0.625 2.75 C-0.41875 1.8425 -0.2125 0.935 0 0 Z " fill="#545C70" transform="translate(295,333)"/>
<path d="M0 0 C0.66 0 1.32 0 2 0 C2.33 1.32 2.66 2.64 3 4 C3.66 3.01 4.32 2.02 5 1 C5.33 2.65 5.66 4.3 6 6 C4.35 6.33 2.7 6.66 1 7 C0.67 4.69 0.34 2.38 0 0 Z " fill="#49546F" transform="translate(310,282)"/>
<path d="M0 0 C0.99 0 1.98 0 3 0 C3 0.66 3 1.32 3 2 C3.66 2 4.32 2 5 2 C4.34 4.31 3.68 6.62 3 9 C2.67 9 2.34 9 2 9 C2 7.02 2 5.04 2 3 C1.34 3 0.68 3 0 3 C0 2.01 0 1.02 0 0 Z " fill="#1D2B4B" transform="translate(310,279)"/>
<path d="M0 0 C0.99 0.33 1.98 0.66 3 1 C3 1.66 3 2.32 3 3 C3.66 3.33 4.32 3.66 5 4 C2.45297384 5.27351308 1.5717055 4.80191925 -1.125 4.0625 C-1.84945312 3.86785156 -2.57390625 3.67320312 -3.3203125 3.47265625 C-3.87460938 3.31667969 -4.42890625 3.16070312 -5 3 C-4.360625 2.690625 -3.72125 2.38125 -3.0625 2.0625 C-1.06389179 1.1654837 -1.06389179 1.1654837 0 0 Z " fill="#39815F" transform="translate(187,242)"/>
<path d="M0 0 C1.231394 2.46278801 1.07159196 4.2795055 1 7 C-0.65 7 -2.3 7 -4 7 C-3.6875 4.625 -3.6875 4.625 -3 2 C-2.01 1.34 -1.02 0.68 0 0 Z " fill="#294C84" transform="translate(333,192)"/>
<path d="M0 0 C0.33 0 0.66 0 1 0 C1.14285714 7.42857143 1.14285714 7.42857143 0 11 C-0.66 11 -1.32 11 -2 11 C-1.85892253 9.54119891 -1.71197585 8.08296449 -1.5625 6.625 C-1.48128906 5.81289062 -1.40007812 5.00078125 -1.31640625 4.1640625 C-1 2 -1 2 0 0 Z " fill="#C34F52" transform="translate(71,86)"/>
<path d="M0 0 C0.33 0.66 0.66 1.32 1 2 C2.65 1.34 4.3 0.68 6 0 C6.33 1.98 6.66 3.96 7 6 C6.01 6 5.02 6 4 6 C4 5.34 4 4.68 4 4 C2.68 4 1.36 4 0 4 C0 2.68 0 1.36 0 0 Z " fill="#C74750" transform="translate(127,170)"/>
<path d="M0 0 C2.64 0.33 5.28 0.66 8 1 C8 1.99 8 2.98 8 4 C5.69 3.67 3.38 3.34 1 3 C0.67 2.01 0.34 1.02 0 0 Z " fill="#1D2B47" transform="translate(273,288)"/>
<path d="M0 0 C1.98 0 3.96 0 6 0 C6 1.65 6 3.3 6 5 C5.01 4.67 4.02 4.34 3 4 C2.34 4.66 1.68 5.32 1 6 C0.67 4.02 0.34 2.04 0 0 Z " fill="#48546F" transform="translate(304,262)"/>
<path d="M0 0 C-1.65 1.98 -3.3 3.96 -5 6 C-5.33 5.01 -5.66 4.02 -6 3 C-6.66 2.67 -7.32 2.34 -8 2 C-4.77208445 -0.1519437 -3.71599191 -0.20086443 0 0 Z " fill="#616A82" transform="translate(379,249)"/>
<path d="M0 0 C2.35694954 0.09031574 4.71153582 0.24688128 7.0625 0.4375 C8.35285156 0.53933594 9.64320313 0.64117187 10.97265625 0.74609375 C12.47119141 0.87177734 12.47119141 0.87177734 14 1 C14 1.33 14 1.66 14 2 C9.71 2 5.42 2 1 2 C0.67 3.32 0.34 4.64 0 6 C-0.38218767 4.34385343 -0.71395102 2.67542976 -1 1 C-0.67 0.67 -0.34 0.34 0 0 Z " fill="#394157" transform="translate(348,243)"/>
<path d="M0 0 C0.66 0 1.32 0 2 0 C2.33 1.32 2.66 2.64 3 4 C0.09399739 5.25664978 -1.79604584 6 -5 6 C-4.34 5.01 -3.68 4.02 -3 3 C-2.34 3 -1.68 3 -1 3 C-0.67 2.01 -0.34 1.02 0 0 Z " fill="#526A98" transform="translate(335,187)"/>
<path d="M0 0 C0.33 0.66 0.66 1.32 1 2 C1.99 2.33 2.98 2.66 4 3 C4 5.97 4 8.94 4 12 C0 4 0 4 0 0 Z " fill="#D0676B" transform="translate(123,157)"/>
<path d="M0 0 C0 0.66 0 1.32 0 2 C-1.65 2 -3.3 2 -5 2 C-5.33 2.99 -5.66 3.98 -6 5 C-6.66 5 -7.32 5 -8 5 C-8.33 4.01 -8.66 3.02 -9 2 C-3.375 0 -3.375 0 0 0 Z " fill="#C35052" transform="translate(177,83)"/>
<path d="M0 0 C0.99 0 1.98 0 3 0 C3 0.66 3 1.32 3 2 C3.66 2 4.32 2 5 2 C4.67 2.66 4.34 3.32 4 4 C3.01 3.67 2.02 3.34 1 3 C1 5.31 1 7.62 1 10 C0.67 10 0.34 10 0 10 C0 6.7 0 3.4 0 0 Z " fill="#1C2947" transform="translate(290,331)"/>
<path d="M0 0 C0.33 0 0.66 0 1 0 C1.144375 1.093125 1.28875 2.18625 1.4375 3.3125 C1.88288104 6.93122987 1.88288104 6.93122987 3 10 C2.01 10.33 1.02 10.66 0 11 C-0.19406478 9.35492782 -0.38007935 7.70890406 -0.5625 6.0625 C-0.66691406 5.14597656 -0.77132812 4.22945313 -0.87890625 3.28515625 C-0.91886719 2.53105469 -0.95882812 1.77695312 -1 1 C-0.67 0.67 -0.34 0.34 0 0 Z " fill="#2D7B4E" transform="translate(100,316)"/>
<path d="M0 0 C0.33 1.32 0.66 2.64 1 4 C1.66 4 2.32 4 3 4 C3.33 4.99 3.66 5.98 4 7 C1.36 6.34 -1.28 5.68 -4 5 C-3.525625 4.54625 -3.05125 4.0925 -2.5625 3.625 C-0.90972192 2.06741796 -0.90972192 2.06741796 0 0 Z " fill="#656D84" transform="translate(389,299)"/>
<path d="M0 0 C0.66 0 1.32 0 2 0 C1.67 1.32 1.34 2.64 1 4 C-1.97 4 -4.94 4 -8 4 C-8 3.01 -8 2.02 -8 1 C-5.36 1.33 -2.72 1.66 0 2 C0 1.34 0 0.68 0 0 Z " fill="#424957" transform="translate(296,269)"/>
<path d="M0 0 C0.66 0 1.32 0 2 0 C2.33 0.99 2.66 1.98 3 3 C2.01 3.33 1.02 3.66 0 4 C-0.33 4.99 -0.66 5.98 -1 7 C-1.66 6.67 -2.32 6.34 -3 6 C-3 5.01 -3 4.02 -3 3 C-2.01 3 -1.02 3 0 3 C0 2.01 0 1.02 0 0 Z " fill="#C63C45" transform="translate(140,107)"/>
<path d="M0 0 C1.32 0.66 2.64 1.32 4 2 C0.62902617 3.49821059 -1.20442119 4 -5 4 C-5 3.34 -5 2.68 -5 2 C-3.35 2 -1.7 2 0 2 C0 1.34 0 0.68 0 0 Z " fill="#3B6C53" transform="translate(156,244)"/>
<path d="M0 0 C0.66 0.33 1.32 0.66 2 1 C2 1.66 2 2.32 2 3 C2.66 3.33 3.32 3.66 4 4 C1.69 4.66 -0.62 5.32 -3 6 C-3 4.68 -3 3.36 -3 2 C-2.34 2 -1.68 2 -1 2 C-0.67 1.34 -0.34 0.68 0 0 Z " fill="#3D4661" transform="translate(382,242)"/>
<path d="M0 0 C4.05606165 0.46800711 7.46588679 0.87953208 11 3 C9.02 3.33 7.04 3.66 5 4 C4.67 3.01 4.34 2.02 4 1 C1.98491642 0.26676204 1.98491642 0.26676204 0 0 Z " fill="#D26266" transform="translate(186,100)"/>
<path d="M0 0 C0.33 0.66 0.66 1.32 1 2 C3.02463255 2.65213292 3.02463255 2.65213292 5 3 C4.01 3.99 3.02 4.98 2 6 C1.01 5.67 0.02 5.34 -1 5 C-0.67 3.35 -0.34 1.7 0 0 Z " fill="#3C4764" transform="translate(290,263)"/>
<path d="M0 0 C0.66 0 1.32 0 2 0 C2.33 2.31 2.66 4.62 3 7 C2.01 6.67 1.02 6.34 0 6 C0 4.02 0 2.04 0 0 Z " fill="#6D6F7D" transform="translate(326,255)"/>
<path d="M0 0 C1.03348696 3.10046087 1.17755913 4.05610218 0 7 C-0.99 7.33 -1.98 7.66 -3 8 C-2.67 6.02 -2.34 4.04 -2 2 C-1.34 2 -0.68 2 0 2 C0 1.34 0 0.68 0 0 Z " fill="#636D80" transform="translate(346,253)"/>
<path d="M0 0 C0.66 0.33 1.32 0.66 2 1 C2.625 3.0625 2.625 3.0625 3 5 C1.02 5.99 1.02 5.99 -1 7 C-0.67 4.69 -0.34 2.38 0 0 Z " fill="#1B4A89" transform="translate(347,173)"/>
<path d="M0 0 C0.33 0 0.66 0 1 0 C1 1.65 1 3.3 1 5 C-0.65 5.33 -2.3 5.66 -4 6 C-2.69593116 3.98079663 -1.36176581 1.98075027 0 0 Z " fill="#5C769F" transform="translate(379,132)"/>
<path d="M0 0 C0.66 0.33 1.32 0.66 2 1 C2 2.98 2 4.96 2 7 C1.01 7.495 1.01 7.495 0 8 C0 7.01 0 6.02 0 5 C-0.66 4.67 -1.32 4.34 -2 4 C-1.34 2.68 -0.68 1.36 0 0 Z " fill="#305897" transform="translate(340,96)"/>
<path d="M0 0 C-4.75 3.875 -4.75 3.875 -7 5 C-7.33 3.68 -7.66 2.36 -8 1 C-5.07175348 0.02391783 -3.04386724 -0.08226668 0 0 Z " fill="#CC5660" transform="translate(158,82)"/>
<path d="" fill="#FFFFFF" transform="translate(0,0)"/>
<path d="" fill="#FFFFFF" transform="translate(0,0)"/>
<path d="" fill="#FFFFFF" transform="translate(0,0)"/>
<path d="" fill="#FFFFFF" transform="translate(0,0)"/>
<path d="" fill="#FFFFFF" transform="translate(0,0)"/>
<path d="" fill="#FFFFFF" transform="translate(0,0)"/>
<path d="" fill="#FFFFFF" transform="translate(0,0)"/>
<path d="" fill="#FFFFFF" transform="translate(0,0)"/>
<path d="" fill="#FFFFFF" transform="translate(0,0)"/>
<path d="" fill="#FFFFFF" transform="translate(0,0)"/>
<path d="" fill="#FFFFFF" transform="translate(0,0)"/>
<path d="" fill="#FFFFFF" transform="translate(0,0)"/>
<path d="" fill="#FFFFFF" transform="translate(0,0)"/>
<path d="" fill="#FFFFFF" transform="translate(0,0)"/>
<path d="" fill="#FFFFFF" transform="translate(0,0)"/>
<path d="" fill="#FFFFFF" transform="translate(0,0)"/>
<path d="" fill="#FFFFFF" transform="translate(0,0)"/>
<path d="" fill="#FFFFFF" transform="translate(0,0)"/>
<path d="" fill="#FFFFFF" transform="translate(0,0)"/>
<path d="" fill="#FFFFFF" transform="translate(0,0)"/>
<path d="" fill="#FFFFFF" transform="translate(0,0)"/>
<path d="" fill="#FFFFFF" transform="translate(0,0)"/>
<path d="" fill="#FFFFFF" transform="translate(0,0)"/>
<path d="" fill="#FFFFFF" transform="translate(0,0)"/>
<path d="" fill="#FFFFFF" transform="translate(0,0)"/>
<path d="" fill="#FFFFFF" transform="translate(0,0)"/>
<path d="" fill="#FFFFFF" transform="translate(0,0)"/>
<path d="" fill="#FFFFFF" transform="translate(0,0)"/>
<path d="" fill="#FFFFFF" transform="translate(0,0)"/>
<path d="" fill="#FFFFFF" transform="translate(0,0)"/>
<path d="" fill="#FFFFFF" transform="translate(0,0)"/>
<path d="" fill="#FFFFFF" transform="translate(0,0)"/>
<path d="" fill="#FFFFFF" transform="translate(0,0)"/>
<path d="" fill="#FFFFFF" transform="translate(0,0)"/>
<path d="" fill="#FFFFFF" transform="translate(0,0)"/>
<path d="" fill="#FFFFFF" transform="translate(0,0)"/>
<path d="" fill="#FFFFFF" transform="translate(0,0)"/>
<path d="" fill="#FFFFFF" transform="translate(0,0)"/>
<path d="" fill="#FFFFFF" transform="translate(0,0)"/>
<path d="" fill="#FFFFFF" transform="translate(0,0)"/>
<path d="" fill="#FFFFFF" transform="translate(0,0)"/>
<path d="" fill="#FFFFFF" transform="translate(0,0)"/>
<path d="" fill="#FFFFFF" transform="translate(0,0)"/>
<path d="" fill="#FFFFFF" transform="translate(0,0)"/>
<path d="" fill="#FFFFFF" transform="translate(0,0)"/>
<path d="" fill="#FFFFFF" transform="translate(0,0)"/>
<path d="" fill="#FFFFFF" transform="translate(0,0)"/>
<path d="" fill="#FFFFFF" transform="translate(0,0)"/>
<path d="" fill="#FFFFFF" transform="translate(0,0)"/>
<path d="" fill="#FFFFFF" transform="translate(0,0)"/>
<path d="" fill="#FFFFFF" transform="translate(0,0)"/>
<path d="" fill="#FFFFFF" transform="translate(0,0)"/>
<path d="" fill="#FFFFFF" transform="translate(0,0)"/>
<path d="" fill="#FFFFFF" transform="translate(0,0)"/>
<path d="" fill="#FFFFFF" transform="translate(0,0)"/>
<path d="" fill="#FFFFFF" transform="translate(0,0)"/>
<path d="" fill="#FFFFFF" transform="translate(0,0)"/>
<path d="" fill="#FFFFFF" transform="translate(0,0)"/>
<path d="" fill="#FFFFFF" transform="translate(0,0)"/>
<path d="" fill="#FFFFFF" transform="translate(0,0)"/>
<path d="" fill="#FFFFFF" transform="translate(0,0)"/>
</svg>
