<?xml version="1.0" encoding="UTF-8"?>
<svg version="1.1" xmlns="http://www.w3.org/2000/svg" width="246" height="239">
<path d="M0 0 C8.25 0 16.5 0 25 0 C25 0.66 25 1.32 25 2 C29.62 2 34.24 2 39 2 C39 2.66 39 3.32 39 4 C41.64 4 44.28 4 47 4 C47 4.66 47 5.32 47 6 C49.64 6 52.28 6 55 6 C55 6.66 55 7.32 55 8 C56.32 8 57.64 8 59 8 C59 8.66 59 9.32 59 10 C60.98 10 62.96 10 65 10 C65 10.66 65 11.32 65 12 C66.32 12 67.64 12 69 12 C69 12.66 69 13.32 69 14 C70.32 14 71.64 14 73 14 C73 14.66 73 15.32 73 16 C73.66 16 74.32 16 75 16 C75 16.66 75 17.32 75 18 C76.32 18 77.64 18 79 18 C79 18.66 79 19.32 79 20 C79.66 20 80.32 20 81 20 C81 20.66 81 21.32 81 22 C82.32 22 83.64 22 85 22 C85 22.66 85 23.32 85 24 C85.66 24 86.32 24 87 24 C87 24.66 87 25.32 87 26 C87.66 26 88.32 26 89 26 C89 26.66 89 27.32 89 28 C89.66 28 90.32 28 91 28 C91 28.66 91 29.32 91 30 C92.32 30 93.64 30 95 30 C95 30.66 95 31.32 95 32 C95.66 32 96.32 32 97 32 C97 32.66 97 33.32 97 34 C97.66 34 98.32 34 99 34 C99 35.32 99 36.64 99 38 C99.66 38 100.32 38 101 38 C101 38.66 101 39.32 101 40 C101.66 40 102.32 40 103 40 C103 40.66 103 41.32 103 42 C103.66 42 104.32 42 105 42 C105 42.66 105 43.32 105 44 C105.66 44 106.32 44 107 44 C107 45.32 107 46.64 107 48 C107.66 48 108.32 48 109 48 C109 48.66 109 49.32 109 50 C109.66 50 110.32 50 111 50 C111 50.66 111 51.32 111 52 C111.66 52 112.32 52 113 52 C113 53.98 113 55.96 113 58 C113.66 58 114.32 58 115 58 C115 58.66 115 59.32 115 60 C115.66 60 116.32 60 117 60 C117 61.32 117 62.64 117 64 C117.66 64 118.32 64 119 64 C119 65.98 119 67.96 119 70 C119.66 70 120.32 70 121 70 C121 71.98 121 73.96 121 76 C121.66 76 122.32 76 123 76 C123 77.98 123 79.96 123 82 C123.66 82 124.32 82 125 82 C125 85.3 125 88.6 125 92 C125.66 92 126.32 92 127 92 C127 95.96 127 99.92 127 104 C127.66 104 128.32 104 129 104 C129 108.62 129 113.24 129 118 C128.34 118 127.68 118 127 118 C127 121.96 127 125.92 127 130 C126.34 130 125.68 130 125 130 C125 133.3 125 136.6 125 140 C124.34 140 123.68 140 123 140 C123 141.98 123 143.96 123 146 C122.34 146 121.68 146 121 146 C121 147.98 121 149.96 121 152 C120.34 152 119.68 152 119 152 C119 153.32 119 154.64 119 156 C118.34 156 117.68 156 117 156 C117 157.32 117 158.64 117 160 C116.34 160 115.68 160 115 160 C115 161.32 115 162.64 115 164 C114.34 164 113.68 164 113 164 C113 165.32 113 166.64 113 168 C112.34 168 111.68 168 111 168 C111 169.32 111 170.64 111 172 C110.34 172 109.68 172 109 172 C109 172.66 109 173.32 109 174 C108.34 174 107.68 174 107 174 C107 175.32 107 176.64 107 178 C106.34 178 105.68 178 105 178 C105 178.66 105 179.32 105 180 C104.34 180 103.68 180 103 180 C103 180.66 103 181.32 103 182 C102.34 182 101.68 182 101 182 C101 182.66 101 183.32 101 184 C100.34 184 99.68 184 99 184 C99 185.32 99 186.64 99 188 C98.34 188 97.68 188 97 188 C97 188.66 97 189.32 97 190 C95.68 190 94.36 190 93 190 C93 190.66 93 191.32 93 192 C92.34 192 91.68 192 91 192 C91 192.66 91 193.32 91 194 C90.34 194 89.68 194 89 194 C89 194.66 89 195.32 89 196 C88.34 196 87.68 196 87 196 C87 196.66 87 197.32 87 198 C86.34 198 85.68 198 85 198 C85 198.66 85 199.32 85 200 C83.68 200 82.36 200 81 200 C81 200.66 81 201.32 81 202 C80.34 202 79.68 202 79 202 C79 202.66 79 203.32 79 204 C77.68 204 76.36 204 75 204 C75 204.66 75 205.32 75 206 C73.68 206 72.36 206 71 206 C71 206.66 71 207.32 71 208 C70.34 208 69.68 208 69 208 C69 208.66 69 209.32 69 210 C67.02 210 65.04 210 63 210 C63 210.66 63 211.32 63 212 C61.68 212 60.36 212 59 212 C59 212.66 59 213.32 59 214 C57.02 214 55.04 214 53 214 C53 214.66 53 215.32 53 216 C51.02 216 49.04 216 47 216 C47 216.66 47 217.32 47 218 C44.36 218 41.72 218 39 218 C39 218.66 39 219.32 39 220 C35.04 220 31.08 220 27 220 C27 220.66 27 221.32 27 222 C18.09 222 9.18 222 0 222 C0 221.34 0 220.68 0 220 C-4.62 220 -9.24 220 -14 220 C-14 219.34 -14 218.68 -14 218 C-16.64 218 -19.28 218 -22 218 C-22 217.34 -22 216.68 -22 216 C-23.98 216 -25.96 216 -28 216 C-28 215.34 -28 214.68 -28 214 C-29.98 214 -31.96 214 -34 214 C-34 213.34 -34 212.68 -34 212 C-35.32 212 -36.64 212 -38 212 C-38 211.34 -38 210.68 -38 210 C-39.32 210 -40.64 210 -42 210 C-42 209.34 -42 208.68 -42 208 C-43.32 208 -44.64 208 -46 208 C-46 207.34 -46 206.68 -46 206 C-47.32 206 -48.64 206 -50 206 C-50 205.34 -50 204.68 -50 204 C-50.66 204 -51.32 204 -52 204 C-52 203.34 -52 202.68 -52 202 C-53.32 202 -54.64 202 -56 202 C-56 201.34 -56 200.68 -56 200 C-56.66 200 -57.32 200 -58 200 C-58 199.34 -58 198.68 -58 198 C-58.66 198 -59.32 198 -60 198 C-60 197.34 -60 196.68 -60 196 C-61.32 196 -62.64 196 -64 196 C-64 195.34 -64 194.68 -64 194 C-64.66 194 -65.32 194 -66 194 C-66 193.34 -66 192.68 -66 192 C-66.66 192 -67.32 192 -68 192 C-68 191.34 -68 190.68 -68 190 C-68.66 190 -69.32 190 -70 190 C-70 189.34 -70 188.68 -70 188 C-70.66 188 -71.32 188 -72 188 C-72 187.34 -72 186.68 -72 186 C-72.66 186 -73.32 186 -74 186 C-74 185.34 -74 184.68 -74 184 C-74.66 184 -75.32 184 -76 184 C-76 183.34 -76 182.68 -76 182 C-76.66 182 -77.32 182 -78 182 C-78 180.68 -78 179.36 -78 178 C-78.66 178 -79.32 178 -80 178 C-80 177.34 -80 176.68 -80 176 C-80.66 176 -81.32 176 -82 176 C-82 174.68 -82 173.36 -82 172 C-82.66 172 -83.32 172 -84 172 C-84 171.34 -84 170.68 -84 170 C-84.66 170 -85.32 170 -86 170 C-86 168.68 -86 167.36 -86 166 C-86.66 166 -87.32 166 -88 166 C-88 164.68 -88 163.36 -88 162 C-88.66 162 -89.32 162 -90 162 C-90 160.68 -90 159.36 -90 158 C-90.66 158 -91.32 158 -92 158 C-92 156.68 -92 155.36 -92 154 C-92.66 154 -93.32 154 -94 154 C-94 152.02 -94 150.04 -94 148 C-94.66 148 -95.32 148 -96 148 C-96 146.02 -96 144.04 -96 142 C-96.66 142 -97.32 142 -98 142 C-98 138.7 -98 135.4 -98 132 C-98.66 132 -99.32 132 -100 132 C-100 130.02 -100 128.04 -100 126 C-100.66 126 -101.32 126 -102 126 C-102 116.1 -102 106.2 -102 96 C-101.34 96 -100.68 96 -100 96 C-100 94.02 -100 92.04 -100 90 C-99.34 90 -98.68 90 -98 90 C-98 86.7 -98 83.4 -98 80 C-97.34 80 -96.68 80 -96 80 C-96 77.36 -96 74.72 -96 72 C-95.34 72 -94.68 72 -94 72 C-94 70.68 -94 69.36 -94 68 C-93.34 68 -92.68 68 -92 68 C-92 66.68 -92 65.36 -92 64 C-91.34 64 -90.68 64 -90 64 C-90 62.02 -90 60.04 -90 58 C-89.34 58 -88.68 58 -88 58 C-88 57.34 -88 56.68 -88 56 C-87.34 56 -86.68 56 -86 56 C-86 54.68 -86 53.36 -86 52 C-85.34 52 -84.68 52 -84 52 C-84 50.68 -84 49.36 -84 48 C-83.34 48 -82.68 48 -82 48 C-82 47.34 -82 46.68 -82 46 C-81.34 46 -80.68 46 -80 46 C-80 45.34 -80 44.68 -80 44 C-79.34 44 -78.68 44 -78 44 C-78 42.68 -78 41.36 -78 40 C-77.34 40 -76.68 40 -76 40 C-76 39.34 -76 38.68 -76 38 C-75.34 38 -74.68 38 -74 38 C-74 37.34 -74 36.68 -74 36 C-73.34 36 -72.68 36 -72 36 C-72 35.34 -72 34.68 -72 34 C-71.34 34 -70.68 34 -70 34 C-70 33.34 -70 32.68 -70 32 C-69.34 32 -68.68 32 -68 32 C-68 31.34 -68 30.68 -68 30 C-67.34 30 -66.68 30 -66 30 C-66 29.34 -66 28.68 -66 28 C-65.34 28 -64.68 28 -64 28 C-64 27.34 -64 26.68 -64 26 C-63.34 26 -62.68 26 -62 26 C-62 25.34 -62 24.68 -62 24 C-60.68 24 -59.36 24 -58 24 C-58 23.34 -58 22.68 -58 22 C-57.34 22 -56.68 22 -56 22 C-56 21.34 -56 20.68 -56 20 C-54.68 20 -53.36 20 -52 20 C-52 19.34 -52 18.68 -52 18 C-51.34 18 -50.68 18 -50 18 C-50 17.34 -50 16.68 -50 16 C-48.68 16 -47.36 16 -46 16 C-46 15.34 -46 14.68 -46 14 C-44.68 14 -43.36 14 -42 14 C-42 13.34 -42 12.68 -42 12 C-40.68 12 -39.36 12 -38 12 C-38 11.34 -38 10.68 -38 10 C-36.68 10 -35.36 10 -34 10 C-34 9.34 -34 8.68 -34 8 C-32.02 8 -30.04 8 -28 8 C-28 7.34 -28 6.68 -28 6 C-26.02 6 -24.04 6 -22 6 C-22 5.34 -22 4.68 -22 4 C-18.7 4 -15.4 4 -12 4 C-12 3.34 -12 2.68 -12 2 C-8.04 2 -4.08 2 0 2 C0 1.34 0 0.68 0 0 Z " fill="#323232" transform="translate(110,8)"/>
<path d="M0 0 C13.3715285 10.59938235 24.14751833 24.78887243 27 42 C28.77481994 62.16115681 25.12785312 80.02162369 12.375 96.1875 C-0.07478159 110.42379734 -17.62735343 119.6522137 -36.56835938 121.21142578 C-56.84195557 122.23538185 -75.16085671 117.64476755 -90.76953125 104.1015625 C-91.87361328 103.06128906 -91.87361328 103.06128906 -93 102 C-93.76699219 101.28585938 -94.53398438 100.57171875 -95.32421875 99.8359375 C-107.45116228 87.52369262 -113.75833828 70.06525045 -114.5 52.9375 C-113.69452586 33.94390023 -105.37612395 18.08278789 -92 5 C-91.36578125 4.33355469 -90.7315625 3.66710937 -90.078125 2.98046875 C-66.07252128 -20.54714729 -26.04369167 -18.36414156 0 0 Z " fill="#F8F5F5" transform="translate(150,49)"/>
<path d="M0 0 C8.25 0 16.5 0 25 0 C25 0.66 25 1.32 25 2 C29.62 2 34.24 2 39 2 C39 2.66 39 3.32 39 4 C41.64 4 44.28 4 47 4 C47 4.66 47 5.32 47 6 C49.64 6 52.28 6 55 6 C55 6.66 55 7.32 55 8 C56.32 8 57.64 8 59 8 C59 8.66 59 9.32 59 10 C60.98 10 62.96 10 65 10 C65 10.66 65 11.32 65 12 C66.32 12 67.64 12 69 12 C69 12.66 69 13.32 69 14 C70.32 14 71.64 14 73 14 C73 14.66 73 15.32 73 16 C73.66 16 74.32 16 75 16 C75 16.66 75 17.32 75 18 C76.32 18 77.64 18 79 18 C79 18.66 79 19.32 79 20 C79.66 20 80.32 20 81 20 C81 20.66 81 21.32 81 22 C82.32 22 83.64 22 85 22 C85 22.66 85 23.32 85 24 C85.66 24 86.32 24 87 24 C87 24.66 87 25.32 87 26 C87.66 26 88.32 26 89 26 C89 26.66 89 27.32 89 28 C89.66 28 90.32 28 91 28 C91 28.66 91 29.32 91 30 C92.32 30 93.64 30 95 30 C95 30.66 95 31.32 95 32 C95.66 32 96.32 32 97 32 C97 32.66 97 33.32 97 34 C97.66 34 98.32 34 99 34 C99 35.32 99 36.64 99 38 C99.66 38 100.32 38 101 38 C101 38.66 101 39.32 101 40 C101.66 40 102.32 40 103 40 C103 40.66 103 41.32 103 42 C103.66 42 104.32 42 105 42 C105 42.66 105 43.32 105 44 C105.66 44 106.32 44 107 44 C107 45.32 107 46.64 107 48 C107.66 48 108.32 48 109 48 C109 48.66 109 49.32 109 50 C109.66 50 110.32 50 111 50 C111 50.66 111 51.32 111 52 C111.66 52 112.32 52 113 52 C113 53.98 113 55.96 113 58 C113.66 58 114.32 58 115 58 C115 58.66 115 59.32 115 60 C115.66 60 116.32 60 117 60 C117 61.32 117 62.64 117 64 C117.66 64 118.32 64 119 64 C119 65.98 119 67.96 119 70 C119.66 70 120.32 70 121 70 C121 71.98 121 73.96 121 76 C121.66 76 122.32 76 123 76 C123 77.98 123 79.96 123 82 C123.66 82 124.32 82 125 82 C125 85.3 125 88.6 125 92 C125.66 92 126.32 92 127 92 C127 95.96 127 99.92 127 104 C127.66 104 128.32 104 129 104 C129 108.62 129 113.24 129 118 C128.34 118 127.68 118 127 118 C127 121.96 127 125.92 127 130 C126.34 130 125.68 130 125 130 C125 133.3 125 136.6 125 140 C124.34 140 123.68 140 123 140 C123 141.98 123 143.96 123 146 C122.34 146 121.68 146 121 146 C121 147.98 121 149.96 121 152 C120.34 152 119.68 152 119 152 C119 153.32 119 154.64 119 156 C118.34 156 117.68 156 117 156 C117 157.32 117 158.64 117 160 C116.34 160 115.68 160 115 160 C115 161.32 115 162.64 115 164 C114.34 164 113.68 164 113 164 C113 165.32 113 166.64 113 168 C112.34 168 111.68 168 111 168 C111 169.32 111 170.64 111 172 C110.34 172 109.68 172 109 172 C109 172.66 109 173.32 109 174 C108.34 174 107.68 174 107 174 C107 175.32 107 176.64 107 178 C106.34 178 105.68 178 105 178 C105 178.66 105 179.32 105 180 C104.34 180 103.68 180 103 180 C103 180.66 103 181.32 103 182 C102.34 182 101.68 182 101 182 C101 182.66 101 183.32 101 184 C100.34 184 99.68 184 99 184 C99 185.32 99 186.64 99 188 C98.34 188 97.68 188 97 188 C97 188.66 97 189.32 97 190 C95.68 190 94.36 190 93 190 C93 190.66 93 191.32 93 192 C92.34 192 91.68 192 91 192 C91 192.66 91 193.32 91 194 C90.34 194 89.68 194 89 194 C89 194.66 89 195.32 89 196 C88.34 196 87.68 196 87 196 C87 196.66 87 197.32 87 198 C86.34 198 85.68 198 85 198 C85 198.66 85 199.32 85 200 C83.68 200 82.36 200 81 200 C81 200.66 81 201.32 81 202 C80.34 202 79.68 202 79 202 C79 202.66 79 203.32 79 204 C77.68 204 76.36 204 75 204 C75 204.66 75 205.32 75 206 C73.68 206 72.36 206 71 206 C71 206.66 71 207.32 71 208 C70.34 208 69.68 208 69 208 C69 208.66 69 209.32 69 210 C67.02 210 65.04 210 63 210 C63 210.66 63 211.32 63 212 C61.68 212 60.36 212 59 212 C59 212.66 59 213.32 59 214 C57.02 214 55.04 214 53 214 C53 214.66 53 215.32 53 216 C51.02 216 49.04 216 47 216 C47 216.66 47 217.32 47 218 C44.36 218 41.72 218 39 218 C39 218.66 39 219.32 39 220 C35.04 220 31.08 220 27 220 C27 220.66 27 221.32 27 222 C18.09 222 9.18 222 0 222 C0 221.34 0 220.68 0 220 C-4.62 220 -9.24 220 -14 220 C-14 219.34 -14 218.68 -14 218 C-16.64 218 -19.28 218 -22 218 C-22 217.34 -22 216.68 -22 216 C-23.98 216 -25.96 216 -28 216 C-28 215.34 -28 214.68 -28 214 C-29.98 214 -31.96 214 -34 214 C-34 213.34 -34 212.68 -34 212 C-35.32 212 -36.64 212 -38 212 C-38 211.34 -38 210.68 -38 210 C-39.32 210 -40.64 210 -42 210 C-42 209.34 -42 208.68 -42 208 C-43.32 208 -44.64 208 -46 208 C-46 207.34 -46 206.68 -46 206 C-47.32 206 -48.64 206 -50 206 C-50 205.34 -50 204.68 -50 204 C-50.66 204 -51.32 204 -52 204 C-52 203.34 -52 202.68 -52 202 C-53.32 202 -54.64 202 -56 202 C-56 201.34 -56 200.68 -56 200 C-56.66 200 -57.32 200 -58 200 C-58 199.34 -58 198.68 -58 198 C-58.66 198 -59.32 198 -60 198 C-60 197.34 -60 196.68 -60 196 C-61.32 196 -62.64 196 -64 196 C-64 195.34 -64 194.68 -64 194 C-64.66 194 -65.32 194 -66 194 C-66 193.34 -66 192.68 -66 192 C-66.66 192 -67.32 192 -68 192 C-68 191.34 -68 190.68 -68 190 C-68.66 190 -69.32 190 -70 190 C-70 189.34 -70 188.68 -70 188 C-70.66 188 -71.32 188 -72 188 C-72 187.34 -72 186.68 -72 186 C-72.66 186 -73.32 186 -74 186 C-74 185.34 -74 184.68 -74 184 C-74.66 184 -75.32 184 -76 184 C-76 183.34 -76 182.68 -76 182 C-76.66 182 -77.32 182 -78 182 C-78 180.68 -78 179.36 -78 178 C-78.66 178 -79.32 178 -80 178 C-80 177.34 -80 176.68 -80 176 C-80.66 176 -81.32 176 -82 176 C-82 174.68 -82 173.36 -82 172 C-82.66 172 -83.32 172 -84 172 C-84 171.34 -84 170.68 -84 170 C-84.66 170 -85.32 170 -86 170 C-86 168.68 -86 167.36 -86 166 C-86.66 166 -87.32 166 -88 166 C-88 164.68 -88 163.36 -88 162 C-88.66 162 -89.32 162 -90 162 C-90 160.68 -90 159.36 -90 158 C-90.66 158 -91.32 158 -92 158 C-92 156.68 -92 155.36 -92 154 C-92.66 154 -93.32 154 -94 154 C-94 152.02 -94 150.04 -94 148 C-94.66 148 -95.32 148 -96 148 C-96 146.02 -96 144.04 -96 142 C-96.66 142 -97.32 142 -98 142 C-98 138.7 -98 135.4 -98 132 C-98.66 132 -99.32 132 -100 132 C-100 130.02 -100 128.04 -100 126 C-100.66 126 -101.32 126 -102 126 C-102 116.1 -102 106.2 -102 96 C-101.34 96 -100.68 96 -100 96 C-100 94.02 -100 92.04 -100 90 C-99.34 90 -98.68 90 -98 90 C-98 86.7 -98 83.4 -98 80 C-97.34 80 -96.68 80 -96 80 C-96 77.36 -96 74.72 -96 72 C-95.34 72 -94.68 72 -94 72 C-94 70.68 -94 69.36 -94 68 C-93.34 68 -92.68 68 -92 68 C-92 66.68 -92 65.36 -92 64 C-91.34 64 -90.68 64 -90 64 C-90 62.02 -90 60.04 -90 58 C-89.34 58 -88.68 58 -88 58 C-88 57.34 -88 56.68 -88 56 C-87.34 56 -86.68 56 -86 56 C-86 54.68 -86 53.36 -86 52 C-85.34 52 -84.68 52 -84 52 C-84 50.68 -84 49.36 -84 48 C-83.34 48 -82.68 48 -82 48 C-82 47.34 -82 46.68 -82 46 C-81.34 46 -80.68 46 -80 46 C-80 45.34 -80 44.68 -80 44 C-79.34 44 -78.68 44 -78 44 C-78 42.68 -78 41.36 -78 40 C-77.34 40 -76.68 40 -76 40 C-76 39.34 -76 38.68 -76 38 C-75.34 38 -74.68 38 -74 38 C-74 37.34 -74 36.68 -74 36 C-73.34 36 -72.68 36 -72 36 C-72 35.34 -72 34.68 -72 34 C-71.34 34 -70.68 34 -70 34 C-70 33.34 -70 32.68 -70 32 C-69.34 32 -68.68 32 -68 32 C-68 31.34 -68 30.68 -68 30 C-67.34 30 -66.68 30 -66 30 C-66 29.34 -66 28.68 -66 28 C-65.34 28 -64.68 28 -64 28 C-64 27.34 -64 26.68 -64 26 C-63.34 26 -62.68 26 -62 26 C-62 25.34 -62 24.68 -62 24 C-60.68 24 -59.36 24 -58 24 C-58 23.34 -58 22.68 -58 22 C-57.34 22 -56.68 22 -56 22 C-56 21.34 -56 20.68 -56 20 C-54.68 20 -53.36 20 -52 20 C-52 19.34 -52 18.68 -52 18 C-51.34 18 -50.68 18 -50 18 C-50 17.34 -50 16.68 -50 16 C-48.68 16 -47.36 16 -46 16 C-46 15.34 -46 14.68 -46 14 C-44.68 14 -43.36 14 -42 14 C-42 13.34 -42 12.68 -42 12 C-40.68 12 -39.36 12 -38 12 C-38 11.34 -38 10.68 -38 10 C-36.68 10 -35.36 10 -34 10 C-34 9.34 -34 8.68 -34 8 C-32.02 8 -30.04 8 -28 8 C-28 7.34 -28 6.68 -28 6 C-26.02 6 -24.04 6 -22 6 C-22 5.34 -22 4.68 -22 4 C-18.7 4 -15.4 4 -12 4 C-12 3.34 -12 2.68 -12 2 C-8.04 2 -4.08 2 0 2 C0 1.34 0 0.68 0 0 Z M-8 10 C-9.37149254 10.15892832 -10.74781491 10.2769631 -12.125 10.375 C-16.55868113 10.82256403 -19.93965205 12.11483845 -24 14 C-25.37144073 14.42823643 -26.74679615 14.84405632 -28.125 15.25 C-38.41908556 18.61097494 -48.51177763 24.51177763 -56.1875 32.1875 C-58.26223839 34.26223839 -60.49020433 35.4941226 -63 37 C-65.33454661 38.83358335 -65.33454661 38.83358335 -67 41 C-67 42.32 -67 43.64 -67 45 C-67.66 45 -68.32 45 -69 45 C-69 45.66 -69 46.32 -69 47 C-69.66 47 -70.32 47 -71 47 C-71 47.66 -71 48.32 -71 49 C-71.66 49 -72.32 49 -73 49 C-73 49.66 -73 50.32 -73 51 C-73.66 51 -74.32 51 -75 51 C-75 52.32 -75 53.64 -75 55 C-75.66 55 -76.32 55 -77 55 C-77 55.66 -77 56.32 -77 57 C-77.66 57 -78.32 57 -79 57 C-79 58.32 -79 59.64 -79 61 C-79.66 61 -80.32 61 -81 61 C-81 62.32 -81 63.64 -81 65 C-81.66 65 -82.32 65 -83 65 C-83 66.32 -83 67.64 -83 69 C-83.66 69 -84.32 69 -85 69 C-85 70.32 -85 71.64 -85 73 C-85.66 73 -86.32 73 -87 73 C-87 74.98 -87 76.96 -87 79 C-87.66 79 -88.32 79 -89 79 C-89 80.98 -89 82.96 -89 85 C-89.66 85 -90.32 85 -91 85 C-91 88.3 -91 91.6 -91 95 C-91.66 95 -92.32 95 -93 95 C-93 105.56 -93 116.12 -93 127 C-92.34 127 -91.68 127 -91 127 C-91 129.64 -91 132.28 -91 135 C-90.34 135 -89.68 135 -89 135 C-89 137.64 -89 140.28 -89 143 C-88.34 143 -87.68 143 -87 143 C-87 144.98 -87 146.96 -87 149 C-86.34 149 -85.68 149 -85 149 C-85 150.32 -85 151.64 -85 153 C-84.34 153 -83.68 153 -83 153 C-83 154.32 -83 155.64 -83 157 C-82.34 157 -81.68 157 -81 157 C-81 158.32 -81 159.64 -81 161 C-80.34 161 -79.68 161 -79 161 C-79 162.32 -79 163.64 -79 165 C-78.34 165 -77.68 165 -77 165 C-77 165.66 -77 166.32 -77 167 C-76.34 167 -75.68 167 -75 167 C-75 168.32 -75 169.64 -75 171 C-74.34 171 -73.68 171 -73 171 C-73 171.66 -73 172.32 -73 173 C-72.34 173 -71.68 173 -71 173 C-71 173.66 -71 174.32 -71 175 C-70.34 175 -69.68 175 -69 175 C-69 175.66 -69 176.32 -69 177 C-68.34 177 -67.68 177 -67 177 C-66.835 177.86625 -66.67 178.7325 -66.5 179.625 C-64.68602604 183.70644141 -62.6846081 185.01159912 -59.08984375 187.48828125 C-57.10408422 188.92470917 -55.49724354 190.41523732 -53.8125 192.1875 C-51.19571759 194.80428241 -49.18233734 196.19594393 -46 198 C-45.40002197 198.3405542 -44.80004395 198.6811084 -44.18188477 199.03198242 C-36.31893689 203.44716044 -28.79745452 207.63428697 -19.90625 209.5625 C-18 210 -18 210 -17 211 C-15.845 211.165 -14.69 211.33 -13.5 211.5 C-10 212 -10 212 -9 213 C-6.49583065 213.21063107 -4.00859919 213.37572077 -1.5 213.5 C5.86486486 213.86486486 5.86486486 213.86486486 7 215 C8.83115883 215.09851171 10.66619933 215.12972629 12.5 215.125 C14.00046875 215.12886719 14.00046875 215.12886719 15.53125 215.1328125 C17.94399622 215.27870382 17.94399622 215.27870382 19 214 C22.2098693 213.73001099 25.41230859 213.55388563 28.62890625 213.39453125 C32.10944277 213.5029448 32.10944277 213.5029448 35 212 C37.33333333 211.66666667 39.66666667 211.33333333 42 211 C42.33 210.67 42.66 210.34 43 210 C43.99 209.9175 44.98 209.835 46 209.75 C50.2054164 209.22324353 53.26556351 207.33186911 56.8671875 205.1953125 C59.47174059 203.73561791 62.17346681 202.94217773 65 202 C67.03131672 200.71488126 69.03277992 199.38123963 71 198 C72.3303125 197.2265625 72.3303125 197.2265625 73.6875 196.4375 C75.9793735 195.13424131 75.9793735 195.13424131 77.5 193.5 C79 192 79 192 81.1875 190.8125 C85.32562637 188.14570745 88.80083476 184.73897476 92 181 C92 180.34 92 179.68 92 179 C92.66 179 93.32 179 94 179 C94 178.34 94 177.68 94 177 C94.66 177 95.32 177 96 177 C96 176.34 96 175.68 96 175 C96.66 175 97.32 175 98 175 C98 173.68 98 172.36 98 171 C98.66 171 99.32 171 100 171 C100 170.34 100 169.68 100 169 C100.66 169 101.32 169 102 169 C102 168.34 102 167.68 102 167 C102.66 167 103.32 167 104 167 C104 165.68 104 164.36 104 163 C104.66 163 105.32 163 106 163 C106 161.68 106 160.36 106 159 C106.66 159 107.32 159 108 159 C108 157.68 108 156.36 108 155 C108.66 155 109.32 155 110 155 C110 153.68 110 152.36 110 151 C110.66 151 111.32 151 112 151 C112 149.68 112 148.36 112 147 C112.66 147 113.32 147 114 147 C114 145.02 114 143.04 114 141 C114.66 141 115.32 141 116 141 C116 138.36 116 135.72 116 133 C116.66 133 117.32 133 118 133 C118 129.04 118 125.08 118 121 C118.66 121 119.32 121 120 121 C120 114.4 120 107.8 120 101 C119.34 101 118.68 101 118 101 C118 97.04 118 93.08 118 89 C117.34 89 116.68 89 116 89 C116 86.36 116 83.72 116 81 C115.34 81 114.68 81 114 81 C114 79.02 114 77.04 114 75 C113.34 75 112.68 75 112 75 C112 73.68 112 72.36 112 71 C111.34 71 110.68 71 110 71 C110 69.68 110 68.36 110 67 C109.34 67 108.68 67 108 67 C108 65.68 108 64.36 108 63 C107.34 63 106.68 63 106 63 C106 61.68 106 60.36 106 59 C105.34 59 104.68 59 104 59 C104 57.68 104 56.36 104 55 C103.34 55 102.68 55 102 55 C102 54.34 102 53.68 102 53 C101.34 53 100.68 53 100 53 C100 51.68 100 50.36 100 49 C99.34 49 98.68 49 98 49 C98 48.34 98 47.68 98 47 C97.34 47 96.68 47 96 47 C96 46.34 96 45.68 96 45 C95.34 45 94.68 45 94 45 C94 44.34 94 43.68 94 43 C93.34 43 92.68 43 92 43 C91.76925781 42.44441406 91.53851563 41.88882813 91.30078125 41.31640625 C89.64808608 38.37331845 87.57991212 36.31556482 85.1875 33.9375 C84.33542969 33.08027344 83.48335937 32.22304688 82.60546875 31.33984375 C80.15887888 29.14268133 77.87360413 27.57407615 75 26 C74.25878906 25.58878906 73.51757812 25.17757812 72.75390625 24.75390625 C72.03074219 24.36074219 71.30757812 23.96757812 70.5625 23.5625 C67.90173138 22.10280321 65.484341 20.63474154 63 18.875 C59.69862444 16.81164027 56.56407934 15.72524322 52.85546875 14.61328125 C51 14 51 14 50 13 C48.845 12.835 47.69 12.67 46.5 12.5 C43 12 43 12 42 11 C40.845 10.835 39.69 10.67 38.5 10.5 C35 10 35 10 34 9 C30.98191937 8.898863 27.98719487 8.86031091 24.96875 8.8671875 C23.60937317 8.86575241 23.60937317 8.86575241 22.22253418 8.86428833 C20.30248953 8.86360647 18.38244259 8.86546118 16.46240234 8.86962891 C13.51264296 8.87497708 10.56303586 8.86968412 7.61328125 8.86328125 C5.75260383 8.86394203 3.8919265 8.86522319 2.03125 8.8671875 C1.14272339 8.86516327 0.25419678 8.86313904 -0.66125488 8.86105347 C-4.64828858 8.474172 -4.64828858 8.474172 -8 10 Z " fill="#000000" transform="translate(110,8)"/>
<path d="M0 0 C1.33278992 0.00303635 1.33278992 0.00303635 2.69250488 0.00613403 C3.5987561 0.00517731 4.50500732 0.00422058 5.4387207 0.00323486 C7.35876535 0.002553 9.27881229 0.00440771 11.19885254 0.00857544 C14.14861192 0.01392361 17.09821902 0.00863066 20.04797363 0.00222778 C21.90865105 0.00288856 23.76932838 0.00416972 25.63000488 0.00613403 C26.51853149 0.0041098 27.40705811 0.00208557 28.32250977 0 C34.546305 0.02399665 34.546305 0.02399665 35.66125488 1.13894653 C36.81625488 1.30394653 37.97125488 1.46894653 39.16125488 1.63894653 C42.66125488 2.13894653 42.66125488 2.13894653 43.66125488 3.13894653 C44.73375488 3.26269653 45.80625488 3.38644653 46.91125488 3.51394653 C50.74105796 4.15224705 52.42304529 5.1343406 55.66125488 7.13894653 C57.94996054 7.92619635 60.2488419 8.62822063 62.57531738 9.29519653 C64.89574962 10.23379834 65.94669933 11.35084436 67.66125488 13.13894653 C69.42621031 14.12797358 69.42621031 14.12797358 71.34875488 14.95144653 C79.66614428 18.98871949 86.63496532 25.16407435 92.66125488 32.13894653 C92.66125488 32.79894653 92.66125488 33.45894653 92.66125488 34.13894653 C93.32125488 34.13894653 93.98125488 34.13894653 94.66125488 34.13894653 C94.66125488 34.79894653 94.66125488 35.45894653 94.66125488 36.13894653 C95.32125488 36.13894653 95.98125488 36.13894653 96.66125488 36.13894653 C96.66125488 36.79894653 96.66125488 37.45894653 96.66125488 38.13894653 C97.32125488 38.13894653 97.98125488 38.13894653 98.66125488 38.13894653 C98.66125488 38.79894653 98.66125488 39.45894653 98.66125488 40.13894653 C99.32125488 40.13894653 99.98125488 40.13894653 100.66125488 40.13894653 C100.66125488 41.45894653 100.66125488 42.77894653 100.66125488 44.13894653 C101.32125488 44.13894653 101.98125488 44.13894653 102.66125488 44.13894653 C102.66125488 44.79894653 102.66125488 45.45894653 102.66125488 46.13894653 C103.32125488 46.13894653 103.98125488 46.13894653 104.66125488 46.13894653 C104.66125488 47.45894653 104.66125488 48.77894653 104.66125488 50.13894653 C105.32125488 50.13894653 105.98125488 50.13894653 106.66125488 50.13894653 C106.66125488 51.45894653 106.66125488 52.77894653 106.66125488 54.13894653 C107.32125488 54.13894653 107.98125488 54.13894653 108.66125488 54.13894653 C108.66125488 55.45894653 108.66125488 56.77894653 108.66125488 58.13894653 C109.32125488 58.13894653 109.98125488 58.13894653 110.66125488 58.13894653 C110.66125488 59.45894653 110.66125488 60.77894653 110.66125488 62.13894653 C111.32125488 62.13894653 111.98125488 62.13894653 112.66125488 62.13894653 C112.66125488 63.45894653 112.66125488 64.77894653 112.66125488 66.13894653 C113.32125488 66.13894653 113.98125488 66.13894653 114.66125488 66.13894653 C114.66125488 68.11894653 114.66125488 70.09894653 114.66125488 72.13894653 C115.32125488 72.13894653 115.98125488 72.13894653 116.66125488 72.13894653 C116.66125488 74.77894653 116.66125488 77.41894653 116.66125488 80.13894653 C117.32125488 80.13894653 117.98125488 80.13894653 118.66125488 80.13894653 C118.66125488 84.09894653 118.66125488 88.05894653 118.66125488 92.13894653 C119.32125488 92.13894653 119.98125488 92.13894653 120.66125488 92.13894653 C120.66125488 98.73894653 120.66125488 105.33894653 120.66125488 112.13894653 C120.00125488 112.13894653 119.34125488 112.13894653 118.66125488 112.13894653 C118.66125488 116.09894653 118.66125488 120.05894653 118.66125488 124.13894653 C118.00125488 124.13894653 117.34125488 124.13894653 116.66125488 124.13894653 C116.66125488 126.77894653 116.66125488 129.41894653 116.66125488 132.13894653 C116.00125488 132.13894653 115.34125488 132.13894653 114.66125488 132.13894653 C114.66125488 134.11894653 114.66125488 136.09894653 114.66125488 138.13894653 C114.00125488 138.13894653 113.34125488 138.13894653 112.66125488 138.13894653 C112.66125488 139.45894653 112.66125488 140.77894653 112.66125488 142.13894653 C112.00125488 142.13894653 111.34125488 142.13894653 110.66125488 142.13894653 C110.66125488 143.45894653 110.66125488 144.77894653 110.66125488 146.13894653 C110.00125488 146.13894653 109.34125488 146.13894653 108.66125488 146.13894653 C108.66125488 147.45894653 108.66125488 148.77894653 108.66125488 150.13894653 C108.00125488 150.13894653 107.34125488 150.13894653 106.66125488 150.13894653 C106.66125488 151.45894653 106.66125488 152.77894653 106.66125488 154.13894653 C106.00125488 154.13894653 105.34125488 154.13894653 104.66125488 154.13894653 C104.66125488 155.45894653 104.66125488 156.77894653 104.66125488 158.13894653 C104.00125488 158.13894653 103.34125488 158.13894653 102.66125488 158.13894653 C102.66125488 158.79894653 102.66125488 159.45894653 102.66125488 160.13894653 C102.00125488 160.13894653 101.34125488 160.13894653 100.66125488 160.13894653 C100.66125488 160.79894653 100.66125488 161.45894653 100.66125488 162.13894653 C100.00125488 162.13894653 99.34125488 162.13894653 98.66125488 162.13894653 C98.66125488 163.45894653 98.66125488 164.77894653 98.66125488 166.13894653 C98.00125488 166.13894653 97.34125488 166.13894653 96.66125488 166.13894653 C96.66125488 166.79894653 96.66125488 167.45894653 96.66125488 168.13894653 C96.00125488 168.13894653 95.34125488 168.13894653 94.66125488 168.13894653 C94.66125488 168.79894653 94.66125488 169.45894653 94.66125488 170.13894653 C94.00125488 170.13894653 93.34125488 170.13894653 92.66125488 170.13894653 C92.4098877 170.71515747 92.15852051 171.29136841 91.89953613 171.88504028 C88.77106679 177.57944663 83.3051556 182.07511472 77.66125488 185.13894653 C76.9767627 185.85437622 76.9767627 185.85437622 76.27844238 186.58425903 C74.49046434 188.30313648 72.84331034 189.16517513 70.59875488 190.20144653 C68.0830652 191.36793952 66.65074462 192.14945679 64.66125488 194.13894653 C63.24258914 194.67129458 61.80111271 195.14440059 60.34875488 195.57644653 C57.58380723 196.44517809 55.5190022 197.22700772 53.03625488 198.76394653 C49.9732447 200.53726822 47.14557901 200.73690913 43.66125488 201.13894653 C43.33125488 201.46894653 43.00125488 201.79894653 42.66125488 202.13894653 C40.32792155 202.47227987 37.99458822 202.8056132 35.66125488 203.13894653 C35.33125488 203.46894653 35.00125488 203.79894653 34.66125488 204.13894653 C31.45138558 204.40893554 28.24894629 204.5850609 25.03234863 204.74441528 C21.55181211 204.63600173 21.55181211 204.63600173 18.66125488 206.13894653 C16.83009605 206.23745824 14.99505555 206.26867282 13.16125488 206.26394653 C12.16094238 206.26652466 11.16062988 206.26910278 10.13000488 206.27175903 C7.66125488 206.13894653 7.66125488 206.13894653 6.66125488 205.13894653 C4.15708553 204.92831547 1.66985407 204.76322576 -0.83874512 204.63894653 C-8.20360998 204.27408167 -8.20360998 204.27408167 -9.33874512 203.13894653 C-10.36999512 203.01519653 -11.40124512 202.89144653 -12.46374512 202.76394653 C-16.54171995 202.10620866 -19.57929427 200.8242176 -23.33874512 199.13894653 C-24.71066483 198.71224709 -26.08594337 198.29625289 -27.46374512 197.88894653 C-38.28066392 194.35726877 -48.57861198 188.09977748 -56.52624512 179.95144653 C-59.12594468 177.08721604 -59.12594468 177.08721604 -62.08874512 175.63894653 C-65.12081372 173.61756746 -65.49392443 171.59503116 -66.33874512 168.13894653 C-66.99874512 168.13894653 -67.65874512 168.13894653 -68.33874512 168.13894653 C-68.33874512 167.47894653 -68.33874512 166.81894653 -68.33874512 166.13894653 C-68.99874512 166.13894653 -69.65874512 166.13894653 -70.33874512 166.13894653 C-70.33874512 165.47894653 -70.33874512 164.81894653 -70.33874512 164.13894653 C-70.99874512 164.13894653 -71.65874512 164.13894653 -72.33874512 164.13894653 C-72.33874512 163.47894653 -72.33874512 162.81894653 -72.33874512 162.13894653 C-72.99874512 162.13894653 -73.65874512 162.13894653 -74.33874512 162.13894653 C-74.33874512 160.81894653 -74.33874512 159.49894653 -74.33874512 158.13894653 C-74.99874512 158.13894653 -75.65874512 158.13894653 -76.33874512 158.13894653 C-76.33874512 157.47894653 -76.33874512 156.81894653 -76.33874512 156.13894653 C-76.99874512 156.13894653 -77.65874512 156.13894653 -78.33874512 156.13894653 C-78.33874512 154.81894653 -78.33874512 153.49894653 -78.33874512 152.13894653 C-78.99874512 152.13894653 -79.65874512 152.13894653 -80.33874512 152.13894653 C-80.33874512 150.81894653 -80.33874512 149.49894653 -80.33874512 148.13894653 C-80.99874512 148.13894653 -81.65874512 148.13894653 -82.33874512 148.13894653 C-82.33874512 146.81894653 -82.33874512 145.49894653 -82.33874512 144.13894653 C-82.99874512 144.13894653 -83.65874512 144.13894653 -84.33874512 144.13894653 C-84.33874512 142.81894653 -84.33874512 141.49894653 -84.33874512 140.13894653 C-84.99874512 140.13894653 -85.65874512 140.13894653 -86.33874512 140.13894653 C-86.33874512 138.15894653 -86.33874512 136.17894653 -86.33874512 134.13894653 C-86.99874512 134.13894653 -87.65874512 134.13894653 -88.33874512 134.13894653 C-88.33874512 131.49894653 -88.33874512 128.85894653 -88.33874512 126.13894653 C-88.99874512 126.13894653 -89.65874512 126.13894653 -90.33874512 126.13894653 C-90.33874512 123.49894653 -90.33874512 120.85894653 -90.33874512 118.13894653 C-90.99874512 118.13894653 -91.65874512 118.13894653 -92.33874512 118.13894653 C-92.33874512 107.57894653 -92.33874512 97.01894653 -92.33874512 86.13894653 C-91.67874512 86.13894653 -91.01874512 86.13894653 -90.33874512 86.13894653 C-90.33874512 82.83894653 -90.33874512 79.53894653 -90.33874512 76.13894653 C-89.67874512 76.13894653 -89.01874512 76.13894653 -88.33874512 76.13894653 C-88.33874512 74.15894653 -88.33874512 72.17894653 -88.33874512 70.13894653 C-87.67874512 70.13894653 -87.01874512 70.13894653 -86.33874512 70.13894653 C-86.33874512 68.15894653 -86.33874512 66.17894653 -86.33874512 64.13894653 C-85.67874512 64.13894653 -85.01874512 64.13894653 -84.33874512 64.13894653 C-84.33874512 62.81894653 -84.33874512 61.49894653 -84.33874512 60.13894653 C-83.67874512 60.13894653 -83.01874512 60.13894653 -82.33874512 60.13894653 C-82.33874512 58.81894653 -82.33874512 57.49894653 -82.33874512 56.13894653 C-81.67874512 56.13894653 -81.01874512 56.13894653 -80.33874512 56.13894653 C-80.33874512 54.81894653 -80.33874512 53.49894653 -80.33874512 52.13894653 C-79.67874512 52.13894653 -79.01874512 52.13894653 -78.33874512 52.13894653 C-78.33874512 50.81894653 -78.33874512 49.49894653 -78.33874512 48.13894653 C-77.67874512 48.13894653 -77.01874512 48.13894653 -76.33874512 48.13894653 C-76.33874512 47.47894653 -76.33874512 46.81894653 -76.33874512 46.13894653 C-75.67874512 46.13894653 -75.01874512 46.13894653 -74.33874512 46.13894653 C-74.33874512 44.81894653 -74.33874512 43.49894653 -74.33874512 42.13894653 C-73.67874512 42.13894653 -73.01874512 42.13894653 -72.33874512 42.13894653 C-72.33874512 41.47894653 -72.33874512 40.81894653 -72.33874512 40.13894653 C-71.67874512 40.13894653 -71.01874512 40.13894653 -70.33874512 40.13894653 C-70.33874512 39.47894653 -70.33874512 38.81894653 -70.33874512 38.13894653 C-69.67874512 38.13894653 -69.01874512 38.13894653 -68.33874512 38.13894653 C-68.33874512 37.47894653 -68.33874512 36.81894653 -68.33874512 36.13894653 C-67.67874512 36.13894653 -67.01874512 36.13894653 -66.33874512 36.13894653 C-66.27687012 35.41707153 -66.21499512 34.69519653 -66.15124512 33.95144653 C-64.54245823 28.38256885 -60.05509615 25.96875715 -55.33874512 23.13894653 C-54.51374512 22.31394653 -53.68874512 21.48894653 -52.83874512 20.63894653 C-44.66359169 12.4637931 -30.41349512 5.99853087 -19.24499512 3.57644653 C-17.3395101 3.31671622 -17.3395101 3.31671622 -16.33874512 2.13894653 C-14.02057423 1.81796903 -11.70095155 1.62673698 -9.36999512 1.42019653 C-6.1473493 0.97398404 -3.63301359 0.01400755 0 0 Z M6.66125488 7.13894653 C3.30016204 7.46421358 -0.06208502 7.65254114 -3.43249512 7.85769653 C-6.22924643 7.81754543 -6.22924643 7.81754543 -7.33874512 9.13894653 C-8.36999512 9.26269653 -9.40124512 9.38644653 -10.46374512 9.51394653 C-14.54171995 10.17168441 -17.57929427 11.45367546 -21.33874512 13.13894653 C-22.79318159 13.60949951 -24.25180742 14.06724335 -25.71374512 14.51394653 C-33.1087108 16.93708469 -39.34148862 20.90607281 -45.41687012 25.70925903 C-47.33874512 27.13894653 -47.33874512 27.13894653 -49.69030762 28.45144653 C-53.05686203 30.59650775 -55.67203382 33.18046399 -58.46374512 36.01394653 C-58.98839355 36.5308606 -59.51304199 37.04777466 -60.05358887 37.58035278 C-64.39664407 41.94539814 -67.44483197 45.88155448 -68.33874512 52.13894653 C-68.99874512 52.13894653 -69.65874512 52.13894653 -70.33874512 52.13894653 C-70.33874512 52.79894653 -70.33874512 53.45894653 -70.33874512 54.13894653 C-70.99874512 54.13894653 -71.65874512 54.13894653 -72.33874512 54.13894653 C-72.33874512 55.45894653 -72.33874512 56.77894653 -72.33874512 58.13894653 C-72.99874512 58.13894653 -73.65874512 58.13894653 -74.33874512 58.13894653 C-74.33874512 59.45894653 -74.33874512 60.77894653 -74.33874512 62.13894653 C-74.99874512 62.13894653 -75.65874512 62.13894653 -76.33874512 62.13894653 C-76.33874512 63.45894653 -76.33874512 64.77894653 -76.33874512 66.13894653 C-76.99874512 66.13894653 -77.65874512 66.13894653 -78.33874512 66.13894653 C-78.33874512 68.11894653 -78.33874512 70.09894653 -78.33874512 72.13894653 C-78.99874512 72.13894653 -79.65874512 72.13894653 -80.33874512 72.13894653 C-80.33874512 74.11894653 -80.33874512 76.09894653 -80.33874512 78.13894653 C-80.99874512 78.13894653 -81.65874512 78.13894653 -82.33874512 78.13894653 C-82.33874512 80.77894653 -82.33874512 83.41894653 -82.33874512 86.13894653 C-82.99874512 86.13894653 -83.65874512 86.13894653 -84.33874512 86.13894653 C-84.33874512 96.03894653 -84.33874512 105.93894653 -84.33874512 116.13894653 C-83.67874512 116.13894653 -83.01874512 116.13894653 -82.33874512 116.13894653 C-82.33874512 119.43894653 -82.33874512 122.73894653 -82.33874512 126.13894653 C-81.67874512 126.13894653 -81.01874512 126.13894653 -80.33874512 126.13894653 C-80.33874512 128.11894653 -80.33874512 130.09894653 -80.33874512 132.13894653 C-79.67874512 132.13894653 -79.01874512 132.13894653 -78.33874512 132.13894653 C-78.33874512 134.11894653 -78.33874512 136.09894653 -78.33874512 138.13894653 C-77.67874512 138.13894653 -77.01874512 138.13894653 -76.33874512 138.13894653 C-76.33874512 139.45894653 -76.33874512 140.77894653 -76.33874512 142.13894653 C-75.67874512 142.13894653 -75.01874512 142.13894653 -74.33874512 142.13894653 C-74.33874512 143.45894653 -74.33874512 144.77894653 -74.33874512 146.13894653 C-73.67874512 146.13894653 -73.01874512 146.13894653 -72.33874512 146.13894653 C-72.33874512 147.45894653 -72.33874512 148.77894653 -72.33874512 150.13894653 C-71.67874512 150.13894653 -71.01874512 150.13894653 -70.33874512 150.13894653 C-70.33874512 150.79894653 -70.33874512 151.45894653 -70.33874512 152.13894653 C-69.67874512 152.13894653 -69.01874512 152.13894653 -68.33874512 152.13894653 C-68.29749512 152.79894653 -68.25624512 153.45894653 -68.21374512 154.13894653 C-65.44627337 163.62742108 -55.63522795 172.36811914 -47.33874512 177.13894653 C-46.33874512 178.13894653 -45.33874512 179.13894653 -44.33874512 180.13894653 C-42.68824322 181.16540708 -41.01814115 182.1604749 -39.33874512 183.13894653 C-38.36679199 183.70613403 -37.39483887 184.27332153 -36.39343262 184.85769653 C-30.25957884 188.29386032 -24.5973742 190.92680873 -17.74499512 192.52175903 C-15.33874512 193.13894653 -15.33874512 193.13894653 -11.96374512 194.76394653 C-7.31422657 196.52755702 -2.97419544 196.69169265 1.96594238 196.92800903 C4.66125488 197.13894653 4.66125488 197.13894653 5.66125488 198.13894653 C8.17261593 198.23869686 10.65028903 198.27776836 13.16125488 198.26394653 C13.86379395 198.26781372 14.56633301 198.27168091 15.29016113 198.27566528 C18.76554297 198.58285584 18.76554297 198.58285584 21.66125488 197.13894653 C25.02234773 196.81367948 28.38459479 196.62535193 31.75500488 196.42019653 C34.5517562 196.46034763 34.5517562 196.46034763 35.66125488 195.13894653 C36.63062988 195.03582153 37.60000488 194.93269653 38.59875488 194.82644653 C42.70367802 194.29029331 46.23081103 192.85099165 50.02844238 191.24832153 C53.49243148 189.78871782 57.01186015 188.48294168 60.53234863 187.16629028 C62.75992092 186.09133338 63.99542088 184.93881316 65.66125488 183.13894653 C67.31196884 182.11282705 68.98095494 181.1158651 70.66125488 180.13894653 C76.52239824 176.64701346 81.09972355 172.06771733 85.91125488 167.26394653 C86.72594238 166.47375122 87.54062988 165.68355591 88.38000488 164.86941528 C93.97438071 159.38785058 93.97438071 159.38785058 96.66125488 152.13894653 C97.32125488 152.13894653 97.98125488 152.13894653 98.66125488 152.13894653 C98.66125488 150.81894653 98.66125488 149.49894653 98.66125488 148.13894653 C99.32125488 148.13894653 99.98125488 148.13894653 100.66125488 148.13894653 C100.66125488 146.81894653 100.66125488 145.49894653 100.66125488 144.13894653 C101.32125488 144.13894653 101.98125488 144.13894653 102.66125488 144.13894653 C102.66125488 142.81894653 102.66125488 141.49894653 102.66125488 140.13894653 C103.32125488 140.13894653 103.98125488 140.13894653 104.66125488 140.13894653 C104.66125488 138.81894653 104.66125488 137.49894653 104.66125488 136.13894653 C105.32125488 136.13894653 105.98125488 136.13894653 106.66125488 136.13894653 C106.66125488 134.15894653 106.66125488 132.17894653 106.66125488 130.13894653 C107.32125488 130.13894653 107.98125488 130.13894653 108.66125488 130.13894653 C108.66125488 127.49894653 108.66125488 124.85894653 108.66125488 122.13894653 C109.32125488 122.13894653 109.98125488 122.13894653 110.66125488 122.13894653 C110.66125488 118.17894653 110.66125488 114.21894653 110.66125488 110.13894653 C111.32125488 110.13894653 111.98125488 110.13894653 112.66125488 110.13894653 C112.66125488 104.85894653 112.66125488 99.57894653 112.66125488 94.13894653 C112.00125488 94.13894653 111.34125488 94.13894653 110.66125488 94.13894653 C110.66125488 89.51894653 110.66125488 84.89894653 110.66125488 80.13894653 C110.00125488 80.13894653 109.34125488 80.13894653 108.66125488 80.13894653 C108.66125488 78.15894653 108.66125488 76.17894653 108.66125488 74.13894653 C108.00125488 74.13894653 107.34125488 74.13894653 106.66125488 74.13894653 C106.66125488 72.15894653 106.66125488 70.17894653 106.66125488 68.13894653 C106.00125488 68.13894653 105.34125488 68.13894653 104.66125488 68.13894653 C104.66125488 66.81894653 104.66125488 65.49894653 104.66125488 64.13894653 C104.00125488 64.13894653 103.34125488 64.13894653 102.66125488 64.13894653 C102.66125488 62.81894653 102.66125488 61.49894653 102.66125488 60.13894653 C102.00125488 60.13894653 101.34125488 60.13894653 100.66125488 60.13894653 C100.66125488 58.81894653 100.66125488 57.49894653 100.66125488 56.13894653 C100.00125488 56.13894653 99.34125488 56.13894653 98.66125488 56.13894653 C98.66125488 54.81894653 98.66125488 53.49894653 98.66125488 52.13894653 C98.00125488 52.13894653 97.34125488 52.13894653 96.66125488 52.13894653 C96.42189209 51.24909058 96.1825293 50.35923462 95.93591309 49.44241333 C94.53277353 45.80596794 93.02120055 44.00950339 90.26672363 41.28347778 C89.39338379 40.41400513 88.52004395 39.54453247 87.62023926 38.64871216 C86.70564941 37.7586145 85.79105957 36.86851685 84.84875488 35.95144653 C83.9457666 35.04974731 83.04277832 34.1480481 82.11242676 33.21902466 C78.14013766 29.29927134 74.54028927 25.89203345 69.66125488 23.13894653 C68.75375488 22.52019653 67.84625488 21.90144653 66.91125488 21.26394653 C60.04778928 16.77629595 53.87583396 13.63465154 45.84875488 11.71707153 C43.66125488 11.13894653 43.66125488 11.13894653 42.66125488 10.13894653 C41.50625488 9.97394653 40.35125488 9.80894653 39.16125488 9.63894653 C35.66125488 9.13894653 35.66125488 9.13894653 34.66125488 8.13894653 C32.15708553 7.92831547 29.66985407 7.76322576 27.16125488 7.63894653 C19.79639002 7.27408167 19.79639002 7.27408167 18.66125488 6.13894653 C16.83009605 6.04043482 14.99505555 6.00922024 13.16125488 6.01394653 C11.66078613 6.01007935 11.66078613 6.01007935 10.13000488 6.00613403 C7.71725866 5.86024271 7.71725866 5.86024271 6.66125488 7.13894653 Z " fill="#393939" transform="translate(109.3387451171875,16.861053466796875)"/>
<path d="M0 0 C1.33278992 0.00303635 1.33278992 0.00303635 2.69250488 0.00613403 C3.5987561 0.00517731 4.50500732 0.00422058 5.4387207 0.00323486 C7.35876535 0.002553 9.27881229 0.00440771 11.19885254 0.00857544 C14.14861192 0.01392361 17.09821902 0.00863066 20.04797363 0.00222778 C21.90865105 0.00288856 23.76932838 0.00416972 25.63000488 0.00613403 C26.51853149 0.0041098 27.40705811 0.00208557 28.32250977 0 C34.546305 0.02399665 34.546305 0.02399665 35.66125488 1.13894653 C36.81625488 1.30394653 37.97125488 1.46894653 39.16125488 1.63894653 C42.66125488 2.13894653 42.66125488 2.13894653 43.66125488 3.13894653 C44.73375488 3.26269653 45.80625488 3.38644653 46.91125488 3.51394653 C50.74105796 4.15224705 52.42304529 5.1343406 55.66125488 7.13894653 C57.94996054 7.92619635 60.2488419 8.62822063 62.57531738 9.29519653 C64.89574962 10.23379834 65.94669933 11.35084436 67.66125488 13.13894653 C69.42621031 14.12797358 69.42621031 14.12797358 71.34875488 14.95144653 C79.66614428 18.98871949 86.63496532 25.16407435 92.66125488 32.13894653 C92.66125488 32.79894653 92.66125488 33.45894653 92.66125488 34.13894653 C93.32125488 34.13894653 93.98125488 34.13894653 94.66125488 34.13894653 C94.66125488 34.79894653 94.66125488 35.45894653 94.66125488 36.13894653 C95.32125488 36.13894653 95.98125488 36.13894653 96.66125488 36.13894653 C96.66125488 36.79894653 96.66125488 37.45894653 96.66125488 38.13894653 C97.32125488 38.13894653 97.98125488 38.13894653 98.66125488 38.13894653 C98.66125488 38.79894653 98.66125488 39.45894653 98.66125488 40.13894653 C99.32125488 40.13894653 99.98125488 40.13894653 100.66125488 40.13894653 C100.66125488 41.45894653 100.66125488 42.77894653 100.66125488 44.13894653 C101.32125488 44.13894653 101.98125488 44.13894653 102.66125488 44.13894653 C102.66125488 44.79894653 102.66125488 45.45894653 102.66125488 46.13894653 C103.32125488 46.13894653 103.98125488 46.13894653 104.66125488 46.13894653 C104.66125488 47.45894653 104.66125488 48.77894653 104.66125488 50.13894653 C105.32125488 50.13894653 105.98125488 50.13894653 106.66125488 50.13894653 C106.66125488 51.45894653 106.66125488 52.77894653 106.66125488 54.13894653 C107.32125488 54.13894653 107.98125488 54.13894653 108.66125488 54.13894653 C108.66125488 55.45894653 108.66125488 56.77894653 108.66125488 58.13894653 C109.32125488 58.13894653 109.98125488 58.13894653 110.66125488 58.13894653 C110.66125488 59.45894653 110.66125488 60.77894653 110.66125488 62.13894653 C111.32125488 62.13894653 111.98125488 62.13894653 112.66125488 62.13894653 C112.66125488 63.45894653 112.66125488 64.77894653 112.66125488 66.13894653 C113.32125488 66.13894653 113.98125488 66.13894653 114.66125488 66.13894653 C114.66125488 68.11894653 114.66125488 70.09894653 114.66125488 72.13894653 C115.32125488 72.13894653 115.98125488 72.13894653 116.66125488 72.13894653 C116.66125488 74.77894653 116.66125488 77.41894653 116.66125488 80.13894653 C117.32125488 80.13894653 117.98125488 80.13894653 118.66125488 80.13894653 C118.66125488 84.09894653 118.66125488 88.05894653 118.66125488 92.13894653 C119.32125488 92.13894653 119.98125488 92.13894653 120.66125488 92.13894653 C120.66125488 98.73894653 120.66125488 105.33894653 120.66125488 112.13894653 C120.00125488 112.13894653 119.34125488 112.13894653 118.66125488 112.13894653 C118.66125488 116.09894653 118.66125488 120.05894653 118.66125488 124.13894653 C118.00125488 124.13894653 117.34125488 124.13894653 116.66125488 124.13894653 C116.66125488 126.77894653 116.66125488 129.41894653 116.66125488 132.13894653 C116.00125488 132.13894653 115.34125488 132.13894653 114.66125488 132.13894653 C114.66125488 134.11894653 114.66125488 136.09894653 114.66125488 138.13894653 C114.00125488 138.13894653 113.34125488 138.13894653 112.66125488 138.13894653 C112.66125488 139.45894653 112.66125488 140.77894653 112.66125488 142.13894653 C112.00125488 142.13894653 111.34125488 142.13894653 110.66125488 142.13894653 C110.66125488 143.45894653 110.66125488 144.77894653 110.66125488 146.13894653 C110.00125488 146.13894653 109.34125488 146.13894653 108.66125488 146.13894653 C108.66125488 147.45894653 108.66125488 148.77894653 108.66125488 150.13894653 C108.00125488 150.13894653 107.34125488 150.13894653 106.66125488 150.13894653 C106.66125488 151.45894653 106.66125488 152.77894653 106.66125488 154.13894653 C106.00125488 154.13894653 105.34125488 154.13894653 104.66125488 154.13894653 C104.66125488 155.45894653 104.66125488 156.77894653 104.66125488 158.13894653 C104.00125488 158.13894653 103.34125488 158.13894653 102.66125488 158.13894653 C102.66125488 158.79894653 102.66125488 159.45894653 102.66125488 160.13894653 C102.00125488 160.13894653 101.34125488 160.13894653 100.66125488 160.13894653 C100.66125488 160.79894653 100.66125488 161.45894653 100.66125488 162.13894653 C100.00125488 162.13894653 99.34125488 162.13894653 98.66125488 162.13894653 C98.66125488 163.45894653 98.66125488 164.77894653 98.66125488 166.13894653 C98.00125488 166.13894653 97.34125488 166.13894653 96.66125488 166.13894653 C96.66125488 166.79894653 96.66125488 167.45894653 96.66125488 168.13894653 C96.00125488 168.13894653 95.34125488 168.13894653 94.66125488 168.13894653 C94.66125488 168.79894653 94.66125488 169.45894653 94.66125488 170.13894653 C94.00125488 170.13894653 93.34125488 170.13894653 92.66125488 170.13894653 C92.4098877 170.71515747 92.15852051 171.29136841 91.89953613 171.88504028 C88.77106679 177.57944663 83.3051556 182.07511472 77.66125488 185.13894653 C76.9767627 185.85437622 76.9767627 185.85437622 76.27844238 186.58425903 C74.49046434 188.30313648 72.84331034 189.16517513 70.59875488 190.20144653 C68.0830652 191.36793952 66.65074462 192.14945679 64.66125488 194.13894653 C63.24258914 194.67129458 61.80111271 195.14440059 60.34875488 195.57644653 C57.58380723 196.44517809 55.5190022 197.22700772 53.03625488 198.76394653 C49.9732447 200.53726822 47.14557901 200.73690913 43.66125488 201.13894653 C43.33125488 201.46894653 43.00125488 201.79894653 42.66125488 202.13894653 C40.32792155 202.47227987 37.99458822 202.8056132 35.66125488 203.13894653 C35.33125488 203.46894653 35.00125488 203.79894653 34.66125488 204.13894653 C31.45138558 204.40893554 28.24894629 204.5850609 25.03234863 204.74441528 C21.55181211 204.63600173 21.55181211 204.63600173 18.66125488 206.13894653 C16.83009605 206.23745824 14.99505555 206.26867282 13.16125488 206.26394653 C12.16094238 206.26652466 11.16062988 206.26910278 10.13000488 206.27175903 C7.66125488 206.13894653 7.66125488 206.13894653 6.66125488 205.13894653 C4.15708553 204.92831547 1.66985407 204.76322576 -0.83874512 204.63894653 C-8.20360998 204.27408167 -8.20360998 204.27408167 -9.33874512 203.13894653 C-10.36999512 203.01519653 -11.40124512 202.89144653 -12.46374512 202.76394653 C-16.54171995 202.10620866 -19.57929427 200.8242176 -23.33874512 199.13894653 C-24.71066483 198.71224709 -26.08594337 198.29625289 -27.46374512 197.88894653 C-38.28066392 194.35726877 -48.57861198 188.09977748 -56.52624512 179.95144653 C-59.12594468 177.08721604 -59.12594468 177.08721604 -62.08874512 175.63894653 C-65.12081372 173.61756746 -65.49392443 171.59503116 -66.33874512 168.13894653 C-66.99874512 168.13894653 -67.65874512 168.13894653 -68.33874512 168.13894653 C-68.33874512 167.47894653 -68.33874512 166.81894653 -68.33874512 166.13894653 C-68.99874512 166.13894653 -69.65874512 166.13894653 -70.33874512 166.13894653 C-70.33874512 165.47894653 -70.33874512 164.81894653 -70.33874512 164.13894653 C-70.99874512 164.13894653 -71.65874512 164.13894653 -72.33874512 164.13894653 C-72.33874512 163.47894653 -72.33874512 162.81894653 -72.33874512 162.13894653 C-72.99874512 162.13894653 -73.65874512 162.13894653 -74.33874512 162.13894653 C-74.33874512 160.81894653 -74.33874512 159.49894653 -74.33874512 158.13894653 C-74.99874512 158.13894653 -75.65874512 158.13894653 -76.33874512 158.13894653 C-76.33874512 157.47894653 -76.33874512 156.81894653 -76.33874512 156.13894653 C-76.99874512 156.13894653 -77.65874512 156.13894653 -78.33874512 156.13894653 C-78.33874512 154.81894653 -78.33874512 153.49894653 -78.33874512 152.13894653 C-78.99874512 152.13894653 -79.65874512 152.13894653 -80.33874512 152.13894653 C-80.33874512 150.81894653 -80.33874512 149.49894653 -80.33874512 148.13894653 C-80.99874512 148.13894653 -81.65874512 148.13894653 -82.33874512 148.13894653 C-82.33874512 146.81894653 -82.33874512 145.49894653 -82.33874512 144.13894653 C-82.99874512 144.13894653 -83.65874512 144.13894653 -84.33874512 144.13894653 C-84.33874512 142.81894653 -84.33874512 141.49894653 -84.33874512 140.13894653 C-84.99874512 140.13894653 -85.65874512 140.13894653 -86.33874512 140.13894653 C-86.33874512 138.15894653 -86.33874512 136.17894653 -86.33874512 134.13894653 C-86.99874512 134.13894653 -87.65874512 134.13894653 -88.33874512 134.13894653 C-88.33874512 131.49894653 -88.33874512 128.85894653 -88.33874512 126.13894653 C-88.99874512 126.13894653 -89.65874512 126.13894653 -90.33874512 126.13894653 C-90.33874512 123.49894653 -90.33874512 120.85894653 -90.33874512 118.13894653 C-90.99874512 118.13894653 -91.65874512 118.13894653 -92.33874512 118.13894653 C-92.33874512 107.57894653 -92.33874512 97.01894653 -92.33874512 86.13894653 C-91.67874512 86.13894653 -91.01874512 86.13894653 -90.33874512 86.13894653 C-90.33874512 82.83894653 -90.33874512 79.53894653 -90.33874512 76.13894653 C-89.67874512 76.13894653 -89.01874512 76.13894653 -88.33874512 76.13894653 C-88.33874512 74.15894653 -88.33874512 72.17894653 -88.33874512 70.13894653 C-87.67874512 70.13894653 -87.01874512 70.13894653 -86.33874512 70.13894653 C-86.33874512 68.15894653 -86.33874512 66.17894653 -86.33874512 64.13894653 C-85.67874512 64.13894653 -85.01874512 64.13894653 -84.33874512 64.13894653 C-84.33874512 62.81894653 -84.33874512 61.49894653 -84.33874512 60.13894653 C-83.67874512 60.13894653 -83.01874512 60.13894653 -82.33874512 60.13894653 C-82.33874512 58.81894653 -82.33874512 57.49894653 -82.33874512 56.13894653 C-81.67874512 56.13894653 -81.01874512 56.13894653 -80.33874512 56.13894653 C-80.33874512 54.81894653 -80.33874512 53.49894653 -80.33874512 52.13894653 C-79.67874512 52.13894653 -79.01874512 52.13894653 -78.33874512 52.13894653 C-78.33874512 50.81894653 -78.33874512 49.49894653 -78.33874512 48.13894653 C-77.67874512 48.13894653 -77.01874512 48.13894653 -76.33874512 48.13894653 C-76.33874512 47.47894653 -76.33874512 46.81894653 -76.33874512 46.13894653 C-75.67874512 46.13894653 -75.01874512 46.13894653 -74.33874512 46.13894653 C-74.33874512 44.81894653 -74.33874512 43.49894653 -74.33874512 42.13894653 C-73.67874512 42.13894653 -73.01874512 42.13894653 -72.33874512 42.13894653 C-72.33874512 41.47894653 -72.33874512 40.81894653 -72.33874512 40.13894653 C-71.67874512 40.13894653 -71.01874512 40.13894653 -70.33874512 40.13894653 C-70.33874512 39.47894653 -70.33874512 38.81894653 -70.33874512 38.13894653 C-69.67874512 38.13894653 -69.01874512 38.13894653 -68.33874512 38.13894653 C-68.33874512 37.47894653 -68.33874512 36.81894653 -68.33874512 36.13894653 C-67.67874512 36.13894653 -67.01874512 36.13894653 -66.33874512 36.13894653 C-66.27687012 35.41707153 -66.21499512 34.69519653 -66.15124512 33.95144653 C-64.54245823 28.38256885 -60.05509615 25.96875715 -55.33874512 23.13894653 C-54.51374512 22.31394653 -53.68874512 21.48894653 -52.83874512 20.63894653 C-44.66359169 12.4637931 -30.41349512 5.99853087 -19.24499512 3.57644653 C-17.3395101 3.31671622 -17.3395101 3.31671622 -16.33874512 2.13894653 C-14.02057423 1.81796903 -11.70095155 1.62673698 -9.36999512 1.42019653 C-6.1473493 0.97398404 -3.63301359 0.01400755 0 0 Z M-25.33874512 9.13894653 C-26.73910532 9.64491609 -28.15687059 10.10559713 -29.58874512 10.51394653 C-37.84953523 13.15794735 -44.56879666 17.83316252 -51.33874512 23.13894653 C-52.44282715 23.90851685 -52.44282715 23.90851685 -53.56921387 24.69363403 C-54.15315918 25.17058716 -54.73710449 25.64754028 -55.33874512 26.13894653 C-55.33874512 26.79894653 -55.33874512 27.45894653 -55.33874512 28.13894653 C-55.93171387 28.2330481 -56.52468262 28.32714966 -57.13562012 28.42410278 C-59.83017153 29.29839872 -60.80197268 30.40614971 -62.58874512 32.57644653 C-63.10952637 33.19390747 -63.63030762 33.81136841 -64.16687012 34.44754028 C-65.52858048 36.06999156 -65.52858048 36.06999156 -65.33874512 38.13894653 C-65.99874512 38.13894653 -66.65874512 38.13894653 -67.33874512 38.13894653 C-72.21581149 43.39795184 -75.83300506 49.92552107 -79.33874512 56.13894653 C-80.00583496 57.31070435 -80.00583496 57.31070435 -80.68640137 58.50613403 C-92.13464538 79.86218555 -93.44112322 107.21046734 -86.70446777 130.3142395 C-83.25588572 140.97726496 -78.72393593 151.59981965 -71.33874512 160.13894653 C-69.78406147 162.27361578 -68.23974253 164.41500974 -66.70593262 166.56472778 C-66.25476074 167.08421997 -65.80358887 167.60371216 -65.33874512 168.13894653 C-64.67874512 168.13894653 -64.01874512 168.13894653 -63.33874512 168.13894653 C-62.84374512 170.11894653 -62.84374512 170.11894653 -62.33874512 172.13894653 C-61.34874512 172.13894653 -60.35874512 172.13894653 -59.33874512 172.13894653 C-59.33874512 172.79894653 -59.33874512 173.45894653 -59.33874512 174.13894653 C-58.67874512 174.13894653 -58.01874512 174.13894653 -57.33874512 174.13894653 C-57.33874512 174.79894653 -57.33874512 175.45894653 -57.33874512 176.13894653 C-53.81387833 179.78571073 -49.74219081 182.65495153 -45.33874512 185.13894653 C-43.97749512 186.06707153 -43.97749512 186.06707153 -42.58874512 187.01394653 C-36.54806724 190.96362053 -30.64550811 194.31413899 -23.71154785 196.4055481 C-21.49655531 197.09016972 -19.32117612 197.84702107 -17.13562012 198.61941528 C-12.50245836 200.16634265 -7.91213447 201.09895186 -3.08874512 201.82644653 C-2.26245605 201.95309692 -1.43616699 202.07974731 -0.58483887 202.2102356 C15.37937189 204.51300472 32.82578905 203.88234009 47.66125488 197.13894653 C49.04514068 196.68600766 50.43357904 196.24683712 51.82531738 195.81863403 C56.64599962 194.2320121 61.01259836 192.10237444 65.47375488 189.70144653 C66.2104541 189.3192395 66.94715332 188.93703247 67.70617676 188.54324341 C71.64412991 186.44798198 74.57325069 184.40111149 77.66125488 181.13894653 C78.42695801 180.69550903 79.19266113 180.25207153 79.98156738 179.79519653 C89.93576086 173.64275042 98.11862869 163.25030078 103.66125488 153.13894653 C104.54877441 151.65007935 104.54877441 151.65007935 105.45422363 150.13113403 C117.84793848 128.62050742 121.36494989 102.17868659 115.20910645 78.087677 C111.61397765 65.2996565 106.23798895 52.3767872 97.66125488 42.13894653 C96.91875488 41.23982544 96.91875488 41.23982544 96.16125488 40.32254028 C92.44628354 35.99808145 88.53863481 31.88339322 84.53625488 27.82644653 C84.03352051 27.31074097 83.53078613 26.7950354 83.01281738 26.26370239 C80.08943055 23.33310325 77.30005205 21.09540468 73.66125488 19.13894653 C73.05990723 18.80741577 72.45855957 18.47588501 71.83898926 18.13430786 C63.65158306 13.63850953 55.49284814 9.24475241 46.66125488 6.13894653 C45.67125488 5.76769653 44.68125488 5.39644653 43.66125488 5.01394653 C35.87725951 2.74361455 28.12140263 1.73235068 20.03625488 1.38894653 C18.60164917 1.32755493 18.60164917 1.32755493 17.13806152 1.2649231 C3.20962398 0.81279946 -13.30502484 1.68391007 -25.33874512 9.13894653 Z " fill="#555555" transform="translate(109.3387451171875,16.861053466796875)"/>
<path d="M0 0 C0.99 0.495 0.99 0.495 2 1 C2 1.66 2 2.32 2 3 C2.61875 3.144375 3.2375 3.28875 3.875 3.4375 C6 4 6 4 8 5 C8 5.66 8 6.32 8 7 C8.58934326 7.10328613 9.17868652 7.20657227 9.78588867 7.31298828 C12.36277075 8.11256333 13.51039585 9.1099725 15.42578125 10.9921875 C16.05427979 11.60932617 16.68277832 12.22646484 17.33032227 12.86230469 C18.31150024 13.85858887 18.31150024 13.85858887 19.3125 14.875 C19.98531006 15.5546582 20.65812012 16.23431641 21.35131836 16.93457031 C26.44610064 22.19473944 30.49193568 27.55721151 34 34 C34.51691406 34.84433594 35.03382813 35.68867187 35.56640625 36.55859375 C47.79887944 57.19131169 50.44495325 83.97431809 44.54785156 107.046875 C41.16664137 119.10110028 36.17205111 131.36463395 28 141 C27.34 141 26.68 141 26 141 C25.70029297 142.03253906 25.70029297 142.03253906 25.39453125 143.0859375 C23.5060772 147.03211879 20.79908502 149.59975197 17.6875 152.625 C17.11837891 153.19734375 16.54925781 153.7696875 15.96289062 154.359375 C11.82718855 158.44284662 7.88200188 161.91074039 2 163 C2 163.66 2 164.32 2 165 C-20.74193548 178 -20.74193548 178 -32 178 C-32 178.66 -32 179.32 -32 180 C-39.66545601 181.36058807 -47.09854369 182.1944009 -54.875 182.1875 C-55.90741821 182.1884668 -55.90741821 182.1884668 -56.96069336 182.18945312 C-61.70682301 182.13925971 -66.29977296 181.65719058 -71 181 C-71 180.34 -71 179.68 -71 179 C-72.6396875 178.8453125 -72.6396875 178.8453125 -74.3125 178.6875 C-84.64733946 177.35925479 -93.74018847 173.62990577 -103 169 C-103 168.34 -103 167.68 -103 167 C-103.556875 166.896875 -104.11375 166.79375 -104.6875 166.6875 C-111.34155731 164.70926675 -117.85246041 159.5419467 -123 155 C-123 154.34 -123 153.68 -123 153 C-123.66 153 -124.32 153 -125 153 C-125 152.34 -125 151.68 -125 151 C-125.66 151 -126.32 151 -127 151 C-127 150.34 -127 149.68 -127 149 C-127.66 149 -128.32 149 -129 149 C-129 148.34 -129 147.68 -129 147 C-129.66 147 -130.32 147 -131 147 C-135.24151487 142.4263183 -138.39237563 136.86059566 -141.5078125 131.4921875 C-142.61058736 129.65038028 -143.79452375 127.85662346 -145.01953125 126.09375 C-156.99091239 107.39289426 -157.34218022 81.28820914 -152.90917969 60.24169922 C-149.98806742 47.83310888 -144.72364624 37.14449059 -137 27 C-136.219568 25.79784387 -135.44712984 24.59040774 -134.6875 23.375 C-134.130625 22.59125 -133.57375 21.8075 -133 21 C-132.34 21 -131.68 21 -131 21 C-131 20.34 -131 19.68 -131 19 C-130.34 19 -129.68 19 -129 19 C-129 18.34 -129 17.68 -129 17 C-128.34 17 -127.68 17 -127 17 C-127 16.34 -127 15.68 -127 15 C-126.34 15 -125.68 15 -125 15 C-125 14.34 -125 13.68 -125 13 C-124.34 13 -123.68 13 -123 13 C-123 12.34 -123 11.68 -123 11 C-122.34 11 -121.68 11 -121 11 C-121 10.34 -121 9.68 -121 9 C-116.64705882 5 -116.64705882 5 -113 5 C-113 4.34 -113 3.68 -113 3 C-80.07135127 -22.74740087 -34.66232881 -18.49810066 0 0 Z M-61 -12 C-64.36109285 -11.67473295 -67.7233399 -11.4864054 -71.09375 -11.28125 C-73.89050132 -11.3214011 -73.89050132 -11.3214011 -75 -10 C-76.03125 -9.87625 -77.0625 -9.7525 -78.125 -9.625 C-82.20297483 -8.96726212 -85.24054915 -7.68527107 -89 -6 C-90.45443647 -5.52944702 -91.91306231 -5.07170318 -93.375 -4.625 C-100.76996568 -2.20186184 -107.0027435 1.76712627 -113.078125 6.5703125 C-115 8 -115 8 -117.3515625 9.3125 C-120.71811692 11.45756122 -123.3332887 14.04151746 -126.125 16.875 C-126.64964844 17.39191406 -127.17429687 17.90882812 -127.71484375 18.44140625 C-132.05789895 22.80645161 -135.10608685 26.74260795 -136 33 C-136.66 33 -137.32 33 -138 33 C-138 33.66 -138 34.32 -138 35 C-138.66 35 -139.32 35 -140 35 C-140 36.32 -140 37.64 -140 39 C-140.66 39 -141.32 39 -142 39 C-142 40.32 -142 41.64 -142 43 C-142.66 43 -143.32 43 -144 43 C-144 44.32 -144 45.64 -144 47 C-144.66 47 -145.32 47 -146 47 C-146 48.98 -146 50.96 -146 53 C-146.66 53 -147.32 53 -148 53 C-148 54.98 -148 56.96 -148 59 C-148.66 59 -149.32 59 -150 59 C-150 61.64 -150 64.28 -150 67 C-150.66 67 -151.32 67 -152 67 C-152 76.9 -152 86.8 -152 97 C-151.34 97 -150.68 97 -150 97 C-150 100.3 -150 103.6 -150 107 C-149.34 107 -148.68 107 -148 107 C-148 108.98 -148 110.96 -148 113 C-147.34 113 -146.68 113 -146 113 C-146 114.98 -146 116.96 -146 119 C-145.34 119 -144.68 119 -144 119 C-144 120.32 -144 121.64 -144 123 C-143.34 123 -142.68 123 -142 123 C-142 124.32 -142 125.64 -142 127 C-141.34 127 -140.68 127 -140 127 C-140 128.32 -140 129.64 -140 131 C-139.34 131 -138.68 131 -138 131 C-138 131.66 -138 132.32 -138 133 C-137.34 133 -136.68 133 -136 133 C-135.95875 133.66 -135.9175 134.32 -135.875 135 C-133.10752826 144.48847455 -123.29648283 153.2291726 -115 158 C-114 159 -113 160 -112 161 C-110.3494981 162.02646055 -108.67939603 163.02152836 -107 164 C-106.02804688 164.5671875 -105.05609375 165.134375 -104.0546875 165.71875 C-97.92083372 169.15491379 -92.25862908 171.7878622 -85.40625 173.3828125 C-83 174 -83 174 -79.625 175.625 C-74.97548145 177.38861048 -70.63545032 177.55274611 -65.6953125 177.7890625 C-63 178 -63 178 -62 179 C-59.48863896 179.09975032 -57.01096585 179.13882183 -54.5 179.125 C-53.79746094 179.12886719 -53.09492187 179.13273438 -52.37109375 179.13671875 C-48.89571192 179.44390931 -48.89571192 179.44390931 -46 178 C-42.63890715 177.67473295 -39.2766601 177.4864054 -35.90625 177.28125 C-33.10949868 177.3214011 -33.10949868 177.3214011 -32 176 C-31.030625 175.896875 -30.06125 175.79375 -29.0625 175.6875 C-24.95757687 175.15134677 -21.43044385 173.71204511 -17.6328125 172.109375 C-14.16882341 170.64977129 -10.64939474 169.34399514 -7.12890625 168.02734375 C-4.90133397 166.95238685 -3.665834 165.79986663 -2 164 C-0.34928604 162.97388051 1.31970006 161.97691857 3 161 C8.86114336 157.50806693 13.43846867 152.9287708 18.25 148.125 C19.0646875 147.33480469 19.879375 146.54460937 20.71875 145.73046875 C26.31312583 140.24890404 26.31312583 140.24890404 29 133 C29.66 133 30.32 133 31 133 C31 131.68 31 130.36 31 129 C31.66 129 32.32 129 33 129 C33 127.68 33 126.36 33 125 C33.66 125 34.32 125 35 125 C35 123.68 35 122.36 35 121 C35.66 121 36.32 121 37 121 C37 119.68 37 118.36 37 117 C37.66 117 38.32 117 39 117 C39 115.02 39 113.04 39 111 C39.66 111 40.32 111 41 111 C41 108.36 41 105.72 41 103 C41.66 103 42.32 103 43 103 C43 99.04 43 95.08 43 91 C43.66 91 44.32 91 45 91 C45 85.72 45 80.44 45 75 C44.34 75 43.68 75 43 75 C43 70.38 43 65.76 43 61 C42.34 61 41.68 61 41 61 C41 59.02 41 57.04 41 55 C40.34 55 39.68 55 39 55 C39 53.02 39 51.04 39 49 C38.34 49 37.68 49 37 49 C37 47.68 37 46.36 37 45 C36.34 45 35.68 45 35 45 C35 43.68 35 42.36 35 41 C34.34 41 33.68 41 33 41 C33 39.68 33 38.36 33 37 C32.34 37 31.68 37 31 37 C31 35.68 31 34.36 31 33 C30.34 33 29.68 33 29 33 C28.76063721 32.11014404 28.52127441 31.22028809 28.2746582 30.3034668 C26.87151864 26.66702141 25.35994566 24.87055686 22.60546875 22.14453125 C21.73212891 21.27505859 20.85878906 20.40558594 19.95898438 19.50976562 C19.04439453 18.61966797 18.12980469 17.72957031 17.1875 16.8125 C16.28451172 15.91080078 15.38152344 15.00910156 14.45117188 14.08007812 C10.47888278 10.16032481 6.87903439 6.75308692 2 4 C1.0925 3.38125 0.185 2.7625 -0.75 2.125 C-7.6134656 -2.36265058 -13.78542092 -5.504295 -21.8125 -7.421875 C-24 -8 -24 -8 -25 -9 C-26.155 -9.165 -27.31 -9.33 -28.5 -9.5 C-32 -10 -32 -10 -33 -11 C-35.50416935 -11.21063107 -37.99140081 -11.37572077 -40.5 -11.5 C-47.86486486 -11.86486486 -47.86486486 -11.86486486 -49 -13 C-50.83115883 -13.09851171 -52.66619933 -13.12972629 -54.5 -13.125 C-56.00046875 -13.12886719 -56.00046875 -13.12886719 -57.53125 -13.1328125 C-59.94399622 -13.27870382 -59.94399622 -13.27870382 -61 -12 Z " fill="#272727" transform="translate(177,36)"/>
<path d="M0 0 C3 0.875 3 0.875 4.875 2.8125 C6 4.875 6 4.875 6 6.875 C6.70125 7.04 7.4025 7.205 8.125 7.375 C12.47350729 9.64378641 15.01823863 12.3643243 17 16.875 C17.49052224 21.58805904 17.35792188 26.15573369 17 30.875 C17.64066406 30.3696875 18.28132813 29.864375 18.94140625 29.34375 C26.06397817 23.99385992 26.06397817 23.99385992 30.9375 23.375 C34 23.875 34 23.875 37 24.875 C36.82774538 31.78084443 35.41875491 35.54983383 31 40.875 C30.67 40.215 30.34 39.555 30 38.875 C30.474375 38.38 30.94875 37.885 31.4375 37.375 C33.62167907 33.88031349 33.65913911 30.96533064 34 26.875 C29.56406258 26.96552934 26.7814061 27.57273673 23.375 30.5 C19.66486898 34.49998501 18.30014611 39.19199477 16.78393555 44.30615234 C15.22157557 49.53141472 13.02278048 53.38401186 10 57.875 C9.64687542 60.90081228 9.64687542 60.90081228 11.609375 62.48828125 C12.31578125 63.04902344 13.0221875 63.60976562 13.75 64.1875 C19.26919906 68.81776612 22.4687165 73.05549969 23.2734375 80.35546875 C23.57460788 88.38281771 21.78725024 93.67409379 16.390625 99.66015625 C10.15344648 105.48247656 3.29623146 107.62627886 -5.19140625 107.34375 C-11.3123348 106.32217639 -16.06200213 103.25397942 -19.95703125 98.47265625 C-21.41138021 96.31667758 -22.7530264 94.15604927 -24 91.875 C-23.01 91.875 -22.02 91.875 -21 91.875 C-19.77986576 93.35894705 -18.56120039 94.84417078 -17.35546875 96.33984375 C-14.39770211 99.68970626 -11.45894443 100.69945856 -7.078125 101.2265625 C0.63282392 101.57047806 6.76740373 100.62474809 13 95.875 C16.99132538 91.88367462 18.30686967 87.96788171 18.5625 82.375 C18.20174951 75.32574034 15.67975214 70.49110897 11 65.3125 C8.38666895 62.60795236 8.38666895 62.60795236 6.0390625 63.05859375 C3.80981482 63.95114694 2.25283642 65.00572166 0.375 66.5 C-3.54583624 69.55443422 -7.59057632 72.37433999 -11.703125 75.1640625 C-14.05560174 76.91641762 -16.06590247 78.66837054 -18 80.875 C-18.33498301 83.54334966 -18.33498301 83.54334966 -18 85.875 C-16.68 86.535 -15.36 87.195 -14 87.875 C-14 88.535 -14 89.195 -14 89.875 C-16.23288365 89.49002006 -17.83656302 88.98006663 -19.75 87.75 C-21.86186233 84.5822065 -21.61065005 82.59996528 -21 78.875 C-15.8821001 70.10410633 -5.44158446 64.01128227 2.5078125 57.96875 C7.77445988 53.72339166 10.4230526 49.08764063 13 42.875 C13.37769531 42.03324219 13.75539062 41.19148438 14.14453125 40.32421875 C15.42730489 36.65162026 14.98151035 33.59071776 14 29.875 C12.55269907 27.55280342 12.55269907 27.55280342 11 25.875 C11 25.215 11 24.555 11 23.875 C10.4225 23.58625 9.845 23.2975 9.25 23 C7 21.875 7 21.875 5.1875 20.75 C1.87234066 19.42393626 -0.4456729 19.46032851 -4 19.875 C-8.00709608 21.65756848 -11.13214965 23.87154804 -14 27.1875 C-15.65265042 31.62899799 -15.84693857 35.93202327 -13.9375 40.3125 C-12.53317509 44.1509881 -12.9065912 47.95634028 -14 51.875 C-15.55078125 53.6484375 -15.55078125 53.6484375 -17 54.875 C-16.9175 53.59625 -16.835 52.3175 -16.75 51 C-16.79889931 43.21278563 -19.54020156 37.0555849 -24.75 31.3125 C-28.74310669 27.5820977 -31.60235146 26.875 -37 26.875 C-36.79503906 27.46667969 -36.59007813 28.05835937 -36.37890625 28.66796875 C-35.0002429 32.71160816 -33.68249153 36.64355249 -33 40.875 C-37.26409596 36.02275287 -40 31.43804288 -40 24.875 C-35.33319328 23.31939776 -31.16596569 22.82327473 -26.69921875 24.9921875 C-24.74224287 26.22268388 -22.8537009 27.49458444 -21 28.875 C-21.04640625 28.30652344 -21.0928125 27.73804687 -21.140625 27.15234375 C-21.4129549 21.32642901 -20.71169813 17.45200199 -17 12.875 C-14.11678678 9.89927726 -11.25865932 7.36638377 -7 6.875 C-6.896875 6.09125 -6.79375 5.3075 -6.6875 4.5 C-5.65042102 0.54024388 -3.97924648 -0.16580194 0 0 Z " fill="#E46A58" transform="translate(111,38.125)"/>
<path d="M0 0 C13.48262424 10.5495215 24.6857562 26.23787223 27.421875 43.45703125 C27.71543739 47.39895138 27.74676229 51.31798702 27.734375 55.26953125 C27.75854492 56.79416992 27.75854492 56.79416992 27.78320312 58.34960938 C27.78971173 68.56161068 25.39902728 77.46957483 20.734375 86.51953125 C20.38624756 87.20144531 20.03812012 87.88335937 19.67944336 88.5859375 C10.57923284 105.87367721 -4.51577122 117.29007577 -22.78515625 123.66796875 C-44.06653678 129.6803308 -65.34847457 127.33925823 -84.7734375 116.796875 C-90.85781569 113.23973602 -95.72710987 108.51605315 -100.578125 103.45703125 C-101.26519531 102.75449219 -101.95226562 102.05195313 -102.66015625 101.328125 C-115.27948306 87.71904707 -119.94117231 70.69501648 -119.796875 52.44140625 C-118.72575814 32.93177777 -110.0603129 16.49329249 -95.90234375 3.28515625 C-69.32363868 -20.11108816 -28.22176595 -20.77479053 0 0 Z M-98.578125 11.45703125 C-99.24199219 12.08996094 -99.90585938 12.72289063 -100.58984375 13.375 C-111.28328707 24.260685 -116.34640527 40.36418262 -117.015625 55.26953125 C-116.40030661 73.80292118 -109.07498927 91.52878095 -95.8515625 104.546875 C-80.57018817 118.63106967 -62.33422227 124.17402506 -41.9375 123.76171875 C-23.31882622 122.96339858 -5.67486546 114.63184468 7.421875 101.45703125 C21.16209853 85.42294736 25.83027397 67.69674477 24.64501953 46.94921875 C24.14640351 41.3804306 22.69259262 36.53911355 20.421875 31.45703125 C19.9475 30.38453125 19.473125 29.31203125 18.984375 28.20703125 C10.59430792 11.1042022 -3.86807171 -0.79628178 -21.578125 -7.54296875 C-50.32227474 -16.30309057 -77.70718229 -10.18334714 -98.578125 11.45703125 Z " fill="#D85E4B" transform="translate(152.578125,46.54296875)"/>
<path d="M0 0 C0.33 0 0.66 0 1 0 C0.65672977 5.49232375 -0.7708367 8.71223328 -3.94140625 13.203125 C-5.2537965 15.08321235 -5.2537965 15.08321235 -5 18 C-3.3663888 19.69963737 -3.3663888 19.69963737 -1.25 21.3125 C4.26919906 25.94276612 7.4687165 30.18049969 8.2734375 37.48046875 C8.57460788 45.50781771 6.78725024 50.79909379 1.390625 56.78515625 C-4.84655352 62.60747656 -11.70376854 64.75127886 -20.19140625 64.46875 C-26.3123348 63.44717639 -31.06200213 60.37897942 -34.95703125 55.59765625 C-36.41138021 53.44167758 -37.7530264 51.28104927 -39 49 C-38.01 49 -37.02 49 -36 49 C-34.77986576 50.48394705 -33.56120039 51.96917078 -32.35546875 53.46484375 C-29.39770211 56.81470626 -26.45894443 57.82445856 -22.078125 58.3515625 C-14.36717608 58.69547806 -8.23259627 57.74974809 -2 53 C1.99132538 49.00867462 3.30686967 45.09288171 3.5625 39.5 C3.20174951 32.45074034 0.67975214 27.61610897 -4 22.4375 C-6.61333105 19.73295236 -6.61333105 19.73295236 -8.9609375 20.18359375 C-11.19018518 21.07614694 -12.74716358 22.13072166 -14.625 23.625 C-18.54583624 26.67943422 -22.59057632 29.49933999 -26.703125 32.2890625 C-29.05560174 34.04141762 -31.06590247 35.79337054 -33 38 C-33.33498301 40.66834966 -33.33498301 40.66834966 -33 43 C-31.68 43.66 -30.36 44.32 -29 45 C-29 45.66 -29 46.32 -29 47 C-31.23288365 46.61502006 -32.83656302 46.10506663 -34.75 44.875 C-36.86186233 41.7072065 -36.61065005 39.72496528 -36 36 C-31.63214302 28.51450597 -23.36792802 23.42740325 -16.61376953 18.24267578 C-9.96664309 13.12408673 -5.4271085 8.13852096 -1 1 C-0.67 0.67 -0.34 0.34 0 0 Z " fill="#E2614E" transform="translate(126,81)"/>
<path d="M0 0 C0.99 0.495 0.99 0.495 2 1 C2.45703125 3.046875 2.45703125 3.046875 2.8125 5.75 C5.31609184 20.81066968 12.9309553 33.05129987 22 45 C22.763125 46.03125 23.52625 47.0625 24.3125 48.125 C28.47369461 52.57651052 33.20931015 56.24985358 38 60 C38.86238281 60.71349609 38.86238281 60.71349609 39.7421875 61.44140625 C56.84518475 74.866816 82.89236028 81.16087785 104.11132812 78.76123047 C116.90415556 77.07460009 129.70474352 74.49308157 141 68 C142.20076172 67.319375 142.20076172 67.319375 143.42578125 66.625 C150.05689295 62.76104417 156.51669299 58.67076965 161.875 53.125 C162.57625 52.42375 163.2775 51.7225 164 51 C164.66 51 165.32 51 166 51 C166.26296875 50.41476563 166.5259375 49.82953125 166.796875 49.2265625 C168.05390368 46.90024319 169.43839018 45.29269508 171.25 43.375 C175.20897342 38.93963559 178.14317408 34.19783604 181 29 C181.4434375 28.20722656 181.886875 27.41445312 182.34375 26.59765625 C185.84597211 20.00963477 187.98887907 13.16812935 190 6 C190.33 6 190.66 6 191 6 C191 8.64 191 11.28 191 14 C190.34 14 189.68 14 189 14 C189 15.98 189 17.96 189 20 C188.34 20 187.68 20 187 20 C187 21.32 187 22.64 187 24 C186.34 24 185.68 24 185 24 C185 25.32 185 26.64 185 28 C184.34 28 183.68 28 183 28 C183 29.32 183 30.64 183 32 C182.34 32 181.68 32 181 32 C181 33.32 181 34.64 181 36 C180.34 36 179.68 36 179 36 C178.76063721 36.88985596 178.52127441 37.77971191 178.2746582 38.6965332 C176.87151864 42.33297859 175.35994566 44.12944314 172.60546875 46.85546875 C171.73212891 47.72494141 170.85878906 48.59441406 169.95898438 49.49023438 C169.04439453 50.38033203 168.12980469 51.27042969 167.1875 52.1875 C166.28451172 53.08919922 165.38152344 53.99089844 164.45117188 54.91992188 C160.47904162 58.83951844 156.87970798 62.24858506 152 65 C151.01 65.66 150.02 66.32 149 67 C148.01 67.66 147.02 68.32 146 69 C144.8553125 69.7734375 144.8553125 69.7734375 143.6875 70.5625 C140.6253858 72.20037504 137.57045554 73.20258849 134.265625 74.2421875 C131.73543091 75.0471492 131.73543091 75.0471492 128.375 76.625 C124.8722773 78.05203518 121.7384471 78.55138635 118 79 C117.67 79.33 117.34 79.66 117 80 C113.63890715 80.32526705 110.2766601 80.5135946 106.90625 80.71875 C104.10949868 80.6785989 104.10949868 80.6785989 103 82 C100.48863896 82.09975032 98.01096585 82.13882183 95.5 82.125 C94.79746094 82.12886719 94.09492187 82.13273437 93.37109375 82.13671875 C88.12661378 82.12661378 88.12661378 82.12661378 87 81 C84.96074582 80.84040619 82.9181533 80.72273626 80.875 80.625 C75.57483743 80.25629304 71.81353118 79.31762612 67 77 C65.29672364 76.56312067 63.58763193 76.14862985 61.875 75.75 C51.78063315 73.09797239 43.07980787 67.44997538 35 61 C33.68785615 60.06200159 32.37534778 59.12451292 31.0625 58.1875 C23.51651486 52.52055464 15.39721682 45.78051775 14 36 C13.34 36 12.68 36 12 36 C12 35.34 12 34.68 12 34 C11.34 34 10.68 34 10 34 C10 32.68 10 31.36 10 30 C9.34 30 8.68 30 8 30 C8 28.68 8 27.36 8 26 C7.34 26 6.68 26 6 26 C6 24.68 6 23.36 6 22 C5.34 22 4.68 22 4 22 C4 20.02 4 18.04 4 16 C3.34 16 2.68 16 2 16 C2 14.02 2 12.04 2 10 C1.34 10 0.68 10 0 10 C0 6.7 0 3.4 0 0 Z " fill="#3C3C3C" transform="translate(27,133)"/>
<path d="M0 0 C0.98871094 -0.02578125 1.97742188 -0.0515625 2.99609375 -0.078125 C3.84300781 0.03015625 4.68992187 0.1384375 5.5625 0.25 C6.5525 1.735 6.5525 1.735 7.5625 3.25 C6.91667969 3.21519531 6.27085937 3.18039063 5.60546875 3.14453125 C-8.42108412 2.74157966 -22.35791969 5.20891175 -35.4375 10.25 C-36.4275 10.58 -37.4175 10.91 -38.4375 11.25 C-38.4375 11.91 -38.4375 12.57 -38.4375 13.25 C-39.23671875 13.518125 -40.0359375 13.78625 -40.859375 14.0625 C-58.35999067 20.30685113 -72.70705787 31.62628143 -81.4375 48.25 C-82.56032965 50.86266834 -83.59032715 53.46764869 -84.515625 56.15625 C-85.4375 58.25 -85.4375 58.25 -86.91015625 59.67578125 C-89.01494721 61.84516937 -89.65453055 64.09302057 -90.625 66.9375 C-90.96917969 67.93136719 -91.31335938 68.92523438 -91.66796875 69.94921875 C-91.92191406 70.70847656 -92.17585938 71.46773438 -92.4375 72.25 C-92.7675 72.25 -93.0975 72.25 -93.4375 72.25 C-93.4375 70.27 -93.4375 68.29 -93.4375 66.25 C-92.7775 66.25 -92.1175 66.25 -91.4375 66.25 C-91.4375 64.27 -91.4375 62.29 -91.4375 60.25 C-90.7775 60.25 -90.1175 60.25 -89.4375 60.25 C-89.4375 58.93 -89.4375 57.61 -89.4375 56.25 C-88.7775 56.25 -88.1175 56.25 -87.4375 56.25 C-87.4375 54.93 -87.4375 53.61 -87.4375 52.25 C-86.7775 52.25 -86.1175 52.25 -85.4375 52.25 C-85.4375 50.93 -85.4375 49.61 -85.4375 48.25 C-84.7775 48.25 -84.1175 48.25 -83.4375 48.25 C-83.4375 47.59 -83.4375 46.93 -83.4375 46.25 C-82.7775 46.25 -82.1175 46.25 -81.4375 46.25 C-81.375625 45.26 -81.375625 45.26 -81.3125 44.25 C-78.41492822 34.31546819 -67.17643765 24.16481085 -58.4375 19.25 C-56.98923828 18.27740234 -56.98923828 18.27740234 -55.51171875 17.28515625 C-47.62636416 12.06499139 -39.73851003 7.87075085 -30.484375 5.7578125 C-28.45727223 5.44178416 -28.45727223 5.44178416 -27.4375 4.25 C-25.10416667 3.91666667 -22.77083333 3.58333333 -20.4375 3.25 C-20.1075 2.92 -19.7775 2.59 -19.4375 2.25 C-16.07640715 1.92473295 -12.7141601 1.7364054 -9.34375 1.53125 C-5.87189853 1.19526437 -3.76172289 0.05870049 0 0 Z M-95.4375 72.25 C-94.7775 72.25 -94.1175 72.25 -93.4375 72.25 C-93.3125 75.125 -93.3125 75.125 -93.4375 78.25 C-94.0975 78.91 -94.7575 79.57 -95.4375 80.25 C-95.4375 77.61 -95.4375 74.97 -95.4375 72.25 Z M-97.4375 80.25 C-96.7775 80.25 -96.1175 80.25 -95.4375 80.25 C-95.4375 90.15 -95.4375 100.05 -95.4375 110.25 C-96.0975 110.25 -96.7575 110.25 -97.4375 110.25 C-97.4375 100.35 -97.4375 90.45 -97.4375 80.25 Z " fill="#3C3C3C" transform="translate(122.4375,22.75)"/>
<path d="M0 0 C4.48401339 2.00805817 7.491753 4.76221014 10 9 C10.49091712 11.87036233 10.3088867 14.06557638 10 17 C7.44524038 15.77371538 5.23445783 14.47943133 2.875 12.875 C-1.61607158 10.33615011 -5.9706949 9.92960017 -11 11 C-13.32121136 12.30593023 -15.21484519 13.73392747 -17.2109375 15.4921875 C-19.04578479 17.03858718 -20.82234397 18.01190057 -23 19 C-23.37964752 14.25440599 -23.48228172 10.93011475 -21.25 6.625 C-19.24443881 4.28517861 -17.6773715 2.50602147 -15 1 C-13.68 1 -12.36 1 -11 1 C-10.34 1.99 -9.68 2.98 -9 4 C-5.56769552 3.73606499 -5.56769552 3.73606499 -2 3 C-1.34 2.01 -0.68 1.02 0 0 Z " fill="#F9F5F5" transform="translate(116,46)"/>
<path d="M0 0 C3.68136167 0.08499536 4.7434863 0.130428 7.6875 2.5 C9.33035598 5.85714048 9.83390216 8.72600254 10.125 12.4375 C9.135 12.4375 8.145 12.4375 7.125 12.4375 C7.021875 11.32375 6.91875 10.21 6.8125 9.0625 C6.585625 7.86625 6.35875 6.67 6.125 5.4375 C2.41000878 2.96083918 0.51592112 2.88863486 -3.875 3.4375 C-6.19588662 5.68585892 -6.78940778 7.32062589 -7.03515625 10.52734375 C-6.81270989 15.73258863 -5.32586185 18.94005227 -1.93359375 22.83203125 C5.04319171 28.27312959 11.29232536 29.01852185 20 29.0625 C22.06001703 29.08793231 24.11995581 29.12137376 26.1796875 29.1640625 C27.08187012 29.17002441 27.98405273 29.17598633 28.91357422 29.18212891 C31.125 29.4375 31.125 29.4375 33.125 31.4375 C33.68472414 35.47929745 33.66481948 39.39436223 33.125 43.4375 C30.69012249 46.49848887 29.31776228 47.17567413 25.5625 48 C23.125 47.4375 23.125 47.4375 20.75 45.25 C19.125 42.4375 19.125 42.4375 19.375 39.625 C19.6225 38.903125 19.87 38.18125 20.125 37.4375 C20.785 37.7675 21.445 38.0975 22.125 38.4375 C22.125 40.4175 22.125 42.3975 22.125 44.4375 C24.765 44.1075 27.405 43.7775 30.125 43.4375 C30.125 39.4775 30.125 35.5175 30.125 31.4375 C28.72507813 31.47230469 27.32515625 31.50710937 25.8828125 31.54296875 C24.00522046 31.57113263 22.12761528 31.59842997 20.25 31.625 C19.3321875 31.65013672 18.414375 31.67527344 17.46875 31.70117188 C8.3940522 31.79703136 0.24806877 30.44403921 -6.46875 23.96484375 C-10.40807231 19.68630202 -11.4200723 16.39701991 -11.23828125 10.65625 C-10.20612664 4.35233797 -6.20193508 0.15642863 0 0 Z " fill="#E36451" transform="translate(70.875,119.5625)"/>
<path d="M0 0 C1.81242052 -0.02687279 3.62495233 -0.04633715 5.4375 -0.0625 C6.44683594 -0.07410156 7.45617187 -0.08570312 8.49609375 -0.09765625 C11 0 11 0 12 1 C13.03125 1.12375 14.0625 1.2475 15.125 1.375 C19.20297483 2.03273788 22.24054915 3.31472893 26 5 C27.51690337 5.49146607 29.03798299 5.97018574 30.5625 6.4375 C34.54392087 7.73314882 37.60550923 9.51070677 41 12 C41.99 12.66 42.98 13.32 44 14 C44.99 14.66 45.98 15.32 47 16 C47.86109375 16.51820312 48.7221875 17.03640625 49.609375 17.5703125 C54.34351961 20.73323606 58.23695715 24.8684298 62.25 28.875 C63.0646875 29.66519531 63.879375 30.45539062 64.71875 31.26953125 C71.97176233 38.48651868 71.97176233 38.48651868 73 44 C73.66 44 74.32 44 75 44 C75 45.32 75 46.64 75 48 C75.66 48 76.32 48 77 48 C77 49.32 77 50.64 77 52 C77.66 52 78.32 52 79 52 C79 53.32 79 54.64 79 56 C79.66 56 80.32 56 81 56 C81 57.32 81 58.64 81 60 C81.66 60 82.32 60 83 60 C83 61.98 83 63.96 83 66 C83.66 66 84.32 66 85 66 C85 67.98 85 69.96 85 72 C85.66 72 86.32 72 87 72 C87 76.62 87 81.24 87 86 C86.67 86 86.34 86 86 86 C85.85304688 85.030625 85.70609375 84.06125 85.5546875 83.0625 C83.2647249 68.99685191 79.17662091 55.8464429 71 44 C70.53980469 43.3296875 70.07960938 42.659375 69.60546875 41.96875 C63.48292066 33.46802207 56.65166538 25.92979313 48 20 C47.22914063 19.42507812 46.45828125 18.85015625 45.6640625 18.2578125 C32.22587451 8.38053236 16.26993317 3.84078198 0 1 C0 0.67 0 0.34 0 0 Z " fill="#3C3C3C" transform="translate(133,25)"/>
<path d="M0 0 C0.33 0.66 0.66 1.32 1 2 C1.721875 2.20625 2.44375 2.4125 3.1875 2.625 C7.5567347 4.7610703 10.04056755 7.54014701 12 12 C12.49052224 16.71305904 12.35792188 21.28073369 12 26 C12.64066406 25.4946875 13.28132813 24.989375 13.94140625 24.46875 C21.06397817 19.11885992 21.06397817 19.11885992 25.9375 18.5 C29 19 29 19 32 20 C31.82774538 26.90584443 30.41875491 30.67483383 26 36 C25.67 35.34 25.34 34.68 25 34 C25.474375 33.505 25.94875 33.01 26.4375 32.5 C28.62167907 29.00531349 28.65913911 26.09033064 29 22 C24.3429799 22.09504123 21.7388858 22.76849073 18.25 25.9375 C14.43237834 30.05538404 13.14181007 34.59543234 12 40 C11.01 40 10.02 40 9 40 C8.67 39.34 8.34 38.68 8 38 C8.33 37.29875 8.66 36.5975 9 35.875 C10.34049142 32.02108715 10.03491995 28.91791125 9 25 C7.55269907 22.67780342 7.55269907 22.67780342 6 21 C6 20.34 6 19.68 6 19 C5.4225 18.71125 4.845 18.4225 4.25 18.125 C2 17 2 17 0.1875 15.875 C-3.93799943 14.22480023 -7.79493745 14.58976594 -11.9375 16 C-12.618125 16.33 -13.29875 16.66 -14 17 C-13.505 15.515 -13.505 15.515 -13 14 C-9.25696885 12.12848442 -5.07499312 12.45270165 -1 13 C1.95709028 14.32747101 4.42986077 16.04123338 7 18 C7.99 18.66 8.98 19.32 10 20 C9.62935813 15.39477472 9.26858857 11.40321429 6.0859375 7.8828125 C4.6521283 6.70232648 3.18390398 5.56200875 1.6796875 4.47265625 C1.12539062 3.98667969 0.57109375 3.50070313 0 3 C0 2.01 0 1.02 0 0 Z " fill="#E46A58" transform="translate(116,43)"/>
<path d="M0 0 C0 3.97641265 -1.49232449 5.50356149 -3.75 8.75 C-4.48347656 9.83023438 -5.21695313 10.91046875 -5.97265625 12.0234375 C-6.64167969 13.00570312 -7.31070313 13.98796875 -8 15 C-20.92011087 34.19790769 -22.63388498 60.37852488 -18.3125 82.5 C-15.25437704 96.86902663 -9.02585779 107.90190978 -0.55078125 119.703125 C0.83210202 121.7513249 1.95859302 123.76328354 3 126 C-5.84257722 118.72943651 -5.84257722 118.72943651 -8.5 113.125 C-9.72945432 110.54787461 -10.94888024 108.08165529 -12.46484375 105.66015625 C-14.37867552 102.3438218 -15.72946201 98.88886024 -17.0625 95.3125 C-17.31837891 94.65572266 -17.57425781 93.99894531 -17.83789062 93.32226562 C-21.6825794 83.09282376 -22.38934336 73.25819843 -22.375 62.375 C-22.37478851 61.71147522 -22.37457703 61.04795044 -22.37435913 60.36431885 C-22.34119394 49.93976101 -21.58874358 40.81001946 -18 31 C-17.4740625 29.47052734 -17.4740625 29.47052734 -16.9375 27.91015625 C-14.67905029 21.94251657 -11.67788735 16.47737245 -8.4375 11 C-8.06149658 10.36441162 -7.68549316 9.72882324 -7.2980957 9.07397461 C-5.18737245 5.61960145 -3.0006503 2.72167828 0 0 Z " fill="#333333" transform="translate(43,57)"/>
<path d="M0 0 C5.49493079 0.65483631 7.4179653 3.03677237 10.875 7.12890625 C20.9951215 20.80223217 26.38921451 34.50897468 26.125 51.5 C26.11597656 52.60859375 26.10695312 53.7171875 26.09765625 54.859375 C26.07426167 57.57314592 26.04148175 60.28645545 26 63 C25.67 63 25.34 63 25 63 C24.93006836 62.37134033 24.86013672 61.74268066 24.78808594 61.0949707 C22.26034782 38.87972884 18.34229372 20.79441821 2.16015625 4.36328125 C0 2 0 2 0 0 Z " fill="#D75D4B" transform="translate(154,51)"/>
<path d="M0 0 C3.13965757 2.66870894 3.88616301 4.24582991 4.5 8.3125 C3.55003139 15.31851853 0.0403446 21.07166306 -5 26 C-10.75313 29.61112643 -16.26561209 30.8248949 -23 30 C-23.99 29.67 -24.98 29.34 -26 29 C-25.67 29.66 -25.34 30.32 -25 31 C-24.6875 33.875 -24.6875 33.875 -25 37 C-26.8670991 39.30275556 -28.35647741 40.67823871 -31 42 C-34.2263676 42.2805537 -36.40118254 42.26789202 -39.375 40.9375 C-41.78794727 38.06052441 -41.2734643 35.62340201 -41 32 C-39 35 -39 35 -38 38 C-32.67829506 38.29562367 -32.67829506 38.29562367 -28 36 C-27.63702064 34.02252878 -27.63702064 34.02252878 -27.8125 31.875 C-27.874375 30.59625 -27.93625 29.3175 -28 28 C-26.91460937 27.97421875 -25.82921875 27.9484375 -24.7109375 27.921875 C-23.26558651 27.86556262 -21.82027556 27.808216 -20.375 27.75 C-19.66214844 27.73582031 -18.94929688 27.72164062 -18.21484375 27.70703125 C-11.92443218 27.41848026 -8.18376123 25.24442126 -3.75 20.6875 C-0.61706778 15.87621124 0.64945606 10.71521332 0 5 C-1.66273336 2.46214383 -2.73355011 2.0681616 -5.6875 1.3125 C-6.450625 1.209375 -7.21375 1.10625 -8 1 C-8 1.99 -8 2.98 -8 4 C-8.99 4 -9.98 4 -11 4 C-10.625 2.0625 -10.625 2.0625 -10 0 C-6.71881373 -1.64059314 -3.41192351 -0.97098218 0 0 Z " fill="#E46D5B" transform="translate(148,122)"/>
<path d="M0 0 C2.9375 0.75 2.9375 0.75 4.9375 2.75 C5.3125 6.1875 5.3125 6.1875 4.9375 9.75 C2.87788258 12.11474592 1.47340369 12.62942167 -1.5625 13.3125 C-4.0625 12.75 -4.0625 12.75 -6.5 10.0625 C-8.0625 6.75 -8.0625 6.75 -7.5 4 C-5.36819711 0.66326505 -3.98331361 -0.32516846 0 0 Z " fill="#E4604C" transform="translate(111.0625,38.25)"/>
<path d="M0 0 C3.7966203 0.61677947 6.8911898 1.76483562 10.375 3.375 C22.59565146 8.55273633 35.91400523 9.638544 49 11 C49 11.33 49 11.66 49 12 C30.88894011 12.6136942 16.43818227 11.33870369 0 3 C0 2.01 0 1.02 0 0 Z " fill="#D15745" transform="translate(69,161)"/>
<path d="M0 0 C3.5 0.25 3.5 0.25 5.5 2.25 C5.625 5.875 5.625 5.875 5.5 9.25 C3.85 9.91 2.2 10.57 0.5 11.25 C1.16 10.26 1.82 9.27 2.5 8.25 C3.16 8.25 3.82 8.25 4.5 8.25 C3.84 6.6 3.18 4.95 2.5 3.25 C0.52 3.25 -1.46 3.25 -3.5 3.25 C-6.11881031 7.17821547 -5.78987737 10.68443139 -5.5 15.25 C-4.51 16.735 -4.51 16.735 -3.5 18.25 C1.53478441 18.01586026 1.53478441 18.01586026 5.4375 15.1875 C5.788125 14.548125 6.13875 13.90875 6.5 13.25 C6.17842796 16.22454134 5.87860258 17.84335278 3.8125 20.0625 C0.71737291 21.65188959 -1.06020007 21.81159999 -4.5 21.25 C-7.375 19.25 -7.375 19.25 -9.5 16.25 C-10.21565715 11.24039992 -10.08636796 9.30546233 -7.625 4.875 C-3.90433213 0.27888087 -3.90433213 0.27888087 0 0 Z " fill="#E36350" transform="translate(73.5,93.75)"/>
<path d="M0 0 C2 2 2 2 2.3125 4.9375 C2 8 2 8 0.5 9.875 C0.005 10.24625 -0.49 10.6175 -1 11 C-1.66 10.67 -2.32 10.34 -3 10 C-2.505 9.608125 -2.01 9.21625 -1.5 8.8125 C0.45593143 6.44908285 0.24207973 4.98564997 0 2 C-2.31 2.33 -4.62 2.66 -7 3 C-8.99584278 7.11642574 -9.42196743 10.44275172 -9 15 C-8.03882095 17.12870693 -8.03882095 17.12870693 -6 18 C-2.95361173 18.07575878 -2.95361173 18.07575878 0 17 C1.89290509 15.06295292 1.89290509 15.06295292 3 13 C2.67842796 15.97454134 2.37860258 17.59335278 0.3125 19.8125 C-2.73546155 21.37766945 -4.61485573 21.49366687 -8 21 C-10.375 19.6875 -10.375 19.6875 -12 17 C-12.68806607 11.97479834 -12.68036208 7.54627746 -10.625 2.875 C-7.51764339 -0.71041147 -4.55520838 -0.24402902 0 0 Z " fill="#E36A58" transform="translate(151,94)"/>
<path d="M0 0 C2.66822459 2.66822459 2.36019182 4.15511221 2.4375 7.875 C2.34189735 13.57018618 2.34189735 13.57018618 -0.1875 16.75 C-3.23523745 18.10454998 -4.73995495 18.75231809 -8 18 C-10.375 15.8125 -10.375 15.8125 -12 13 C-11.75 10.1875 -11.75 10.1875 -11 8 C-10.34 8.33 -9.68 8.66 -9 9 C-9 10.98 -9 12.96 -9 15 C-6.36 14.67 -3.72 14.34 -1 14 C-1 10.04 -1 6.08 -1 2 C-7.93 2 -14.86 2 -22 2 C-22 1.67 -22 1.34 -22 1 C-14.74055787 -0.16151074 -7.3370768 -0.56809387 0 0 Z " fill="#E88B7D" transform="translate(102,149)"/>
<path d="M0 0 C6.48990928 7.86170463 6.42004126 17.95057999 6.1875 27.6875 C6.17396484 28.78255859 6.16042969 29.87761719 6.14648438 31.00585938 C6.11156837 33.67111414 6.06253717 36.33527504 6 39 C5.67 39 5.34 39 5 39 C4.92483154 38.3608667 4.84966309 37.7217334 4.7722168 37.06323242 C4.41917055 34.10356804 4.05339451 31.1456024 3.6875 28.1875 C3.51057617 26.68026367 3.51057617 26.68026367 3.33007812 25.14257812 C2.56353973 19.02992582 1.3899924 13.33446189 -0.50073242 7.46606445 C-1.06799236 4.66416096 -0.73178598 2.74059822 0 0 Z " fill="#D35543" transform="translate(174,75)"/>
<path d="M0 0 C0.33 0 0.66 0 1 0 C1.3801207 4.33066089 1.70602407 8.66265014 2 13 C2.06832031 13.89203125 2.13664063 14.7840625 2.20703125 15.703125 C2.4912627 22.22992123 1.13481768 28.22312863 -2 34 C-3.485 34.495 -3.485 34.495 -5 35 C-6.20882096 37.00016466 -6.20882096 37.00016466 -7 39 C-7 35.25932421 -5.86994267 32.62879821 -4.5625 29.125 C-1.89250883 21.95938268 -0.82459547 15.75807198 -0.4375 8.1875 C-0.37272461 7.00510742 -0.37272461 7.00510742 -0.30664062 5.79882812 C-0.20121679 3.86605785 -0.10016906 1.93304974 0 0 Z " fill="#DC6655" transform="translate(177,96)"/>
<path d="M0 0 C3.13965757 2.66870894 3.88616301 4.24582991 4.5 8.3125 C3.90264248 12.71801168 2.67360941 16.4104318 0 20 C-2.140625 21.23046875 -2.140625 21.23046875 -4 22 C-3.566875 20.91332031 -3.566875 20.91332031 -3.125 19.8046875 C-0.15560348 12.61725986 -0.15560348 12.61725986 0 5 C-1.66273336 2.46214383 -2.73355011 2.0681616 -5.6875 1.3125 C-6.450625 1.209375 -7.21375 1.10625 -8 1 C-8 1.99 -8 2.98 -8 4 C-8.99 4 -9.98 4 -11 4 C-10.625 2.0625 -10.625 2.0625 -10 0 C-6.71881373 -1.64059314 -3.41192351 -0.97098218 0 0 Z " fill="#E47260" transform="translate(148,122)"/>
<path d="M0 0 C1.8907484 3.7814968 0.58477441 8.451926 0.1875 12.5625 C0.10435547 13.54669922 0.02121094 14.53089844 -0.06445312 15.54492188 C-0.15275391 16.48013672 -0.24105469 17.41535156 -0.33203125 18.37890625 C-0.41171143 19.2407251 -0.4913916 20.10254395 -0.57348633 20.99047852 C-0.71423584 21.65362061 -0.85498535 22.3167627 -1 23 C-1.66 23.33 -2.32 23.66 -3 24 C-3 17.4 -3 10.8 -3 4 C-2.34 4 -1.68 4 -1 4 C-0.67 2.68 -0.34 1.36 0 0 Z " fill="#E15844" transform="translate(37,84)"/>
<path d="M0 0 C1.73364794 3.23406971 2.91742948 6.51689574 4.0625 10 C4.40410156 11.03125 4.74570312 12.0625 5.09765625 13.125 C5.81445726 15.40883353 6.4567875 17.67034637 7 20 C5.68 20 4.36 20 3 20 C0.8408662 13.12418702 -0.35482211 7.21471629 0 0 Z " fill="#E16856" transform="translate(37,114)"/>
<path d="M0 0 C0.66 0.33 1.32 0.66 2 1 C2 2.98 2 4.96 2 7 C7.62006722 6.88785352 7.62006722 6.88785352 12 3.9375 C12.33 3.298125 12.66 2.65875 13 2 C12.67372714 5.01802393 12.38918764 6.59691281 10.25 8.8125 C7.47734231 10.27584711 6.08715918 10.61743184 3 10 C0.625 7.8125 0.625 7.8125 -1 5 C-0.75 2.1875 -0.75 2.1875 0 0 Z " fill="#E67969" transform="translate(91,157)"/>
<path d="M0 0 C0.33 0.99 0.66 1.98 1 3 C-0.58143471 4.43958847 -2.16522779 5.87658645 -3.75 7.3125 C-4.63171875 8.11300781 -5.5134375 8.91351563 -6.421875 9.73828125 C-8.55449328 11.60916911 -10.70187943 13.34084286 -13 15 C-13 10.92941994 -11.35264526 9.66089955 -8.73046875 6.71484375 C-6.35167612 4.35753006 -3.86182703 2.73040704 -1 1 C-0.67 0.67 -0.34 0.34 0 0 Z " fill="#E76754" transform="translate(64,46)"/>
<path d="M0 0 C4.35400552 1.88892367 7.73341769 4.59356401 11 8 C10.01 8.33 9.02 8.66 8 9 C7.67 8.01 7.34 7.02 7 6 C5.16715557 4.87483915 5.16715557 4.87483915 3 4 C2.401875 3.62875 1.80375 3.2575 1.1875 2.875 C-2.93799943 1.22480023 -6.79493745 1.58976594 -10.9375 3 C-11.9584375 3.495 -11.9584375 3.495 -13 4 C-12.67 3.01 -12.34 2.02 -12 1 C-8.25473172 -0.87263414 -4.07762536 -0.54169913 0 0 Z " fill="#E88373" transform="translate(115,56)"/>
<path d="M0 0 C0.99 0.33 1.98 0.66 3 1 C-3.60564035 6.80495667 -9.41600946 8.52555044 -18 8 C-17.67 7.34 -17.34 6.68 -17 6 C-14.92578125 5.7265625 -14.92578125 5.7265625 -12.3125 5.625 C-6.95781871 5.21074099 -3.83977406 3.83977406 0 0 Z " fill="#E67E6E" transform="translate(143,144)"/>
<path d="M0 0 C2.58333652 3.41369468 3.36546942 5.7361901 3 10 C2.01 10 1.02 10 0 10 C-0.103125 8.88625 -0.20625 7.7725 -0.3125 6.625 C-0.539375 5.42875 -0.76625 4.2325 -1 3 C-4.18762365 0.87491756 -6.26512223 0.4979837 -10 0 C-10 -0.33 -10 -0.66 -10 -1 C-3.31955485 -2.51828299 -3.31955485 -2.51828299 0 0 Z " fill="#E57362" transform="translate(78,122)"/>
<path d="M0 0 C0.33 0.66 0.66 1.32 1 2 C1.721875 2.20625 2.44375 2.4125 3.1875 2.625 C7.42117449 4.69479642 9.94051919 7.77806434 12 12 C12.20281627 14.99154005 11.73871811 17.04512758 11 20 C10.67 20 10.34 20 10 20 C9.9484375 19.35933594 9.896875 18.71867187 9.84375 18.05859375 C9.12802899 12.60122102 8.2037885 9.62648488 3.875 6.0625 C3.15054688 5.53785156 2.42609375 5.01320313 1.6796875 4.47265625 C1.12539062 3.98667969 0.57109375 3.50070313 0 3 C0 2.01 0 1.02 0 0 Z " fill="#EA8B7D" transform="translate(116,43)"/>
<path d="M0 0 C0.66 0 1.32 0 2 0 C2.31330487 5.22174778 1.88015136 8.57691041 -1 13 C-3.109375 14.16796875 -3.109375 14.16796875 -5 15 C-4.72285156 14.25234375 -4.44570312 13.5046875 -4.16015625 12.734375 C-3.79792969 11.74953125 -3.43570313 10.7646875 -3.0625 9.75 C-2.52302734 8.28820312 -2.52302734 8.28820312 -1.97265625 6.796875 C-1.18620345 4.53542839 -0.52748399 2.33203448 0 0 Z " fill="#E2624F" transform="translate(149,129)"/>
<path d="M0 0 C0.66 0.66 1.32 1.32 2 2 C1.0925 2.37125 0.185 2.7425 -0.75 3.125 C-4.62809249 5.36236105 -6.00154199 7.00308398 -8 11 C-8.58266023 13.99653833 -8.86455228 16.95242626 -9 20 C-9.33 20 -9.66 20 -10 20 C-11.07863794 15.57667801 -11.98229218 11.7261088 -9.6484375 7.625 C-6.73415943 4.25187815 -4.10111885 1.81867798 0 0 Z " fill="#E87D6D" transform="translate(102,45)"/>
<path d="M0 0 C-0.33 0.66 -0.66 1.32 -1 2 C-7.27 1.67 -13.54 1.34 -20 1 C-20 0.67 -20 0.34 -20 0 C-17.60458732 -0.19585135 -15.20907226 -0.38192107 -12.8125 -0.5625 C-11.80219727 -0.64661133 -11.80219727 -0.64661133 -10.77148438 -0.73242188 C-6.982869 -1.00963763 -3.68172206 -0.96511161 0 0 Z " fill="#E46856" transform="translate(121,170)"/>
<path d="M0 0 C-1.44781793 3.44428265 -3.27694609 5.36130962 -6.125 7.75 C-7.21167969 8.67039063 -7.21167969 8.67039063 -8.3203125 9.609375 C-8.87460938 10.06828125 -9.42890625 10.5271875 -10 11 C-10 8 -10 8 -8.3203125 5.95703125 C-7.23363281 4.89548828 -7.23363281 4.89548828 -6.125 3.8125 C-5.40570313 3.09707031 -4.68640625 2.38164062 -3.9453125 1.64453125 C-2 0 -2 0 0 0 Z " fill="#C95644" transform="translate(164,146)"/>
<path d="M0 0 C4.00754167 1.33584722 5.37476236 3.76893828 8 7 C8.66 7.33 9.32 7.66 10 8 C9.67 9.32 9.34 10.64 9 12 C4.99027798 8.32442148 2.54664585 4.81033104 0 0 Z " fill="#E36855" transform="translate(87,129)"/>
<path d="M0 0 C0.33 0 0.66 0 1 0 C1 4.29 1 8.58 1 13 C0.34 13 -0.32 13 -1 13 C-3 10 -3 10 -3 7 C-2.34 6.67 -1.68 6.34 -1 6 C-0.34227572 2.97065509 -0.34227572 2.97065509 0 0 Z " fill="#E25843" transform="translate(127,57)"/>
<path d="M0 0 C0.66 0.33 1.32 0.66 2 1 C2 1.66 2 2.32 2 3 C-2.62 2.34 -7.24 1.68 -12 1 C-6.97915378 -1.51042311 -5.37773324 -0.95411396 0 0 Z " fill="#E66A58" transform="translate(125,35)"/>
<path d="M0 0 C0.99 0.33 1.98 0.66 3 1 C1.60804085 3.7839183 -0.15575779 3.97898997 -3 5 C-1.125 1.125 -1.125 1.125 0 0 Z M-8 8 C-7.34 8.33 -6.68 8.66 -6 9 C-7.32 10.32 -8.64 11.64 -10 13 C-10.66 12.67 -11.32 12.34 -12 12 C-10.68 10.68 -9.36 9.36 -8 8 Z " fill="#E16855" transform="translate(163,143)"/>
<path d="M0 0 C0.598125 0.350625 1.19625 0.70125 1.8125 1.0625 C1.8125 3.3725 1.8125 5.6825 1.8125 8.0625 C0.1625 8.7225 -1.4875 9.3825 -3.1875 10.0625 C-2.5275 9.0725 -1.8675 8.0825 -1.1875 7.0625 C-0.5275 7.0625 0.1325 7.0625 0.8125 7.0625 C-0.3553266 3.24836998 -0.3553266 3.24836998 -3.3125 0.75 C-3.93125 0.523125 -4.55 0.29625 -5.1875 0.0625 C-2.1875 -0.9375 -2.1875 -0.9375 0 0 Z " fill="#E67867" transform="translate(77.1875,94.9375)"/>
<path d="M0 0 C0.66 0 1.32 0 2 0 C2.33 1.32 2.66 2.64 3 4 C1.35 5.32 -0.3 6.64 -2 8 C-2 6.68 -2 5.36 -2 4 C-1.34 4 -0.68 4 0 4 C0 2.68 0 1.36 0 0 Z M-4 8 C-3.01 8.495 -3.01 8.495 -2 9 C-2.99 9.495 -2.99 9.495 -4 10 C-4 9.34 -4 8.68 -4 8 Z " fill="#2A2A2A" transform="translate(208,155)"/>
<path d="M0 0 C2.50298434 2.93828597 3.46930939 5.17902761 4 9 C2.68 8.67 1.36 8.34 0 8 C-1.125 2.25 -1.125 2.25 0 0 Z " fill="#C65746" transform="translate(174,75)"/>
<path d="M0 0 C2 3 2 3 3 6 C5.97 6.495 5.97 6.495 9 7 C9 7.33 9 7.66 9 8 C5.625 8.625 5.625 8.625 2 9 C0 7 0 7 -0.125 3.375 C-0.08375 2.26125 -0.0425 1.1475 0 0 Z " fill="#E57867" transform="translate(107,154)"/>
<path d="M0 0 C3.3 0 6.6 0 10 0 C10 0.33 10 0.66 10 1 C8.329375 1.4021875 8.329375 1.4021875 6.625 1.8125 C2.78159049 2.65809019 2.78159049 2.65809019 1 6 C0.67 4.02 0.34 2.04 0 0 Z " fill="#E35844" transform="translate(71,63)"/>
<path d="M0 0 C0.99 0.33 1.98 0.66 3 1 C3 3.97 3 6.94 3 10 C2.01 9.34 1.02 8.68 0 8 C-0.40843923 5.28796348 -0.13336867 2.7562858 0 0 Z " fill="#E67968" transform="translate(64,102)"/>
</svg>
